<svg width="44" height="48" viewBox="0 0 44 48" fill="none" xmlns="http://www.w3.org/2000/svg">
<path d="M0.66 39.785H10.384V40.863H0.66V39.785ZM6.138 40.214C6.37267 41.0793 6.688 41.886 7.084 42.634C7.48733 43.382 7.97867 44.0383 8.558 44.603C9.14467 45.1603 9.823 45.6003 10.593 45.923C10.505 45.9963 10.4097 46.0917 10.307 46.209C10.2117 46.3263 10.12 46.4437 10.032 46.561C9.944 46.6857 9.87067 46.7957 9.812 46.891C8.998 46.5097 8.28667 46.0073 7.678 45.384C7.07667 44.7533 6.567 44.0237 6.149 43.195C5.731 42.3663 5.379 41.457 5.093 40.467L6.138 40.214ZM4.928 36.716H6.061C6.061 37.2367 6.04633 37.7977 6.017 38.399C5.995 38.993 5.94 39.6053 5.852 40.236C5.764 40.8667 5.621 41.4973 5.423 42.128C5.225 42.7587 4.95 43.3673 4.598 43.954C4.246 44.5407 3.795 45.087 3.245 45.593C2.695 46.0917 2.024 46.528 1.232 46.902C1.144 46.7627 1.02667 46.6087 0.88 46.44C0.733333 46.2787 0.586667 46.143 0.44 46.033C1.20267 45.6883 1.84433 45.2887 2.365 44.834C2.893 44.372 3.31833 43.8733 3.641 43.338C3.971 42.7953 4.224 42.2343 4.4 41.655C4.576 41.0757 4.70067 40.4963 4.774 39.917C4.84733 39.3377 4.89133 38.7767 4.906 38.234C4.92067 37.6913 4.928 37.1853 4.928 36.716ZM12.045 45.538C12.6977 45.5233 13.4493 45.5013 14.3 45.472C15.158 45.4427 16.0637 45.4097 17.017 45.373C17.9777 45.3363 18.931 45.2997 19.877 45.263L19.833 46.209C18.9237 46.2603 18.0033 46.308 17.072 46.352C16.148 46.396 15.2643 46.4363 14.421 46.473C13.585 46.5097 12.8407 46.539 12.188 46.561L12.045 45.538ZM11.968 42.194H21.098V43.173H11.968V42.194ZM13.882 40.082H19.096V41.05H13.882V40.082ZM14.839 42.832L16.016 43.151C15.8473 43.503 15.6677 43.866 15.477 44.24C15.2937 44.6067 15.1067 44.9623 14.916 45.307C14.7253 45.6443 14.5457 45.9487 14.377 46.22L13.453 45.912C13.6217 45.626 13.794 45.307 13.97 44.955C14.146 44.5957 14.311 44.229 14.465 43.855C14.619 43.481 14.7437 43.14 14.839 42.832ZM17.512 43.976L18.414 43.503C18.7513 43.7817 19.085 44.0897 19.415 44.427C19.745 44.7643 20.0457 45.1017 20.317 45.439C20.5957 45.7763 20.8193 46.0843 20.988 46.363L20.031 46.946C19.8697 46.6673 19.6533 46.352 19.382 46C19.1107 45.6553 18.81 45.307 18.48 44.955C18.1573 44.5957 17.8347 44.2693 17.512 43.976ZM16.467 37.728C16.1737 38.1607 15.7923 38.6043 15.323 39.059C14.8537 39.5063 14.3293 39.9353 13.75 40.346C13.178 40.7493 12.5803 41.105 11.957 41.413C11.9203 41.325 11.8653 41.2297 11.792 41.127C11.726 41.017 11.6527 40.9143 11.572 40.819C11.4913 40.7163 11.4143 40.6247 11.341 40.544C11.979 40.258 12.5913 39.9023 13.178 39.477C13.7647 39.0517 14.2927 38.6007 14.762 38.124C15.2313 37.6473 15.6053 37.1817 15.884 36.727H16.962C17.2553 37.1377 17.5853 37.5263 17.952 37.893C18.3187 38.2597 18.711 38.6007 19.129 38.916C19.547 39.2313 19.9723 39.5137 20.405 39.763C20.845 40.0123 21.285 40.2213 21.725 40.39C21.6003 40.522 21.4793 40.676 21.362 40.852C21.252 41.0207 21.1493 41.182 21.054 41.336C20.4893 41.0647 19.9173 40.7347 19.338 40.346C18.7587 39.9573 18.2197 39.5393 17.721 39.092C17.2223 38.6373 16.8043 38.1827 16.467 37.728ZM23.837 37.42H31.251V46.759H30.129V38.476H24.904V46.803H23.837V37.42ZM24.552 41.182H30.602V42.216H24.552V41.182ZM24.541 45.032H30.613V46.077H24.541V45.032ZM39.996 41.952H41.03V46.363H39.996V41.952ZM37.686 41.567H43.384V42.469H37.686V41.567ZM37.224 45.736H43.626V46.66H37.224V45.736ZM37.939 43.613H43.131V44.504H37.939V43.613ZM39.039 38.036V39.851H42.031V38.036H39.039ZM38.071 37.156H43.043V40.731H38.071V37.156ZM35.2 37.673H36.212V46.913H35.2V37.673ZM33.495 39.807H37.51V40.786H33.495V39.807ZM35.255 40.192L35.882 40.467C35.772 40.8557 35.64 41.2627 35.486 41.688C35.332 42.106 35.1633 42.5203 34.98 42.931C34.804 43.3417 34.6133 43.7267 34.408 44.086C34.2027 44.4453 33.9937 44.7533 33.781 45.01C33.7297 44.8633 33.6527 44.6983 33.55 44.515C33.4473 44.3243 33.3557 44.1667 33.275 44.042C33.473 43.822 33.6673 43.5617 33.858 43.261C34.0487 42.953 34.232 42.6267 34.408 42.282C34.5913 41.93 34.7527 41.5743 34.892 41.215C35.0387 40.8557 35.1597 40.5147 35.255 40.192ZM36.872 36.848L37.587 37.651C37.2277 37.7903 36.828 37.9187 36.388 38.036C35.9553 38.146 35.508 38.245 35.046 38.333C34.584 38.4137 34.1367 38.487 33.704 38.553C33.682 38.4357 33.6417 38.3 33.583 38.146C33.5243 37.992 33.4657 37.86 33.407 37.75C33.8177 37.684 34.2357 37.607 34.661 37.519C35.0937 37.4237 35.5007 37.321 35.882 37.211C36.2707 37.0937 36.6007 36.9727 36.872 36.848ZM36.19 41.281C36.256 41.3323 36.3587 41.4313 36.498 41.578C36.6373 41.7173 36.7877 41.8677 36.949 42.029C37.1177 42.1903 37.268 42.3443 37.4 42.491C37.532 42.6303 37.6237 42.733 37.675 42.799L37.07 43.613C37.004 43.4957 36.9123 43.349 36.795 43.173C36.685 42.997 36.5603 42.8173 36.421 42.634C36.289 42.4433 36.1607 42.2637 36.036 42.095C35.9113 41.9263 35.805 41.7907 35.717 41.688L36.19 41.281Z" fill="#666C6C"/>
<g clip-path="url(#clip0_295_12291)">
<path d="M35.4584 5.6665H32.3889V7.55539H35.2222V28.3332H8.7778V7.55539H11.6111V5.6665H8.54169C8.32092 5.67019 8.10303 5.71734 7.90048 5.80525C7.69793 5.89316 7.51468 6.02011 7.36119 6.17886C7.20771 6.3376 7.08701 6.52502 7.00597 6.73042C6.92494 6.93582 6.88516 7.15517 6.88891 7.37595V28.5126C6.88516 28.7334 6.92494 28.9527 7.00597 29.1581C7.08701 29.3635 7.20771 29.551 7.36119 29.7097C7.51468 29.8685 7.69793 29.9954 7.90048 30.0833C8.10303 30.1712 8.32092 30.2184 8.54169 30.2221H35.4584C35.6791 30.2184 35.897 30.1712 36.0996 30.0833C36.3021 29.9954 36.4854 29.8685 36.6389 29.7097C36.7923 29.551 36.913 29.3635 36.9941 29.1581C37.0751 28.9527 37.1149 28.7334 37.1111 28.5126V7.37595C37.1149 7.15517 37.0751 6.93582 36.9941 6.73042C36.913 6.52502 36.7923 6.3376 36.6389 6.17886C36.4854 6.02011 36.3021 5.89316 36.0996 5.80525C35.897 5.71734 35.6791 5.67019 35.4584 5.6665Z" fill="#666C6C"/>
<path d="M12.5557 13.2222H14.4446V15.1111H12.5557V13.2222Z" fill="#666C6C"/>
<path d="M18.2227 13.2222H20.1115V15.1111H18.2227V13.2222Z" fill="#666C6C"/>
<path d="M23.8887 13.2222H25.7776V15.1111H23.8887V13.2222Z" fill="#666C6C"/>
<path d="M29.5557 13.2222H31.4446V15.1111H29.5557V13.2222Z" fill="#666C6C"/>
<path d="M12.5557 17.9443H14.4446V19.8332H12.5557V17.9443Z" fill="#666C6C"/>
<path d="M18.2227 17.9443H20.1115V19.8332H18.2227V17.9443Z" fill="#666C6C"/>
<path d="M23.8887 17.9443H25.7776V19.8332H23.8887V17.9443Z" fill="#666C6C"/>
<path d="M29.5557 17.9443H31.4446V19.8332H29.5557V17.9443Z" fill="#666C6C"/>
<path d="M12.5557 22.6665H14.4446V24.5554H12.5557V22.6665Z" fill="#666C6C"/>
<path d="M18.2227 22.6665H20.1115V24.5554H18.2227V22.6665Z" fill="#666C6C"/>
<path d="M23.8887 22.6665H25.7776V24.5554H23.8887V22.6665Z" fill="#666C6C"/>
<path d="M29.5557 22.6665H31.4446V24.5554H29.5557V22.6665Z" fill="#666C6C"/>
<path d="M14.4444 9.44423C14.6949 9.44423 14.9351 9.34472 15.1123 9.16761C15.2894 8.99049 15.3889 8.75027 15.3889 8.49978V2.83312C15.3889 2.58263 15.2894 2.34241 15.1123 2.16529C14.9351 1.98818 14.6949 1.88867 14.4444 1.88867C14.194 1.88867 13.9537 1.98818 13.7766 2.16529C13.5995 2.34241 13.5 2.58263 13.5 2.83312V8.49978C13.5 8.75027 13.5995 8.99049 13.7766 9.16761C13.9537 9.34472 14.194 9.44423 14.4444 9.44423Z" fill="#666C6C"/>
<path d="M29.5558 9.44423C29.8063 9.44423 30.0465 9.34472 30.2236 9.16761C30.4007 8.99049 30.5002 8.75027 30.5002 8.49978V2.83312C30.5002 2.58263 30.4007 2.34241 30.2236 2.16529C30.0465 1.98818 29.8063 1.88867 29.5558 1.88867C29.3053 1.88867 29.0651 1.98818 28.8879 2.16529C28.7108 2.34241 28.6113 2.58263 28.6113 2.83312V8.49978C28.6113 8.75027 28.7108 8.99049 28.8879 9.16761C29.0651 9.34472 29.3053 9.44423 29.5558 9.44423Z" fill="#666C6C"/>
<path d="M17.2773 5.6665H26.7218V7.55539H17.2773V5.6665Z" fill="#666C6C"/>
</g>
<defs>
<clipPath id="clip0_295_12291">
<rect width="34" height="34" fill="white" transform="translate(5)"/>
</clipPath>
</defs>
</svg>
