<svg width="53" height="41" viewBox="0 0 53 41" fill="none" xmlns="http://www.w3.org/2000/svg">
<path d="M14.5138 22C13.7972 22 13.1993 21.758 12.7202 21.274C12.2411 20.79 12.001 20.1855 12 19.4606V2.53943C12 1.81552 12.2401 1.21157 12.7202 0.727571C13.2004 0.243571 13.7977 0.00104762 14.5122 0H37.4878C38.2033 0 38.8007 0.242523 39.2798 0.727571C39.7589 1.21262 39.999 1.81657 40 2.53943V19.4621C40 20.185 39.7599 20.7889 39.2798 21.274C38.7996 21.759 38.2023 22.001 37.4878 22H14.5138ZM26 11.1823L13.5556 2.96214V19.4621C13.5556 19.7439 13.6453 19.9755 13.8247 20.1567C14.0041 20.3379 14.2338 20.4286 14.5138 20.4286H37.4878C37.7667 20.4286 37.9959 20.3379 38.1753 20.1567C38.3547 19.9755 38.4444 19.7434 38.4444 19.4606V2.96057L26 11.1823ZM26 9.42857L37.9653 1.57143H14.0347L26 9.42857ZM13.5556 2.96214V1.57143V19.4621C13.5556 19.7439 13.6453 19.9755 13.8247 20.1567C14.0041 20.3379 14.2338 20.4286 14.5138 20.4286H13.5556V2.96214Z" fill="#666C6C"/>
<path d="M2.135 31.344C2.333 31.3587 2.54933 31.3733 2.784 31.388C3.01867 31.4027 3.22767 31.41 3.411 31.41H8.878C9.02467 31.41 9.18233 31.41 9.351 31.41C9.527 31.4027 9.66267 31.3953 9.758 31.388C9.75067 31.5127 9.74333 31.663 9.736 31.839C9.736 32.0077 9.736 32.1653 9.736 32.312V37.999C9.736 38.1897 9.73967 38.4023 9.747 38.637C9.76167 38.8643 9.77267 39.0403 9.78 39.165H8.526C8.526 39.0403 8.52967 38.8863 8.537 38.703C8.54433 38.5123 8.548 38.318 8.548 38.12V32.521H3.411C3.19833 32.521 2.96733 32.5247 2.718 32.532C2.46867 32.5393 2.27433 32.5503 2.135 32.565V31.344ZM2.003 37.372C2.16433 37.3793 2.35867 37.3903 2.586 37.405C2.81333 37.4197 3.04433 37.427 3.279 37.427H9.197V38.571H3.323C3.103 38.571 2.86833 38.5747 2.619 38.582C2.36967 38.5893 2.16433 38.6003 2.003 38.615V37.372ZM13.223 30.805C13.421 30.937 13.6483 31.102 13.905 31.3C14.1617 31.4907 14.422 31.696 14.686 31.916C14.9573 32.136 15.214 32.3487 15.456 32.554C15.698 32.7593 15.8923 32.9427 16.039 33.104L15.17 33.995C15.0307 33.8483 14.8473 33.6723 14.62 33.467C14.3927 33.2543 14.147 33.038 13.883 32.818C13.6263 32.5907 13.3697 32.378 13.113 32.18C12.8563 31.9747 12.6253 31.8023 12.42 31.663L13.223 30.805ZM12.09 38.164C12.706 38.0687 13.2743 37.944 13.795 37.79C14.3157 37.6287 14.7923 37.449 15.225 37.251C15.665 37.0457 16.061 36.8367 16.413 36.624C16.9997 36.2647 17.5387 35.8503 18.03 35.381C18.5287 34.9117 18.965 34.4277 19.339 33.929C19.713 33.4303 20.01 32.9463 20.23 32.477L20.901 33.676C20.637 34.1527 20.3107 34.6293 19.922 35.106C19.5407 35.5827 19.108 36.041 18.624 36.481C18.14 36.9137 17.612 37.306 17.04 37.658C16.6733 37.8853 16.27 38.1053 15.83 38.318C15.3973 38.5307 14.928 38.7213 14.422 38.89C13.9233 39.0587 13.3917 39.1943 12.827 39.297L12.09 38.164ZM25.631 33.907C25.9757 34.1123 26.346 34.3433 26.742 34.6C27.138 34.8493 27.534 35.1133 27.93 35.392C28.326 35.6633 28.7 35.9273 29.052 36.184C29.4113 36.4407 29.7193 36.679 29.976 36.899L29.162 37.867C28.9127 37.6397 28.612 37.3867 28.26 37.108C27.9153 36.8293 27.5413 36.5433 27.138 36.25C26.742 35.9567 26.346 35.678 25.95 35.414C25.5613 35.1427 25.202 34.9007 24.872 34.688L25.631 33.907ZM30.724 31.96C30.6727 32.048 30.6177 32.158 30.559 32.29C30.5077 32.4147 30.4637 32.532 30.427 32.642C30.317 32.994 30.1667 33.3827 29.976 33.808C29.7927 34.2333 29.569 34.666 29.305 35.106C29.0483 35.5387 28.7587 35.9567 28.436 36.36C27.93 36.9833 27.3067 37.581 26.566 38.153C25.8327 38.7177 24.9453 39.198 23.904 39.594L22.903 38.714C23.6217 38.494 24.2597 38.2263 24.817 37.911C25.3817 37.5957 25.8803 37.2547 26.313 36.888C26.7457 36.514 27.1233 36.1363 27.446 35.755C27.7173 35.4323 27.9667 35.0803 28.194 34.699C28.4287 34.3177 28.6303 33.9363 28.799 33.555C28.975 33.1737 29.0997 32.829 29.173 32.521H25.246L25.664 31.531H29.008C29.162 31.531 29.3123 31.52 29.459 31.498C29.6057 31.476 29.7303 31.4467 29.833 31.41L30.724 31.96ZM27.05 30.332C26.94 30.4933 26.83 30.6693 26.72 30.86C26.6173 31.0507 26.5367 31.201 26.478 31.311C26.2433 31.7217 25.9427 32.1727 25.576 32.664C25.2167 33.1553 24.8023 33.6393 24.333 34.116C23.8637 34.5853 23.3503 35.0143 22.793 35.403L21.858 34.677C22.496 34.281 23.0423 33.8557 23.497 33.401C23.959 32.9463 24.344 32.5027 24.652 32.07C24.96 31.6373 25.202 31.256 25.378 30.926C25.444 30.816 25.5173 30.6657 25.598 30.475C25.686 30.277 25.752 30.0973 25.796 29.936L27.05 30.332ZM41.064 32.136C41.0053 32.224 40.9503 32.3303 40.899 32.455C40.8477 32.5797 40.8 32.697 40.756 32.807C40.6607 33.159 40.525 33.5477 40.349 33.973C40.173 34.3983 39.9567 34.8347 39.7 35.282C39.4433 35.722 39.15 36.1437 38.82 36.547C38.314 37.1703 37.709 37.735 37.005 38.241C36.3083 38.747 35.4467 39.198 34.42 39.594L33.397 38.681C34.1083 38.4683 34.7317 38.2227 35.267 37.944C35.8097 37.658 36.2863 37.3463 36.697 37.009C37.115 36.6717 37.4853 36.3123 37.808 35.931C38.0867 35.6157 38.336 35.2673 38.556 34.886C38.7833 34.4973 38.9777 34.1123 39.139 33.731C39.3077 33.3423 39.4213 32.994 39.48 32.686H35.564L35.982 31.696C36.0773 31.696 36.2387 31.696 36.466 31.696C36.7007 31.696 36.9647 31.696 37.258 31.696C37.5587 31.696 37.852 31.696 38.138 31.696C38.4313 31.696 38.6843 31.696 38.897 31.696C39.117 31.696 39.2637 31.696 39.337 31.696C39.491 31.696 39.6413 31.6887 39.788 31.674C39.9347 31.652 40.0593 31.6227 40.162 31.586L41.064 32.136ZM37.423 30.442C37.313 30.6033 37.203 30.7793 37.093 30.97C36.9903 31.1607 36.9097 31.311 36.851 31.421C36.6237 31.839 36.334 32.2827 35.982 32.752C35.6373 33.2213 35.2377 33.6833 34.783 34.138C34.3283 34.5853 33.8187 34.9997 33.254 35.381L32.286 34.655C32.7627 34.369 33.188 34.0647 33.562 33.742C33.936 33.4193 34.2587 33.0967 34.53 32.774C34.8087 32.444 35.047 32.1287 35.245 31.828C35.443 31.5273 35.608 31.256 35.74 31.014C35.806 30.904 35.8793 30.7537 35.96 30.563C36.0407 30.365 36.103 30.1853 36.147 30.024L37.423 30.442ZM45.277 37.988C45.277 37.8707 45.277 37.658 45.277 37.35C45.277 37.0347 45.277 36.6643 45.277 36.239C45.277 35.8063 45.277 35.359 45.277 34.897C45.277 34.4277 45.277 33.973 45.277 33.533C45.277 33.093 45.277 32.7043 45.277 32.367C45.277 32.0297 45.277 31.784 45.277 31.63C45.277 31.454 45.2697 31.2523 45.255 31.025C45.2403 30.7903 45.2147 30.5813 45.178 30.398H46.531C46.5163 30.574 46.498 30.7757 46.476 31.003C46.4613 31.2303 46.454 31.4393 46.454 31.63C46.454 31.8793 46.454 32.1947 46.454 32.576C46.454 32.95 46.454 33.357 46.454 33.797C46.454 34.237 46.454 34.6807 46.454 35.128C46.454 35.5753 46.454 35.997 46.454 36.393C46.454 36.7817 46.454 37.119 46.454 37.405C46.454 37.691 46.454 37.8853 46.454 37.988C46.454 38.1053 46.4577 38.2483 46.465 38.417C46.4723 38.5857 46.4833 38.758 46.498 38.934C46.5127 39.1027 46.5273 39.2567 46.542 39.396H45.189C45.2183 39.2053 45.2403 38.978 45.255 38.714C45.2697 38.4427 45.277 38.2007 45.277 37.988ZM46.201 33.269C46.5603 33.3717 46.9637 33.5 47.411 33.654C47.8583 33.8007 48.3093 33.962 48.764 34.138C49.2187 34.3067 49.6513 34.4753 50.062 34.644C50.4727 34.8127 50.821 34.9667 51.107 35.106L50.612 36.305C50.304 36.1363 49.9557 35.9677 49.567 35.799C49.1857 35.623 48.7933 35.4543 48.39 35.293C47.9867 35.1317 47.5943 34.985 47.213 34.853C46.839 34.721 46.5017 34.6073 46.201 34.512V33.269Z" fill="#666C6C"/>
</svg>
