<svg width="50" height="46" viewBox="0 0 50 46" fill="none" xmlns="http://www.w3.org/2000/svg">
<path d="M14.539 37.136C14.4803 37.224 14.4253 37.3303 14.374 37.455C14.3227 37.5797 14.275 37.697 14.231 37.807C14.1357 38.159 14 38.5477 13.824 38.973C13.648 39.3983 13.4317 39.8347 13.175 40.282C12.9183 40.722 12.625 41.1437 12.295 41.547C11.789 42.1703 11.184 42.735 10.48 43.241C9.78333 43.747 8.92167 44.198 7.895 44.594L6.872 43.681C7.58333 43.4683 8.20667 43.2227 8.742 42.944C9.28467 42.658 9.76133 42.3463 10.172 42.009C10.59 41.6717 10.9603 41.3123 11.283 40.931C11.5617 40.6157 11.811 40.2673 12.031 39.886C12.2583 39.4973 12.4527 39.1123 12.614 38.731C12.7827 38.3423 12.8963 37.994 12.955 37.686H9.039L9.457 36.696C9.55233 36.696 9.71367 36.696 9.941 36.696C10.1757 36.696 10.4397 36.696 10.733 36.696C11.0337 36.696 11.327 36.696 11.613 36.696C11.9063 36.696 12.1593 36.696 12.372 36.696C12.592 36.696 12.7387 36.696 12.812 36.696C12.966 36.696 13.1163 36.6887 13.263 36.674C13.4097 36.652 13.5343 36.6227 13.637 36.586L14.539 37.136ZM10.898 35.442C10.788 35.6033 10.678 35.7793 10.568 35.97C10.4653 36.1607 10.3847 36.311 10.326 36.421C10.0987 36.839 9.809 37.2827 9.457 37.752C9.11233 38.2213 8.71267 38.6833 8.258 39.138C7.80333 39.5853 7.29367 39.9997 6.729 40.381L5.761 39.655C6.23767 39.369 6.663 39.0647 7.037 38.742C7.411 38.4193 7.73367 38.0967 8.005 37.774C8.28367 37.444 8.522 37.1287 8.72 36.828C8.918 36.5273 9.083 36.256 9.215 36.014C9.281 35.904 9.35433 35.7537 9.435 35.563C9.51567 35.365 9.578 35.1853 9.622 35.024L10.898 35.442ZM15.672 39.094C15.7967 39.1013 15.947 39.1123 16.123 39.127C16.3063 39.1343 16.5007 39.1417 16.706 39.149C16.9187 39.1563 17.1203 39.16 17.311 39.16C17.4577 39.16 17.6593 39.16 17.916 39.16C18.1727 39.16 18.4623 39.16 18.785 39.16C19.115 39.16 19.4597 39.16 19.819 39.16C20.1783 39.16 20.534 39.16 20.886 39.16C21.2453 39.16 21.5827 39.16 21.898 39.16C22.2133 39.16 22.492 39.16 22.734 39.16C22.976 39.16 23.163 39.16 23.295 39.16C23.559 39.16 23.7973 39.1527 24.01 39.138C24.2227 39.116 24.395 39.1013 24.527 39.094V40.458C24.4023 40.4507 24.2263 40.4397 23.999 40.425C23.7717 40.4103 23.537 40.403 23.295 40.403C23.1703 40.403 22.9833 40.403 22.734 40.403C22.492 40.403 22.2133 40.403 21.898 40.403C21.5827 40.403 21.2453 40.403 20.886 40.403C20.534 40.403 20.1783 40.403 19.819 40.403C19.4597 40.403 19.115 40.403 18.785 40.403C18.4623 40.403 18.1727 40.403 17.916 40.403C17.6593 40.403 17.4577 40.403 17.311 40.403C17.0103 40.403 16.7097 40.4103 16.409 40.425C16.1083 40.4323 15.8627 40.4433 15.672 40.458V39.094ZM32.799 35.816C32.799 35.9993 32.8613 36.157 32.986 36.289C33.1107 36.4137 33.2647 36.476 33.448 36.476C33.6313 36.476 33.7853 36.4137 33.91 36.289C34.042 36.157 34.108 35.9993 34.108 35.816C34.108 35.6327 34.042 35.4787 33.91 35.354C33.7853 35.222 33.6313 35.156 33.448 35.156C33.2647 35.156 33.1107 35.222 32.986 35.354C32.8613 35.4787 32.799 35.6327 32.799 35.816ZM32.216 35.816C32.216 35.5887 32.271 35.3833 32.381 35.2C32.4983 35.0093 32.6487 34.859 32.832 34.749C33.0153 34.639 33.2207 34.584 33.448 34.584C33.6753 34.584 33.8807 34.639 34.064 34.749C34.2547 34.859 34.405 35.0093 34.515 35.2C34.6323 35.3833 34.691 35.5887 34.691 35.816C34.691 36.0433 34.6323 36.2523 34.515 36.443C34.405 36.6263 34.2547 36.773 34.064 36.883C33.8807 36.993 33.6753 37.048 33.448 37.048C33.2207 37.048 33.0153 36.993 32.832 36.883C32.6487 36.773 32.4983 36.6263 32.381 36.443C32.271 36.2523 32.216 36.0433 32.216 35.816ZM30.522 35.431C30.5147 35.4823 30.5037 35.563 30.489 35.673C30.4743 35.7757 30.4597 35.8857 30.445 36.003C30.4377 36.113 30.434 36.212 30.434 36.3C30.434 36.498 30.434 36.7253 30.434 36.982C30.434 37.2387 30.434 37.4917 30.434 37.741C30.434 37.9903 30.434 38.214 30.434 38.412C30.434 38.5587 30.434 38.7713 30.434 39.05C30.434 39.3213 30.434 39.6293 30.434 39.974C30.434 40.3113 30.434 40.6633 30.434 41.03C30.434 41.3893 30.434 41.7413 30.434 42.086C30.434 42.4233 30.434 42.724 30.434 42.988C30.434 43.252 30.434 43.4573 30.434 43.604C30.434 43.9047 30.3533 44.1357 30.192 44.297C30.0307 44.4583 29.7667 44.539 29.4 44.539C29.2313 44.539 29.048 44.5353 28.85 44.528C28.6593 44.5207 28.4687 44.5097 28.278 44.495C28.0873 44.4877 27.9077 44.4767 27.739 44.462L27.64 43.373C27.882 43.417 28.1167 43.45 28.344 43.472C28.5713 43.4867 28.7547 43.494 28.894 43.494C29.0407 43.494 29.1433 43.4647 29.202 43.406C29.268 43.34 29.3047 43.2337 29.312 43.087C29.312 42.999 29.312 42.8377 29.312 42.603C29.312 42.3683 29.312 42.0897 29.312 41.767C29.312 41.4443 29.312 41.107 29.312 40.755C29.312 40.3957 29.312 40.0583 29.312 39.743C29.312 39.4203 29.312 39.1417 29.312 38.907C29.312 38.665 29.312 38.5 29.312 38.412C29.312 38.2873 29.312 38.0967 29.312 37.84C29.312 37.576 29.312 37.3047 29.312 37.026C29.312 36.74 29.312 36.4943 29.312 36.289C29.312 36.157 29.301 36.003 29.279 35.827C29.2643 35.651 29.246 35.519 29.224 35.431H30.522ZM25.385 37.246C25.539 37.2607 25.6967 37.2753 25.858 37.29C26.0267 37.3047 26.1953 37.312 26.364 37.312C26.4593 37.312 26.639 37.312 26.903 37.312C27.1743 37.312 27.5007 37.312 27.882 37.312C28.2633 37.312 28.6703 37.312 29.103 37.312C29.543 37.312 29.983 37.312 30.423 37.312C30.863 37.312 31.2737 37.312 31.655 37.312C32.0363 37.312 32.3627 37.312 32.634 37.312C32.9053 37.312 33.0923 37.312 33.195 37.312C33.3343 37.312 33.4957 37.3083 33.679 37.301C33.8697 37.2863 34.0347 37.268 34.174 37.246V38.39C34.02 38.3827 33.855 38.379 33.679 38.379C33.503 38.3717 33.3453 38.368 33.206 38.368C33.1033 38.368 32.9163 38.368 32.645 38.368C32.3737 38.368 32.0473 38.368 31.666 38.368C31.2847 38.368 30.874 38.368 30.434 38.368C30.0013 38.368 29.565 38.368 29.125 38.368C28.6923 38.368 28.2853 38.368 27.904 38.368C27.5227 38.368 27.1963 38.368 26.925 38.368C26.661 38.368 26.4777 38.368 26.375 38.368C26.2063 38.368 26.034 38.3717 25.858 38.379C25.6893 38.379 25.5317 38.3863 25.385 38.401V37.246ZM28.025 40.007C27.9077 40.2417 27.761 40.502 27.585 40.788C27.409 41.0667 27.2183 41.349 27.013 41.635C26.815 41.9137 26.6207 42.1777 26.43 42.427C26.2393 42.669 26.067 42.8743 25.913 43.043L24.967 42.394C25.1503 42.2253 25.341 42.0237 25.539 41.789C25.737 41.5543 25.9277 41.3087 26.111 41.052C26.3017 40.788 26.4777 40.5277 26.639 40.271C26.8003 40.007 26.936 39.7613 27.046 39.534L28.025 40.007ZM32.678 39.523C32.8247 39.699 32.9823 39.9117 33.151 40.161C33.327 40.403 33.503 40.6597 33.679 40.931C33.855 41.2023 34.02 41.4663 34.174 41.723C34.328 41.9797 34.46 42.207 34.57 42.405L33.558 42.977C33.4407 42.7497 33.305 42.504 33.151 42.24C33.0043 41.9687 32.8467 41.6973 32.678 41.426C32.5167 41.1547 32.3517 40.898 32.183 40.656C32.0217 40.414 31.8713 40.2087 31.732 40.04L32.678 39.523ZM36.748 35.805C36.946 35.937 37.1733 36.102 37.43 36.3C37.6867 36.4907 37.947 36.696 38.211 36.916C38.4823 37.136 38.739 37.3487 38.981 37.554C39.223 37.7593 39.4173 37.9427 39.564 38.104L38.695 38.995C38.5557 38.8483 38.3723 38.6723 38.145 38.467C37.9177 38.2543 37.672 38.038 37.408 37.818C37.1513 37.5907 36.8947 37.378 36.638 37.18C36.3813 36.9747 36.1503 36.8023 35.945 36.663L36.748 35.805ZM35.615 43.164C36.231 43.0687 36.7993 42.944 37.32 42.79C37.8407 42.6287 38.3173 42.449 38.75 42.251C39.19 42.0457 39.586 41.8367 39.938 41.624C40.5247 41.2647 41.0637 40.8503 41.555 40.381C42.0537 39.9117 42.49 39.4277 42.864 38.929C43.238 38.4303 43.535 37.9463 43.755 37.477L44.426 38.676C44.162 39.1527 43.8357 39.6293 43.447 40.106C43.0657 40.5827 42.633 41.041 42.149 41.481C41.665 41.9137 41.137 42.306 40.565 42.658C40.1983 42.8853 39.795 43.1053 39.355 43.318C38.9223 43.5307 38.453 43.7213 37.947 43.89C37.4483 44.0587 36.9167 44.1943 36.352 44.297L35.615 43.164Z" fill="url(#paint0_linear_921_608)"/>
<path d="M16.3827 1.97468e-08C16.2251 -3.25032e-05 16.0702 0.0401094 15.9331 0.116511C15.796 0.192912 15.6814 0.302966 15.6004 0.435938L10.1294 9.40584C10.0323 9.56545 9.98806 9.75082 10.0028 9.93627C10.0175 10.1217 10.0904 10.2981 10.2115 10.441L23.8779 26.5742C23.9781 26.6971 24.1094 26.7917 24.2586 26.8488C24.4078 26.9058 24.5697 26.9232 24.7279 26.8992C24.8861 26.8752 25.0351 26.8107 25.1599 26.7121C25.2847 26.6134 25.3809 26.4842 25.4389 26.3374L31.5955 10.7639H38.6931L38.9666 10.441C39.0877 10.2981 39.1607 10.1217 39.1754 9.93627C39.1901 9.75082 39.1458 9.56545 39.0487 9.40584L33.5778 0.435938C33.4968 0.302966 33.3822 0.192912 33.245 0.116511C33.1079 0.0401094 32.953 -3.25032e-05 32.7954 1.97468e-08H16.3827ZM29.6406 10.7639L24.5891 23.537L19.5394 10.7639H29.6406ZM12.5202 8.96991L16.897 1.79398H20.506L17.5881 8.96991H12.5202ZM17.5808 10.7639L21.715 21.221L12.8594 10.7639H17.5808ZM19.5504 8.96991L22.4682 1.79398H26.7045L29.6223 8.96991H19.5504ZM31.5864 8.96991L28.6686 1.79398H32.2775L36.6543 8.96991H31.5864ZM34.6173 19.7338C35.5846 19.7338 36.5123 19.3558 37.1963 18.6829C37.8803 18.01 38.2645 17.0974 38.2645 16.1458C38.2645 15.1942 37.8803 14.2816 37.1963 13.6088C36.5123 12.9359 35.5846 12.5579 34.6173 12.5579C33.6499 12.5579 32.7222 12.9359 32.0382 13.6088C31.3543 14.2816 30.97 15.1942 30.97 16.1458C30.97 17.0974 31.3543 18.01 32.0382 18.6829C32.7222 19.3558 33.6499 19.7338 34.6173 19.7338ZM34.6173 28.7037C39.1764 28.7037 41 26.4523 41 24.2187C41 23.5051 40.7118 22.8206 40.1988 22.3159C39.6858 21.8113 38.99 21.5278 38.2645 21.5278H30.97C30.2445 21.5278 29.5487 21.8113 29.0357 22.3159C28.5227 22.8206 28.2345 23.5051 28.2345 24.2187C28.2345 26.4612 30.0582 28.7037 34.6173 28.7037Z" fill="url(#paint1_linear_921_608)"/>
<defs>
<linearGradient id="paint0_linear_921_608" x1="13.1818" y1="33" x2="28.0743" y2="50.1133" gradientUnits="userSpaceOnUse">
<stop offset="0.3125" stop-color="#EC9986"/>
<stop offset="0.403846" stop-color="#EDDAD5"/>
<stop offset="0.466346" stop-color="#FAD7D0"/>
<stop offset="0.581731" stop-color="#D75342"/>
</linearGradient>
<linearGradient id="paint1_linear_921_608" x1="15.6364" y1="-0.939394" x2="38.6515" y2="29.5909" gradientUnits="userSpaceOnUse">
<stop offset="0.165664" stop-color="#E8948D"/>
<stop offset="0.360664" stop-color="#E5B5AC"/>
<stop offset="0.750664" stop-color="#D75642"/>
</linearGradient>
</defs>
</svg>
