<svg width="26" height="26" viewBox="0 0 26 26" fill="none" xmlns="http://www.w3.org/2000/svg">
<g clip-path="url(#clip0_275_6146)">
<path d="M26 13C26 16.4478 24.6304 19.7544 22.1924 22.1924C19.7544 24.6304 16.4478 26 13 26C9.55219 26 6.24558 24.6304 3.80761 22.1924C1.36964 19.7544 0 16.4478 0 13C0 9.55219 1.36964 6.24558 3.80761 3.80761C6.24558 1.36964 9.55219 0 13 0C16.4478 0 19.7544 1.36964 22.1924 3.80761C24.6304 6.24558 26 9.55219 26 13ZM13 6.5C12.7946 6.50012 12.5915 6.54325 12.4038 6.62663C12.2161 6.71001 12.048 6.83179 11.9102 6.98411C11.7724 7.13643 11.6681 7.31592 11.6039 7.51102C11.5397 7.70612 11.5171 7.9125 11.5375 8.11687L12.1062 13.8158C12.1254 14.0396 12.2278 14.2482 12.3933 14.4002C12.5588 14.5521 12.7753 14.6365 13 14.6365C13.2247 14.6365 13.4412 14.5521 13.6067 14.4002C13.7722 14.2482 13.8746 14.0396 13.8938 13.8158L14.4625 8.11687C14.4829 7.9125 14.4603 7.70612 14.3961 7.51102C14.3319 7.31592 14.2276 7.13643 14.0898 6.98411C13.952 6.83179 13.7839 6.71001 13.5962 6.62663C13.4085 6.54325 13.2054 6.50012 13 6.5ZM13.0033 16.25C12.5723 16.25 12.1589 16.4212 11.8542 16.726C11.5495 17.0307 11.3783 17.444 11.3783 17.875C11.3783 18.306 11.5495 18.7193 11.8542 19.024C12.1589 19.3288 12.5723 19.5 13.0033 19.5C13.4342 19.5 13.8476 19.3288 14.1523 19.024C14.457 18.7193 14.6283 18.306 14.6283 17.875C14.6283 17.444 14.457 17.0307 14.1523 16.726C13.8476 16.4212 13.4342 16.25 13.0033 16.25Z" fill="#090A0A"/>
</g>
<defs>
<clipPath id="clip0_275_6146">
<rect width="26" height="26" fill="white"/>
</clipPath>
</defs>
</svg>
