<svg width="44" height="54" viewBox="0 0 44 54" fill="none" xmlns="http://www.w3.org/2000/svg">
<path d="M11.0003 34.8334H17.769V25.5256C17.769 25.1064 17.9114 24.755 18.1962 24.4714C18.4797 24.1867 18.8311 24.0443 19.2503 24.0443H24.7503C25.1695 24.0443 25.5215 24.1867 25.8063 24.4714C26.0899 24.755 26.2317 25.1064 26.2317 25.5256V34.8334H33.0003V18.8981C33.0003 18.7099 32.9594 18.5388 32.8775 18.3848C32.7956 18.2308 32.6838 18.0963 32.542 17.9814L22.6713 10.5418C22.4831 10.378 22.2594 10.2961 22.0003 10.2961C21.7412 10.2961 21.5182 10.378 21.3312 10.5418L11.4587 17.9814C11.3181 18.0988 11.2063 18.2332 11.1232 18.3848C11.04 18.5363 10.9991 18.7074 11.0003 18.8981V34.8334ZM9.16699 34.8334V18.8981C9.16699 18.4288 9.2721 17.9845 9.48233 17.5653C9.69255 17.146 9.98221 16.8008 10.3513 16.5294L20.2238 9.0531C20.7408 8.65833 21.3312 8.46094 21.9948 8.46094C22.6585 8.46094 23.2525 8.65833 23.7768 9.0531L33.6493 16.5276C34.0197 16.7989 34.3093 17.1448 34.5183 17.5653C34.7285 17.9845 34.8337 18.4288 34.8337 18.8981V34.8334C34.8337 35.3248 34.6509 35.7532 34.2855 36.1186C33.92 36.484 33.4917 36.6668 33.0003 36.6668H25.8797C25.4592 36.6668 25.1072 36.525 24.8237 36.2414C24.5401 35.9567 24.3983 35.6047 24.3983 35.1854V25.8794H19.6023V35.1854C19.6023 35.6059 19.4605 35.9579 19.177 36.2414C18.8934 36.525 18.542 36.6668 18.1228 36.6668H11.0003C10.509 36.6668 10.0806 36.484 9.71516 36.1186C9.34971 35.7532 9.16699 35.3248 9.16699 34.8334Z" fill="#666C6C"/>
<path d="M7.48057 52V43.893H8.75657V47.204H12.2216V43.893H13.4976V52H12.2216V48.315H8.75657V52H7.48057ZM18.7139 52.154C18.0246 52.154 17.4122 51.9817 16.8769 51.637C16.3489 51.2923 15.9346 50.8047 15.6339 50.174C15.3332 49.536 15.1829 48.7843 15.1829 47.919C15.1829 47.0463 15.3332 46.302 15.6339 45.686C15.9346 45.0627 16.3489 44.586 16.8769 44.256C17.4122 43.9187 18.0246 43.75 18.7139 43.75C19.4106 43.75 20.0229 43.9187 20.5509 44.256C21.0789 44.586 21.4932 45.0627 21.7939 45.686C22.0946 46.302 22.2449 47.0463 22.2449 47.919C22.2449 48.7843 22.0946 49.536 21.7939 50.174C21.4932 50.8047 21.0789 51.2923 20.5509 51.637C20.0229 51.9817 19.4106 52.154 18.7139 52.154ZM18.7139 51.032C19.1612 51.032 19.5499 50.9037 19.8799 50.647C20.2172 50.3903 20.4776 50.031 20.6609 49.569C20.8442 49.0997 20.9359 48.5497 20.9359 47.919C20.9359 47.2883 20.8442 46.7457 20.6609 46.291C20.4776 45.829 20.2172 45.477 19.8799 45.235C19.5499 44.9857 19.1612 44.861 18.7139 44.861C18.2666 44.861 17.8742 44.9857 17.5369 45.235C17.2069 45.477 16.9502 45.829 16.7669 46.291C16.5909 46.7457 16.5029 47.2883 16.5029 47.919C16.5029 48.5497 16.5909 49.0997 16.7669 49.569C16.9502 50.031 17.2069 50.3903 17.5369 50.647C17.8742 50.9037 18.2666 51.032 18.7139 51.032ZM23.9269 52V43.893H25.4009L26.8749 47.996C26.9702 48.26 27.0619 48.5313 27.1499 48.81C27.2379 49.0813 27.3259 49.3527 27.4139 49.624H27.4689C27.5642 49.3527 27.6522 49.0813 27.7329 48.81C27.8209 48.5313 27.9089 48.26 27.9969 47.996L29.4489 43.893H30.9339V52H29.7459V47.996C29.7459 47.754 29.7532 47.4863 29.7679 47.193C29.7899 46.8997 29.8119 46.6027 29.8339 46.302C29.8632 46.0013 29.8925 45.73 29.9219 45.488H29.8669L29.2179 47.358L27.8099 51.219H27.0179L25.5989 47.358L24.9499 45.488H24.9059C24.9352 45.73 24.9609 46.0013 24.9829 46.302C25.0122 46.6027 25.0342 46.8997 25.0489 47.193C25.0709 47.4863 25.0819 47.754 25.0819 47.996V52H23.9269ZM33.0577 52V43.893H37.8427V44.971H34.3337V47.226H37.3037V48.304H34.3337V50.911H37.9637V52H33.0577Z" fill="#666C6C"/>
</svg>
