<svg width="47" height="54" viewBox="0 0 47 54" fill="none" xmlns="http://www.w3.org/2000/svg">
<path d="M3.83301 36.1663C16.1869 30.9415 30.0243 31.3651 42.1663 35.5309" stroke="#666C6C" stroke-width="1.25" stroke-linecap="round" stroke-linejoin="round"/>
<path d="M38.0494 30.8172C38.5861 29.2225 38.8784 27.5138 38.8784 25.738C38.8784 16.9549 31.7579 9.8335 22.9739 9.8335C14.1898 9.8335 7.07031 16.9539 7.07031 25.738C7.07031 27.8684 7.4891 29.901 8.24906 31.7582C8.24906 31.7582 9.15181 31.1545 10.1159 30.8718C10.1159 30.8718 9.19877 28.1655 8.98698 25.601C8.77519 23.0365 9.66931 19.9995 11.5285 20.2343C13.3876 20.4691 15.4576 26.8238 15.4576 29.9537C15.4576 29.9537 17.0581 29.7189 18.785 29.6039C18.4644 28.2666 18.4512 26.874 18.7463 25.5309C19.0414 24.1877 19.6372 22.9289 20.4888 21.8492C21.3404 20.7694 22.4258 19.8968 23.6633 19.2969C24.9007 18.697 26.2581 18.3854 27.6333 18.3857C30.0461 18.3857 32.36 19.3441 34.0661 21.0502C35.7723 22.7564 36.7307 25.0703 36.7307 27.4831C36.7307 28.4347 36.5841 29.3519 36.3129 30.2144C37.2712 30.4712 38.0494 30.8172 38.0494 30.8172Z" stroke="#666C6C" stroke-width="1.25" stroke-linecap="round" stroke-linejoin="round"/>
<path d="M22.6592 16.8934C21.2237 17.293 15.4583 18.7286 14.4942 18.6107C13.7602 18.5216 12.7692 18.0242 12.2422 17.5633C12.1239 17.4587 12.044 17.3176 12.015 17.1624C11.986 17.0072 12.0096 16.8468 12.0821 16.7065C13.42 14.0021 19.2198 11.9101 20.4474 11.5746C21.7412 11.222 25.6943 10.9144 26.2357 12.3509C26.7772 13.7874 24.0948 16.4938 22.6592 16.8934ZM22.6592 16.8934C23.7182 17.7875 24.4513 18.9586 24.4513 18.9586M29.6953 13.222C31.1539 14.7755 34.7783 18.0836 35.3667 18.6174" stroke="#666C6C" stroke-width="1.25" stroke-linecap="round" stroke-linejoin="round"/>
<path d="M7.022 42.716H8.078V47.028H7.022V42.716ZM5.779 51.461H9.552V52.407H5.779V51.461ZM4.569 44.212H10.619V45.158H4.569V44.212ZM4.899 46.621H10.366V47.567H4.899V46.621ZM5.251 48.645H10.091V52.891H9.079V49.58H6.219V52.913H5.251V48.645ZM2.094 42.716L3.018 43.057C2.87133 43.3283 2.71733 43.6143 2.556 43.915C2.402 44.2083 2.24433 44.4907 2.083 44.762C1.929 45.0333 1.77867 45.268 1.632 45.466L0.927999 45.169C1.06733 44.949 1.20667 44.696 1.346 44.41C1.49267 44.124 1.632 43.8343 1.764 43.541C1.896 43.2403 2.006 42.9653 2.094 42.716ZM3.414 43.992L4.316 44.366C4.052 44.784 3.76233 45.224 3.447 45.686C3.139 46.1407 2.82367 46.5843 2.501 47.017C2.18567 47.4423 1.885 47.809 1.599 48.117L0.949999 47.787C1.16267 47.5377 1.38267 47.259 1.61 46.951C1.83733 46.6357 2.061 46.3057 2.281 45.961C2.501 45.6163 2.70633 45.2753 2.897 44.938C3.095 44.6007 3.26733 44.2853 3.414 43.992ZM0.377999 45.158L0.883999 44.454C1.082 44.6227 1.28367 44.8097 1.489 45.015C1.70167 45.2203 1.89233 45.422 2.061 45.62C2.237 45.818 2.37267 46.0013 2.468 46.17L1.929 46.973C1.83367 46.797 1.70167 46.6027 1.533 46.39C1.36433 46.1773 1.17733 45.9647 0.971999 45.752C0.773999 45.532 0.575999 45.334 0.377999 45.158ZM3.106 46.588L3.854 46.269C4.008 46.5037 4.15467 46.7603 4.294 47.039C4.44067 47.3103 4.569 47.578 4.679 47.842C4.789 48.106 4.86967 48.3407 4.921 48.546L4.118 48.92C4.06667 48.7147 3.986 48.48 3.876 48.216C3.77333 47.9447 3.65233 47.666 3.513 47.38C3.381 47.094 3.24533 46.83 3.106 46.588ZM0.355999 47.6C0.861999 47.5853 1.45967 47.5633 2.149 47.534C2.83833 47.5047 3.546 47.4753 4.272 47.446L4.261 48.282C3.579 48.326 2.90433 48.37 2.237 48.414C1.56967 48.458 0.971999 48.4947 0.443999 48.524L0.355999 47.6ZM3.337 49.272L4.118 49.019C4.272 49.3563 4.41867 49.723 4.558 50.119C4.69733 50.5077 4.79633 50.845 4.855 51.131L4.019 51.417C3.96767 51.131 3.876 50.7863 3.744 50.383C3.61933 49.9797 3.48367 49.6093 3.337 49.272ZM0.905999 49.085L1.786 49.239C1.72 49.7597 1.621 50.273 1.489 50.779C1.36433 51.285 1.21767 51.714 1.049 52.066C0.990333 52.0293 0.913333 51.9853 0.817999 51.934C0.722666 51.8827 0.619999 51.835 0.509999 51.791C0.407333 51.7397 0.319333 51.703 0.245999 51.681C0.421999 51.3437 0.561333 50.944 0.663999 50.482C0.773999 50.02 0.854666 49.5543 0.905999 49.085ZM2.182 48.04H3.106V52.946H2.182V48.04ZM12.643 48.535H22.378V49.492H12.643V48.535ZM16.966 43.585H18.066V52.924H16.966V43.585ZM16.647 48.975L17.505 49.349C17.1677 49.811 16.757 50.251 16.273 50.669C15.789 51.087 15.2683 51.461 14.711 51.791C14.161 52.121 13.6073 52.3887 13.05 52.594C12.9987 52.506 12.929 52.407 12.841 52.297C12.7603 52.1943 12.676 52.0917 12.588 51.989C12.5 51.8863 12.4193 51.802 12.346 51.736C12.7567 51.604 13.1637 51.4427 13.567 51.252C13.9777 51.054 14.3737 50.834 14.755 50.592C15.1437 50.35 15.4993 50.0933 15.822 49.822C16.1447 49.5433 16.4197 49.261 16.647 48.975ZM18.319 48.92C18.5537 49.1987 18.836 49.4737 19.166 49.745C19.496 50.0163 19.8553 50.273 20.244 50.515C20.6327 50.757 21.036 50.977 21.454 51.175C21.872 51.3657 22.2827 51.527 22.686 51.659C22.6127 51.725 22.5283 51.813 22.433 51.923C22.345 52.0257 22.2607 52.1283 22.18 52.231C22.0993 52.341 22.0297 52.4437 21.971 52.539C21.5677 52.3777 21.157 52.1833 20.739 51.956C20.3283 51.7213 19.925 51.4647 19.529 51.186C19.133 50.9 18.759 50.5957 18.407 50.273C18.0623 49.9503 17.758 49.6203 17.494 49.283L18.319 48.92ZM14.799 45.884V46.841H20.244V45.884H14.799ZM14.799 44.113V45.059H20.244V44.113H14.799ZM13.721 43.233H21.366V47.721H13.721V43.233ZM26.943 47.028V50.999H25.931V47.996H24.512V47.028H26.943ZM26.943 50.548C27.1923 50.9293 27.537 51.2153 27.977 51.406C28.4243 51.5893 28.9523 51.692 29.561 51.714C29.8763 51.7287 30.2503 51.7397 30.683 51.747C31.1157 51.747 31.574 51.7433 32.058 51.736C32.542 51.7213 33.0113 51.7067 33.466 51.692C33.9207 51.6773 34.3203 51.6553 34.665 51.626C34.621 51.7067 34.577 51.813 34.533 51.945C34.489 52.0697 34.4487 52.198 34.412 52.33C34.3753 52.462 34.346 52.583 34.324 52.693C34.0087 52.7077 33.642 52.7187 33.224 52.726C32.8133 52.7333 32.3843 52.737 31.937 52.737C31.497 52.7443 31.068 52.7443 30.65 52.737C30.232 52.737 29.8653 52.7297 29.55 52.715C28.8533 52.6857 28.2557 52.572 27.757 52.374C27.2657 52.1833 26.8403 51.8717 26.481 51.439C26.2317 51.6663 25.9713 51.8937 25.7 52.121C25.436 52.3483 25.1537 52.583 24.853 52.825L24.325 51.747C24.5817 51.5857 24.8567 51.3987 25.15 51.186C25.4507 50.9733 25.733 50.7607 25.997 50.548H26.943ZM24.578 43.607L25.348 42.98C25.5827 43.1267 25.821 43.299 26.063 43.497C26.3123 43.695 26.5397 43.8967 26.745 44.102C26.9503 44.3073 27.119 44.498 27.251 44.674L26.426 45.356C26.3087 45.18 26.1473 44.9893 25.942 44.784C25.744 44.5713 25.524 44.3623 25.282 44.157C25.0473 43.9517 24.8127 43.7683 24.578 43.607ZM28.879 46.247V47.457H32.938V46.247H28.879ZM27.922 45.433H33.95V48.271H27.922V45.433ZM27.504 43.772H34.401V44.663H27.504V43.772ZM30.364 42.727H31.376V51.351H30.364V42.727ZM30.056 47.974L30.815 48.26C30.6097 48.6413 30.3493 49.0117 30.034 49.371C29.726 49.7303 29.3887 50.0603 29.022 50.361C28.6627 50.6543 28.2997 50.8963 27.933 51.087C27.8817 51.0063 27.8157 50.9183 27.735 50.823C27.6617 50.7203 27.581 50.625 27.493 50.537C27.4123 50.4417 27.3353 50.361 27.262 50.295C27.6213 50.1483 27.977 49.954 28.329 49.712C28.6883 49.47 29.0183 49.1987 29.319 48.898C29.6197 48.59 29.8653 48.282 30.056 47.974ZM31.552 47.974C31.7647 48.2673 32.0323 48.5607 32.355 48.854C32.685 49.1473 33.0333 49.415 33.4 49.657C33.774 49.899 34.1407 50.097 34.5 50.251C34.4267 50.3097 34.3423 50.3903 34.247 50.493C34.159 50.5883 34.0747 50.6873 33.994 50.79C33.9133 50.8853 33.8473 50.977 33.796 51.065C33.444 50.867 33.081 50.6213 32.707 50.328C32.3403 50.0273 31.992 49.701 31.662 49.349C31.332 48.997 31.0533 48.6413 30.826 48.282L31.552 47.974ZM42.145 46.962H45.643V47.809H42.145V46.962ZM41.628 43.2H45.61V44.124H42.585V52.924H41.628V43.2ZM45.104 43.2H46.072V45.312C46.072 45.5467 46.039 45.7373 45.973 45.884C45.907 46.0233 45.7787 46.1297 45.588 46.203C45.4047 46.269 45.1663 46.313 44.873 46.335C44.5797 46.3497 44.224 46.357 43.806 46.357C43.7913 46.2103 43.7547 46.0527 43.696 45.884C43.6373 45.7153 43.575 45.5687 43.509 45.444C43.7143 45.4513 43.9087 45.4587 44.092 45.466C44.2827 45.466 44.4477 45.466 44.587 45.466C44.7263 45.466 44.8253 45.4623 44.884 45.455C44.972 45.4477 45.0307 45.4367 45.06 45.422C45.0893 45.4 45.104 45.3597 45.104 45.301V43.2ZM43.366 47.556C43.5567 48.2087 43.8097 48.832 44.125 49.426C44.4477 50.0127 44.829 50.5407 45.269 51.01C45.709 51.472 46.1967 51.835 46.732 52.099C46.6147 52.1943 46.4863 52.3227 46.347 52.484C46.215 52.6527 46.1087 52.803 46.028 52.935C45.478 52.6123 44.9793 52.1907 44.532 51.67C44.092 51.142 43.707 50.548 43.377 49.888C43.047 49.2207 42.7757 48.513 42.563 47.765L43.366 47.556ZM45.335 46.962H45.522L45.698 46.918L46.325 47.149C46.193 47.963 45.984 48.7367 45.698 49.47C45.4193 50.196 45.0673 50.856 44.642 51.45C44.2167 52.044 43.718 52.5427 43.146 52.946C43.0653 52.8287 42.9553 52.704 42.816 52.572C42.684 52.44 42.563 52.33 42.453 52.242C42.981 51.8827 43.443 51.4353 43.839 50.9C44.235 50.3647 44.5577 49.778 44.807 49.14C45.0563 48.502 45.2323 47.8493 45.335 47.182V46.962ZM36.777 43.772H40.924V44.652H36.777V43.772ZM36.678 49.877H41.067V50.757H36.678V49.877ZM36.392 45.609H41.342V46.489H36.392V45.609ZM36.579 47.941H41.199V48.821H36.579V47.941ZM38.427 42.738H39.384V45.928H38.427V42.738ZM38.427 48.315H39.384V52.902H38.427V48.315ZM39.912 46.401L40.781 46.621C40.671 46.8777 40.5647 47.1343 40.462 47.391C40.3667 47.6403 40.2677 47.8567 40.165 48.04L39.417 47.82C39.4757 47.688 39.5343 47.5377 39.593 47.369C39.659 47.2003 39.7177 47.0317 39.769 46.863C39.8277 46.687 39.8753 46.533 39.912 46.401ZM37.129 46.61L37.91 46.412C38.0273 46.632 38.13 46.8777 38.218 47.149C38.306 47.413 38.3647 47.6403 38.394 47.831L37.569 48.062C37.547 47.8713 37.492 47.6403 37.404 47.369C37.3233 47.0977 37.2317 46.8447 37.129 46.61Z" fill="#666C6C"/>
</svg>
