<svg width="26" height="11" viewBox="0 0 26 11" fill="none" xmlns="http://www.w3.org/2000/svg">
<rect width="26" height="11" fill="#F24D11"/>
<path d="M3.34907 9V2.367H4.42007L6.61607 6.264L7.30907 7.659H7.35407C7.32407 7.323 7.29107 6.963 7.25507 6.579C7.22507 6.195 7.21007 5.823 7.21007 5.463V2.367H8.20907V9H7.13807L4.94207 5.094L4.24907 3.708H4.21307C4.23707 4.05 4.26407 4.407 4.29407 4.779C4.32407 5.151 4.33907 5.52 4.33907 5.886V9H3.34907ZM9.95845 9V2.367H13.8734V3.249H11.0024V5.094H13.4324V5.976H11.0024V8.109H13.9724V9H9.95845ZM16.0299 9L14.6889 2.367H15.7599L16.3809 5.814C16.4409 6.168 16.5009 6.522 16.5609 6.876C16.6209 7.23 16.6809 7.587 16.7409 7.947H16.7769C16.8489 7.587 16.9209 7.23 16.9929 6.876C17.0709 6.522 17.1489 6.168 17.2269 5.814L18.0729 2.367H18.9999L19.8549 5.814C19.9329 6.162 20.0079 6.516 20.0799 6.876C20.1519 7.23 20.2269 7.587 20.3049 7.947H20.3499C20.4099 7.587 20.4669 7.23 20.5209 6.876C20.5749 6.522 20.6289 6.168 20.6829 5.814L21.3129 2.367H22.3119L21.0069 9H19.7199L18.8289 5.319C18.7749 5.055 18.7209 4.8 18.6669 4.554C18.6189 4.302 18.5709 4.05 18.5229 3.798H18.4869C18.4389 4.05 18.3879 4.302 18.3339 4.554C18.2799 4.8 18.2259 5.055 18.1719 5.319L17.2989 9H16.0299Z" fill="#FAFAFC"/>
</svg>
