<svg width="22" height="22" viewBox="0 0 22 22" fill="none" xmlns="http://www.w3.org/2000/svg">
<path d="M11.0003 3.6665C11.9728 3.6665 12.9054 4.05281 13.5931 4.74045C14.2807 5.42808 14.667 6.36071 14.667 7.33317C14.667 8.30563 14.2807 9.23826 13.5931 9.9259C12.9054 10.6135 11.9728 10.9998 11.0003 10.9998C10.0279 10.9998 9.09523 10.6135 8.4076 9.9259C7.71997 9.23826 7.33366 8.30563 7.33366 7.33317C7.33366 6.36071 7.71997 5.42808 8.4076 4.74045C9.09523 4.05281 10.0279 3.6665 11.0003 3.6665ZM11.0003 12.8332C15.052 12.8332 18.3337 14.474 18.3337 16.4998V18.3332H3.66699V16.4998C3.66699 14.474 6.94866 12.8332 11.0003 12.8332Z" fill="#666C6C"/>
</svg>
