<svg width="50" height="46" viewBox="0 0 50 46" fill="none" xmlns="http://www.w3.org/2000/svg">
<path d="M9.16172 36.025C9.16172 36.2157 9.22772 36.377 9.35972 36.509C9.49172 36.641 9.65305 36.707 9.84372 36.707C10.0344 36.707 10.1957 36.641 10.3277 36.509C10.4671 36.377 10.5367 36.2157 10.5367 36.025C10.5367 35.8343 10.4671 35.673 10.3277 35.541C10.1957 35.4017 10.0344 35.332 9.84372 35.332C9.65305 35.332 9.49172 35.4017 9.35972 35.541C9.22772 35.673 9.16172 35.8343 9.16172 36.025ZM8.57872 36.025C8.57872 35.7903 8.63372 35.5777 8.74372 35.387C8.86105 35.1963 9.01505 35.046 9.20572 34.936C9.39639 34.8187 9.60905 34.76 9.84372 34.76C10.0784 34.76 10.2911 34.8187 10.4817 34.936C10.6724 35.046 10.8264 35.1963 10.9437 35.387C11.0611 35.5777 11.1197 35.7903 11.1197 36.025C11.1197 36.2597 11.0611 36.4723 10.9437 36.663C10.8264 36.8537 10.6724 37.0077 10.4817 37.125C10.2911 37.235 10.0784 37.29 9.84372 37.29C9.60905 37.29 9.39639 37.235 9.20572 37.125C9.01505 37.0077 8.86105 36.8537 8.74372 36.663C8.63372 36.4723 8.57872 36.2597 8.57872 36.025ZM9.70072 36.828C9.65672 36.916 9.61639 37.015 9.57972 37.125C9.55039 37.235 9.52472 37.3487 9.50272 37.466C9.43672 37.7447 9.35605 38.0563 9.26072 38.401C9.17272 38.7457 9.05905 39.1013 8.91972 39.468C8.78772 39.8347 8.63005 40.194 8.44672 40.546C8.27072 40.8907 8.07272 41.2097 7.85272 41.503C7.51539 41.9283 7.13405 42.3317 6.70872 42.713C6.29072 43.087 5.81405 43.4243 5.27872 43.725C4.74339 44.0183 4.14572 44.2713 3.48572 44.484L2.53972 43.45C3.25839 43.2667 3.88172 43.0467 4.40972 42.79C4.93772 42.5333 5.39605 42.24 5.78472 41.91C6.18072 41.5727 6.53272 41.2133 6.84072 40.832C7.09005 40.5093 7.30639 40.15 7.48972 39.754C7.68039 39.358 7.83439 38.962 7.95172 38.566C8.07639 38.1627 8.16439 37.7923 8.21572 37.455C8.10572 37.455 7.91505 37.455 7.64372 37.455C7.37239 37.455 7.05339 37.455 6.68672 37.455C6.32005 37.455 5.93505 37.455 5.53172 37.455C5.12839 37.455 4.74339 37.455 4.37672 37.455C4.01005 37.455 3.68372 37.455 3.39772 37.455C3.11905 37.455 2.92105 37.455 2.80372 37.455C2.56905 37.455 2.34905 37.4587 2.14372 37.466C1.93839 37.4733 1.76239 37.4843 1.61572 37.499V36.267C1.72572 36.2743 1.84672 36.2853 1.97872 36.3C2.11805 36.3147 2.26105 36.3257 2.40772 36.333C2.55439 36.3403 2.68639 36.344 2.80372 36.344C2.90639 36.344 3.06772 36.344 3.28772 36.344C3.51505 36.344 3.77905 36.344 4.07972 36.344C4.38039 36.344 4.69572 36.344 5.02572 36.344C5.36305 36.344 5.69672 36.344 6.02672 36.344C6.36405 36.344 6.67572 36.344 6.96172 36.344C7.25505 36.344 7.50439 36.344 7.70972 36.344C7.92239 36.344 8.06539 36.344 8.13872 36.344C8.23405 36.344 8.34405 36.3403 8.46872 36.333C8.60072 36.3257 8.72539 36.3073 8.84272 36.278L9.70072 36.828ZM12.4067 43.615C12.4581 43.505 12.4911 43.406 12.5057 43.318C12.5204 43.2227 12.5277 43.1163 12.5277 42.999C12.5277 42.8743 12.5277 42.6653 12.5277 42.372C12.5277 42.0713 12.5277 41.723 12.5277 41.327C12.5277 40.9237 12.5277 40.502 12.5277 40.062C12.5277 39.622 12.5277 39.193 12.5277 38.775C12.5277 38.3497 12.5277 37.9683 12.5277 37.631C12.5277 37.2937 12.5277 37.0333 12.5277 36.85C12.5277 36.7327 12.5204 36.6043 12.5057 36.465C12.4984 36.3183 12.4874 36.1827 12.4727 36.058C12.4654 35.926 12.4507 35.8197 12.4287 35.739H13.7927C13.7707 35.9003 13.7487 36.08 13.7267 36.278C13.7121 36.476 13.7047 36.663 13.7047 36.839C13.7047 37.0003 13.7047 37.2167 13.7047 37.488C13.7047 37.7593 13.7047 38.0637 13.7047 38.401C13.7047 38.7383 13.7047 39.094 13.7047 39.468C13.7047 39.8347 13.7047 40.1977 13.7047 40.557C13.7047 40.9163 13.7047 41.2537 13.7047 41.569C13.7047 41.877 13.7047 42.1447 13.7047 42.372C13.7047 42.5993 13.7047 42.7607 13.7047 42.856C14.1961 42.724 14.7094 42.5407 15.2447 42.306C15.7874 42.0713 16.3227 41.7927 16.8507 41.47C17.3787 41.14 17.8737 40.7807 18.3357 40.392C18.8051 40.0033 19.2121 39.5927 19.5567 39.16L20.1837 40.128C19.4504 41.0227 18.5301 41.8037 17.4227 42.471C16.3227 43.131 15.1054 43.6663 13.7707 44.077C13.7047 44.099 13.6204 44.1283 13.5177 44.165C13.4224 44.2017 13.3234 44.2493 13.2207 44.308L12.4067 43.615ZM23.0327 35.541C23.3187 35.5777 23.6597 35.6327 24.0557 35.706C24.4517 35.772 24.8734 35.849 25.3207 35.937C25.7681 36.025 26.2117 36.1203 26.6517 36.223C27.0991 36.3257 27.5171 36.432 27.9057 36.542C28.2944 36.6447 28.6281 36.7437 28.9067 36.839L28.4557 37.917C28.1991 37.8143 27.8801 37.7117 27.4987 37.609C27.1247 37.5063 26.7177 37.4037 26.2777 37.301C25.8451 37.191 25.4051 37.0883 24.9577 36.993C24.5177 36.8977 24.0961 36.8133 23.6927 36.74C23.2967 36.6667 22.9411 36.6117 22.6257 36.575L23.0327 35.541ZM22.5377 38.478C22.9191 38.544 23.3591 38.6283 23.8577 38.731C24.3564 38.8263 24.8734 38.9363 25.4087 39.061C25.9441 39.1783 26.4501 39.303 26.9267 39.435C27.4107 39.5597 27.8251 39.6843 28.1697 39.809L27.7407 40.876C27.4181 40.7587 27.0221 40.634 26.5527 40.502C26.0834 40.3627 25.5811 40.2307 25.0457 40.106C24.5177 39.9813 23.9971 39.8677 23.4837 39.765C22.9777 39.6623 22.5267 39.5817 22.1307 39.523L22.5377 38.478ZM21.9547 41.657C22.3214 41.7157 22.7394 41.7927 23.2087 41.888C23.6781 41.976 24.1621 42.0787 24.6607 42.196C25.1594 42.306 25.6507 42.4233 26.1347 42.548C26.6261 42.6727 27.0844 42.801 27.5097 42.933C27.9351 43.0577 28.2981 43.1787 28.5987 43.296L28.1147 44.374C27.8214 44.2493 27.4621 44.1247 27.0367 44C26.6187 43.868 26.1641 43.7397 25.6727 43.615C25.1814 43.483 24.6827 43.362 24.1767 43.252C23.6781 43.1347 23.1977 43.032 22.7357 42.944C22.2811 42.856 21.8741 42.7863 21.5147 42.735L21.9547 41.657ZM40.0387 36.564C39.9874 36.6227 39.9251 36.6997 39.8517 36.795C39.7857 36.883 39.7271 36.96 39.6757 37.026C39.5217 37.2973 39.3054 37.6163 39.0267 37.983C38.7554 38.3497 38.4437 38.72 38.0917 39.094C37.7471 39.4607 37.3767 39.7833 36.9807 40.062L36.0677 39.325C36.3097 39.1857 36.5444 39.0207 36.7717 38.83C37.0064 38.632 37.2227 38.4267 37.4207 38.214C37.6261 38.0013 37.8057 37.796 37.9597 37.598C38.1137 37.3927 38.2311 37.2093 38.3117 37.048C38.2091 37.048 38.0331 37.048 37.7837 37.048C37.5417 37.048 37.2484 37.048 36.9037 37.048C36.5664 37.048 36.2034 37.048 35.8147 37.048C35.4334 37.048 35.0521 37.048 34.6707 37.048C34.2894 37.048 33.9337 37.048 33.6037 37.048C33.2737 37.048 32.9914 37.048 32.7567 37.048C32.5221 37.048 32.3644 37.048 32.2837 37.048C32.0637 37.048 31.8511 37.0553 31.6457 37.07C31.4404 37.0773 31.2204 37.092 30.9857 37.114V35.893C31.1911 35.915 31.4037 35.937 31.6237 35.959C31.8437 35.981 32.0637 35.992 32.2837 35.992C32.3644 35.992 32.5257 35.992 32.7677 35.992C33.0097 35.992 33.2994 35.992 33.6367 35.992C33.9814 35.992 34.3517 35.992 34.7477 35.992C35.1437 35.992 35.5397 35.992 35.9357 35.992C36.3317 35.992 36.7021 35.992 37.0467 35.992C37.3914 35.992 37.6847 35.992 37.9267 35.992C38.1687 35.992 38.3374 35.992 38.4327 35.992C38.5134 35.992 38.6124 35.992 38.7297 35.992C38.8544 35.9847 38.9717 35.9737 39.0817 35.959C39.1991 35.9443 39.2871 35.9297 39.3457 35.915L40.0387 36.564ZM35.5947 38.027C35.5947 38.599 35.5801 39.1417 35.5507 39.655C35.5214 40.1683 35.4517 40.656 35.3417 41.118C35.2391 41.5727 35.0777 42.0017 34.8577 42.405C34.6377 42.801 34.3407 43.175 33.9667 43.527C33.5927 43.879 33.1161 44.2017 32.5367 44.495L31.5247 43.67C31.6861 43.6187 31.8584 43.549 32.0417 43.461C32.2324 43.3657 32.4121 43.2557 32.5807 43.131C32.9767 42.8743 33.2957 42.5957 33.5377 42.295C33.7797 41.9943 33.9594 41.6717 34.0767 41.327C34.2014 40.975 34.2857 40.5973 34.3297 40.194C34.3811 39.7907 34.4067 39.3617 34.4067 38.907C34.4067 38.7603 34.4031 38.6173 34.3957 38.478C34.3884 38.3387 34.3701 38.1883 34.3407 38.027H35.5947ZM44.5893 35.761C44.5306 35.9077 44.4646 36.069 44.3913 36.245C44.3253 36.421 44.2519 36.63 44.1713 36.872C44.1126 37.0627 44.0319 37.3193 43.9293 37.642C43.8266 37.9647 43.7093 38.324 43.5773 38.72C43.4526 39.1087 43.3206 39.512 43.1813 39.93C43.042 40.3407 42.9063 40.7403 42.7743 41.129C42.6423 41.5177 42.5176 41.8697 42.4003 42.185C42.2903 42.5003 42.195 42.7497 42.1143 42.933L40.8383 42.977C40.9336 42.757 41.0436 42.4783 41.1683 42.141C41.3003 41.7963 41.4359 41.4223 41.5753 41.019C41.7146 40.6083 41.8539 40.1903 41.9933 39.765C42.1399 39.3323 42.2756 38.918 42.4003 38.522C42.5249 38.1187 42.6386 37.752 42.7413 37.422C42.844 37.092 42.921 36.8243 42.9723 36.619C43.0456 36.355 43.0969 36.1387 43.1263 35.97C43.163 35.8013 43.1923 35.6363 43.2143 35.475L44.5893 35.761ZM46.6353 39.38C46.826 39.6733 47.035 40.018 47.2623 40.414C47.497 40.8027 47.728 41.2097 47.9553 41.635C48.1826 42.0603 48.3916 42.471 48.5823 42.867C48.7803 43.263 48.938 43.6077 49.0553 43.901L47.8893 44.429C47.772 44.1137 47.6216 43.7507 47.4383 43.34C47.2623 42.922 47.0643 42.493 46.8443 42.053C46.6316 41.613 46.4153 41.1987 46.1953 40.81C45.9753 40.4213 45.7663 40.0987 45.5683 39.842L46.6353 39.38ZM40.5523 42.614C40.8089 42.6067 41.1206 42.5883 41.4873 42.559C41.8613 42.5297 42.2609 42.493 42.6863 42.449C43.1116 42.405 43.548 42.361 43.9953 42.317C44.4426 42.273 44.8753 42.2253 45.2933 42.174C45.7186 42.1227 46.111 42.075 46.4703 42.031C46.8296 41.987 47.1303 41.9467 47.3723 41.91L47.6583 43.01C47.3943 43.0393 47.0716 43.076 46.6903 43.12C46.3163 43.164 45.9093 43.2117 45.4693 43.263C45.0293 43.3143 44.5783 43.3657 44.1163 43.417C43.6543 43.4683 43.2033 43.5197 42.7633 43.571C42.3306 43.615 41.9273 43.6553 41.5533 43.692C41.1866 43.7287 40.8749 43.758 40.6183 43.78C40.4789 43.7947 40.3249 43.8167 40.1563 43.846C39.9876 43.868 39.8189 43.89 39.6503 43.912L39.4523 42.636C39.6283 42.636 39.8153 42.636 40.0133 42.636C40.2113 42.6287 40.3909 42.6213 40.5523 42.614Z" fill="url(#paint0_linear_219_2992)"/>
<path d="M16.3827 1.97468e-08C16.2251 -3.25032e-05 16.0702 0.0401094 15.9331 0.116511C15.796 0.192912 15.6814 0.302966 15.6004 0.435938L10.1294 9.40584C10.0323 9.56545 9.98806 9.75082 10.0028 9.93627C10.0175 10.1217 10.0904 10.2981 10.2115 10.441L23.8779 26.5742C23.9781 26.6971 24.1094 26.7917 24.2586 26.8488C24.4078 26.9058 24.5697 26.9232 24.7279 26.8992C24.8861 26.8752 25.0351 26.8107 25.1599 26.7121C25.2847 26.6134 25.3809 26.4842 25.4389 26.3374L31.5955 10.7639H38.6931L38.9666 10.441C39.0877 10.2981 39.1607 10.1217 39.1754 9.93627C39.1901 9.75082 39.1458 9.56545 39.0487 9.40584L33.5778 0.435938C33.4968 0.302966 33.3822 0.192912 33.245 0.116511C33.1079 0.0401094 32.953 -3.25032e-05 32.7954 1.97468e-08H16.3827ZM29.6406 10.7639L24.5891 23.537L19.5394 10.7639H29.6406ZM12.5202 8.96991L16.897 1.79398H20.5059L17.5881 8.96991H12.5202ZM17.5808 10.7639L21.715 21.221L12.8594 10.7639H17.5808ZM19.5504 8.96991L22.4682 1.79398H26.7045L29.6223 8.96991H19.5504ZM31.5864 8.96991L28.6686 1.79398H32.2775L36.6543 8.96991H31.5864ZM34.6173 19.7338C35.5846 19.7338 36.5123 19.3558 37.1963 18.6829C37.8803 18.01 38.2645 17.0974 38.2645 16.1458C38.2645 15.1942 37.8803 14.2816 37.1963 13.6088C36.5123 12.9359 35.5846 12.5579 34.6173 12.5579C33.6499 12.5579 32.7222 12.9359 32.0382 13.6088C31.3543 14.2816 30.97 15.1942 30.97 16.1458C30.97 17.0974 31.3543 18.01 32.0382 18.6829C32.7222 19.3558 33.6499 19.7338 34.6173 19.7338ZM34.6173 28.7037C39.1764 28.7037 41 26.4523 41 24.2187C41 23.5051 40.7118 22.8206 40.1988 22.3159C39.6858 21.8113 38.99 21.5278 38.2645 21.5278H30.97C30.2445 21.5278 29.5487 21.8113 29.0357 22.3159C28.5227 22.8206 28.2345 23.5051 28.2345 24.2187C28.2345 26.4612 30.0582 28.7037 34.6173 28.7037Z" fill="url(#paint1_linear_219_2992)"/>
<defs>
<linearGradient id="paint0_linear_219_2992" x1="13.1818" y1="33" x2="28.0743" y2="50.1133" gradientUnits="userSpaceOnUse">
<stop offset="0.265664" stop-color="#EC9986"/>
<stop offset="0.47" stop-color="#FAD7D0"/>
<stop offset="0.510664" stop-color="#EDDAD5"/>
<stop offset="0.790664" stop-color="#D75342"/>
</linearGradient>
<linearGradient id="paint1_linear_219_2992" x1="15.6364" y1="-0.939394" x2="38.6515" y2="29.5909" gradientUnits="userSpaceOnUse">
<stop offset="0.165664" stop-color="#E8948D"/>
<stop offset="0.360664" stop-color="#E5B5AC"/>
<stop offset="0.750664" stop-color="#D75642"/>
</linearGradient>
</defs>
</svg>
