<svg width="31" height="31" viewBox="0 0 31 31" fill="none" xmlns="http://www.w3.org/2000/svg">
<path d="M15.4997 2.5835C22.6336 2.5835 28.4163 8.36629 28.4163 15.5002C28.4163 22.634 22.6336 28.4168 15.4997 28.4168C8.3658 28.4168 2.58301 22.634 2.58301 15.5002C2.58301 8.36629 8.3658 2.5835 15.4997 2.5835ZM15.4997 20.6668C15.1571 20.6668 14.8286 20.8029 14.5863 21.0452C14.3441 21.2874 14.208 21.6159 14.208 21.9585C14.208 22.3011 14.3441 22.6296 14.5863 22.8718C14.8286 23.1141 15.1571 23.2502 15.4997 23.2502C15.8422 23.2502 16.1708 23.1141 16.413 22.8718C16.6553 22.6296 16.7913 22.3011 16.7913 21.9585C16.7913 21.6159 16.6553 21.2874 16.413 21.0452C16.1708 20.8029 15.8422 20.6668 15.4997 20.6668ZM15.4997 8.396C14.2579 8.396 13.0669 8.88931 12.1888 9.76741C11.3107 10.6455 10.8174 11.8365 10.8174 13.0783C10.8174 13.4209 10.9535 13.7494 11.1957 13.9916C11.4379 14.2339 11.7665 14.37 12.109 14.37C12.4516 14.37 12.7802 14.2339 13.0224 13.9916C13.2646 13.7494 13.4007 13.4209 13.4007 13.0783C13.4011 12.6973 13.5053 12.3236 13.7019 11.9973C13.8986 11.671 14.1803 11.4043 14.517 11.2259C14.8536 11.0476 15.2325 10.9642 15.6129 10.9847C15.9934 11.0053 16.3611 11.129 16.6765 11.3426C16.992 11.5563 17.2434 11.8517 17.4037 12.1973C17.5641 12.5429 17.6273 12.9257 17.5867 13.3045C17.546 13.6833 17.403 14.0439 17.1731 14.3477C16.9431 14.6514 16.6347 14.8869 16.2811 15.0287C15.408 15.3775 14.208 16.2713 14.208 17.7606V18.0835C14.208 18.4261 14.3441 18.7546 14.5863 18.9968C14.8286 19.2391 15.1571 19.3752 15.4997 19.3752C15.8422 19.3752 16.1708 19.2391 16.413 18.9968C16.6553 18.7546 16.7913 18.4261 16.7913 18.0835C16.7913 17.7683 16.8559 17.6107 17.1285 17.4764L17.2408 17.4247C18.2494 17.019 19.0854 16.2751 19.6055 15.3205C20.1257 14.3659 20.2976 13.2601 20.0917 12.1927C19.8859 11.1253 19.3151 10.1627 18.4773 9.46998C17.6395 8.77727 16.5868 8.39758 15.4997 8.396Z" fill="#55948B"/>
</svg>
