<svg width="44" height="54" viewBox="0 0 44 54" fill="none" xmlns="http://www.w3.org/2000/svg">
<path d="M10.9998 34.8334H17.7685V25.5256C17.7685 25.1064 17.9109 24.755 18.1957 24.4714C18.4792 24.1867 18.8306 24.0443 19.2498 24.0443H24.7498C25.1691 24.0443 25.5211 24.1867 25.8058 24.4714C26.0894 24.755 26.2312 25.1064 26.2312 25.5256V34.8334H32.9998V18.8981C32.9998 18.7099 32.9589 18.5388 32.877 18.3848C32.7951 18.2308 32.6833 18.0963 32.5415 17.9814L22.6708 10.5418C22.4826 10.378 22.2589 10.2961 21.9998 10.2961C21.7407 10.2961 21.5177 10.378 21.3307 10.5418L11.4582 17.9814C11.3176 18.0988 11.2058 18.2332 11.1227 18.3848C11.0396 18.5363 10.9986 18.7074 10.9998 18.8981V34.8334ZM9.1665 34.8334V18.8981C9.1665 18.4288 9.27161 17.9845 9.48184 17.5653C9.69206 17.146 9.98173 16.8008 10.3508 16.5294L20.2233 9.0531C20.7403 8.65833 21.3307 8.46094 21.9943 8.46094C22.658 8.46094 23.252 8.65833 23.7763 9.0531L33.6488 16.5276C34.0192 16.7989 34.3088 17.1448 34.5178 17.5653C34.7281 17.9845 34.8332 18.4288 34.8332 18.8981V34.8334C34.8332 35.3248 34.6504 35.7532 34.285 36.1186C33.9196 36.484 33.4912 36.6668 32.9998 36.6668H25.8792C25.4587 36.6668 25.1067 36.525 24.8232 36.2414C24.5396 35.9567 24.3978 35.6047 24.3978 35.1854V25.8794H19.6018V35.1854C19.6018 35.6059 19.4601 35.9579 19.1765 36.2414C18.8929 36.525 18.5416 36.6668 18.1223 36.6668H10.9998C10.5085 36.6668 10.0801 36.484 9.71467 36.1186C9.34923 35.7532 9.1665 35.3248 9.1665 34.8334Z" fill="#666C6C"/>
<path d="M13.8081 52V44.971H11.4431V43.893H17.4821V44.971H15.1061V52H13.8081ZM21.6192 52.154C20.9298 52.154 20.3175 51.9817 19.7822 51.637C19.2542 51.2923 18.8398 50.8047 18.5392 50.174C18.2385 49.536 18.0882 48.7843 18.0882 47.919C18.0882 47.0463 18.2385 46.302 18.5392 45.686C18.8398 45.0627 19.2542 44.586 19.7822 44.256C20.3175 43.9187 20.9298 43.75 21.6192 43.75C22.3158 43.75 22.9282 43.9187 23.4562 44.256C23.9842 44.586 24.3985 45.0627 24.6992 45.686C24.9998 46.302 25.1502 47.0463 25.1502 47.919C25.1502 48.7843 24.9998 49.536 24.6992 50.174C24.3985 50.8047 23.9842 51.2923 23.4562 51.637C22.9282 51.9817 22.3158 52.154 21.6192 52.154ZM21.6192 51.032C22.0665 51.032 22.4552 50.9037 22.7852 50.647C23.1225 50.3903 23.3828 50.031 23.5662 49.569C23.7495 49.0997 23.8412 48.5497 23.8412 47.919C23.8412 47.2883 23.7495 46.7457 23.5662 46.291C23.3828 45.829 23.1225 45.477 22.7852 45.235C22.4552 44.9857 22.0665 44.861 21.6192 44.861C21.1718 44.861 20.7795 44.9857 20.4422 45.235C20.1122 45.477 19.8555 45.829 19.6722 46.291C19.4962 46.7457 19.4082 47.2883 19.4082 47.919C19.4082 48.5497 19.4962 49.0997 19.6722 49.569C19.8555 50.031 20.1122 50.3903 20.4422 50.647C20.7795 50.9037 21.1718 51.032 21.6192 51.032ZM26.8321 52V43.893H29.2851C29.8938 43.893 30.4291 43.9737 30.8911 44.135C31.3531 44.289 31.7161 44.5457 31.9801 44.905C32.2515 45.257 32.3871 45.741 32.3871 46.357C32.3871 46.9437 32.2551 47.4277 31.9911 47.809C31.7271 48.183 31.3641 48.4653 30.9021 48.656C30.4475 48.8393 29.9231 48.931 29.3291 48.931H28.1081V52H26.8321ZM28.1081 47.897H29.2191C29.8571 47.897 30.3338 47.7723 30.6491 47.523C30.9645 47.2737 31.1221 46.885 31.1221 46.357C31.1221 45.8143 30.9571 45.4403 30.6271 45.235C30.2971 45.0297 29.8095 44.927 29.1641 44.927H28.1081V47.897Z" fill="#666C6C"/>
</svg>
