<svg width="42" height="38" viewBox="0 0 42 38" fill="none" xmlns="http://www.w3.org/2000/svg">
<g clip-path="url(#clip0_365_174)">
<path d="M33 11.988C33 5.37 27.624 0 21 0C14.376 0 9 5.37 9 11.988C9 15.633 10.656 18.918 13.248 21.123C13.272 21.147 13.296 21.147 13.296 21.171C13.512 21.339 13.728 21.507 13.968 21.675C14.088 21.747 14.184 21.8415 14.304 21.9375C16.2879 23.2804 18.6283 23.9987 21.024 24C23.4197 23.9987 25.7601 23.2804 27.744 21.9375C27.864 21.8655 27.96 21.771 28.08 21.6975C28.296 21.531 28.536 21.363 28.752 21.195C28.776 21.171 28.8 21.171 28.8 21.147C31.344 18.9165 33 15.633 33 11.988ZM21 22.4895C18.744 22.4895 16.68 21.7695 14.976 20.571C15 20.379 15.048 20.1885 15.096 19.9965C15.2395 19.4763 15.4492 18.9767 15.72 18.51C15.984 18.054 16.296 17.646 16.68 17.286C17.04 16.926 17.472 16.5915 17.904 16.3275C18.36 16.0635 18.84 15.8715 19.368 15.7275C19.9003 15.5849 20.449 15.5128 21 15.513C22.6361 15.5006 24.2123 16.1283 25.392 17.262C25.944 17.814 26.376 18.4615 26.688 19.2045C26.856 19.6365 26.976 20.092 27.048 20.571C25.2768 21.8162 23.1652 22.4861 21 22.4895ZM17.328 11.3895C17.117 10.9052 17.0106 10.3818 17.016 9.8535C17.016 9.327 17.112 8.799 17.328 8.319C17.544 7.839 17.832 7.4085 18.192 7.0485C18.552 6.6885 18.984 6.402 19.464 6.186C19.944 5.97 20.472 5.874 21 5.874C21.552 5.874 22.056 5.97 22.536 6.186C23.016 6.402 23.448 6.69 23.808 7.0485C24.168 7.4085 24.456 7.8405 24.672 8.319C24.888 8.799 24.984 9.327 24.984 9.8535C24.984 10.4055 24.888 10.9095 24.672 11.388C24.4647 11.8616 24.1718 12.2928 23.808 12.66C23.4407 13.0233 23.0094 13.3157 22.536 13.5225C21.5441 13.9293 20.4319 13.9293 19.44 13.5225C18.9666 13.3157 18.5353 13.0233 18.168 12.66C17.8039 12.298 17.518 11.8665 17.328 11.3895ZM28.464 19.3485C28.464 19.3005 28.44 19.2765 28.44 19.2285C28.2044 18.4775 27.8564 17.7664 27.408 17.1195C26.9592 16.4679 26.4081 15.893 25.776 15.417C25.2931 15.0536 24.7696 14.7475 24.216 14.505C24.4667 14.3373 24.6998 14.1448 24.912 13.9305C25.2698 13.5773 25.584 13.1824 25.848 12.7545C26.3814 11.882 26.656 10.876 26.64 9.8535C26.6478 9.09673 26.5008 8.34636 26.208 7.6485C25.9192 6.97598 25.5037 6.36536 24.984 5.85C24.4638 5.34157 23.8534 4.93462 23.184 4.65C22.4851 4.35728 21.7337 4.21077 20.976 4.2195C20.2182 4.21125 19.4668 4.35827 18.768 4.6515C18.0913 4.93264 17.4788 5.34859 16.968 5.874C16.4569 6.39145 16.0496 7.00193 15.768 7.6725C15.4752 8.37036 15.3282 9.12073 15.336 9.8775C15.336 10.4055 15.408 10.909 15.552 11.388C15.696 11.892 15.888 12.348 16.152 12.7785C16.392 13.2105 16.728 13.5945 17.088 13.9545C17.304 14.1705 17.544 14.362 17.808 14.529C17.2519 14.7765 16.7281 15.0909 16.248 15.465C15.624 15.945 15.072 16.5195 14.616 17.1435C14.1634 17.788 13.8151 18.4997 13.584 19.2525C13.56 19.3005 13.56 19.3485 13.56 19.3725C11.664 17.454 10.488 14.865 10.488 11.988C10.488 6.21 15.216 1.4865 21 1.4865C26.784 1.4865 31.512 6.21 31.512 11.988C31.5089 14.7479 30.413 17.3943 28.464 19.3485Z" fill="#5D5D60"/>
</g>
<path d="M3.16 31.53H6.91C6.14 30.95 5.45 30.3 4.99 29.68C4.56 30.29 3.92 30.94 3.16 31.53ZM2.67 32.62V31.89C2.14 32.27 1.56 32.61 0.98 32.89C0.84 32.6 0.53 32.15 0.28 31.89C1.98 31.14 3.57 29.72 4.32 28.54H5.56C6.62 30.01 8.21 31.15 9.79 31.71C9.49 32.02 9.23 32.45 9.02 32.8C8.47 32.54 7.89 32.21 7.34 31.83V32.62H2.67ZM0.9 34.55V33.45H9.17V34.55H4.69C4.4 35.14 4.07 35.76 3.77 36.32C4.73 36.29 5.76 36.25 6.78 36.21C6.47 35.85 6.13 35.49 5.8 35.19L6.85 34.64C7.74 35.42 8.67 36.46 9.14 37.21L8.03 37.88C7.93 37.69 7.79 37.48 7.63 37.26C5.28 37.39 2.81 37.49 1.11 37.57L0.95 36.41L2.46 36.36C2.73 35.8 3.01 35.14 3.22 34.55H0.9ZM17.04 30.42V29.77H13V30.42H17.04ZM18.31 28.84V31.34H11.8V28.84H18.31ZM12.53 34.89V35.33H17.43V34.89H12.53ZM12.53 33.71V34.13H17.43V33.71H12.53ZM12.53 32.52V32.95H17.43V32.52H12.53ZM18.66 36.13H17.04C17.98 36.41 19.03 36.77 19.72 37.05L18.67 37.89C17.9 37.53 16.52 37.04 15.46 36.73L16.3 36.13H13.57L14.34 36.67C13.53 37.14 12.25 37.62 11.24 37.87C11.02 37.62 10.61 37.25 10.34 37.02C11.21 36.83 12.24 36.47 12.92 36.13H11.35V31.71H18.66V36.13ZM21.06 33.4L20.2 33.11C20.41 32.43 20.56 31.31 20.61 30.5L21.45 30.61C21.43 31.44 21.27 32.63 21.06 33.4ZM24.86 35.56H27.85V35.1H24.86V35.56ZM27.85 33.79H24.86V34.26H27.85V33.79ZM28.97 32.92V36.73C28.97 37.25 28.87 37.53 28.51 37.69C28.16 37.86 27.66 37.86 26.97 37.86C26.93 37.57 26.79 37.14 26.65 36.85C27.06 36.88 27.53 36.87 27.66 36.87C27.8 36.87 27.85 36.83 27.85 36.71V36.38H24.86V37.88H23.76V32.92H28.97ZM26.92 31.69H29.64V32.54H23.09V31.69H25.74V31.26H23.67L23.69 31.31L22.91 31.69C22.84 31.4 22.7 30.98 22.54 30.59V37.86H21.47V28.53H22.54V30.13L23.11 29.89C23.32 30.32 23.55 30.88 23.67 31.25V30.46H25.74V30.06H23.4V29.21H25.74V28.53H26.92V29.21H29.34V30.06H26.92V30.46H29.07V31.26H26.92V31.69ZM33.38 33.25L33.06 33.16C33.18 32.86 33.33 32.43 33.42 32.09H31.9C32.07 32.45 32.21 32.88 32.25 33.16L31.93 33.25H33.38ZM33.21 30.4V31.09H34.88V32.09H34.05L34.44 32.19C34.27 32.56 34.12 32.95 33.98 33.25H34.73V34.25H33.21V35.02H34.62V36.02H33.21V37.84H32.11V36.02H30.62V35.02H32.11V34.25H30.54V33.25H31.29C31.23 32.93 31.1 32.51 30.96 32.18L31.32 32.09H30.33V31.09H32.11V30.4H30.68V29.42H32.11V28.55H33.21V29.42H34.51V30.4H33.21ZM36.14 33.73V36.91C36.5 36.62 36.82 36.28 37.1 35.89C36.71 35.25 36.39 34.52 36.14 33.73ZM38.22 33.32H36.98C37.16 33.87 37.4 34.39 37.69 34.87C37.92 34.39 38.1 33.86 38.22 33.32ZM38.75 32.33L39.46 32.58C39.27 33.79 38.92 34.91 38.41 35.85C38.82 36.3 39.28 36.68 39.8 36.94C39.54 37.16 39.2 37.58 39.03 37.88C38.56 37.6 38.15 37.24 37.78 36.82C37.46 37.23 37.1 37.59 36.69 37.89C36.56 37.69 36.35 37.46 36.14 37.27V37.86H35.06V28.95H39.23V30.83C39.23 31.34 39.12 31.63 38.73 31.79C38.35 31.95 37.81 31.96 37.08 31.96C37.03 31.64 36.88 31.23 36.74 30.94C37.23 30.96 37.78 30.96 37.93 30.96C38.08 30.95 38.13 30.92 38.13 30.81V29.99H36.14V32.38H38.55L38.75 32.33Z" fill="#5D5D60"/>
<defs>
<clipPath id="clip0_365_174">
<rect width="24" height="24" fill="white" transform="translate(9)"/>
</clipPath>
</defs>
</svg>
