<svg width="197" height="35" viewBox="0 0 197 35" fill="none" xmlns="http://www.w3.org/2000/svg">
<rect x="0.5" y="0.5" width="195.875" height="34" fill="#182548" stroke="black"/>
<path d="M14.69 21.671L15.698 21.923C15.56 22.271 15.407 22.628 15.239 22.994C15.071 23.36 14.897 23.726 14.717 24.092C14.543 24.452 14.366 24.797 14.186 25.127C14.006 25.451 13.835 25.748 13.673 26.018L12.881 25.766C13.043 25.49 13.208 25.184 13.376 24.848C13.55 24.506 13.718 24.152 13.88 23.786C14.042 23.42 14.192 23.057 14.33 22.697C14.474 22.337 14.594 21.995 14.69 21.671ZM11.801 25.505C12.221 25.487 12.692 25.469 13.214 25.451C13.736 25.433 14.288 25.412 14.87 25.388C15.458 25.358 16.058 25.328 16.67 25.298C17.282 25.268 17.888 25.241 18.488 25.217L18.461 26.036C17.687 26.084 16.904 26.129 16.112 26.171C15.32 26.219 14.564 26.261 13.844 26.297C13.124 26.339 12.482 26.375 11.918 26.405L11.801 25.505ZM16.427 23.651L17.246 23.273C17.516 23.591 17.786 23.936 18.056 24.308C18.332 24.674 18.587 25.034 18.821 25.388C19.055 25.736 19.247 26.051 19.397 26.333L18.524 26.801C18.386 26.519 18.203 26.195 17.975 25.829C17.747 25.463 17.498 25.091 17.228 24.713C16.958 24.329 16.691 23.975 16.427 23.651ZM13.763 18.638L14.726 18.908C14.528 19.388 14.294 19.856 14.024 20.312C13.76 20.768 13.475 21.194 13.169 21.59C12.869 21.98 12.56 22.319 12.242 22.607C12.188 22.547 12.11 22.478 12.008 22.4C11.906 22.322 11.801 22.244 11.693 22.166C11.591 22.088 11.501 22.028 11.423 21.986C11.747 21.722 12.053 21.413 12.341 21.059C12.635 20.705 12.905 20.321 13.151 19.907C13.397 19.493 13.601 19.07 13.763 18.638ZM17.165 18.647C17.303 18.929 17.471 19.22 17.669 19.52C17.867 19.814 18.077 20.108 18.299 20.402C18.527 20.69 18.755 20.96 18.983 21.212C19.217 21.464 19.436 21.686 19.64 21.878C19.568 21.932 19.484 22.004 19.388 22.094C19.298 22.178 19.211 22.268 19.127 22.364C19.049 22.454 18.98 22.538 18.92 22.616C18.71 22.394 18.488 22.139 18.254 21.851C18.026 21.563 17.795 21.26 17.561 20.942C17.327 20.618 17.102 20.291 16.886 19.961C16.676 19.631 16.484 19.307 16.31 18.989L17.165 18.647ZM20.396 25.721H28.613V26.477H20.396V25.721ZM20.585 20.285H28.424V21.041H20.585V20.285ZM21.629 23.228H27.416V26.117H26.615V23.948H25.724V26.117H24.941V23.948H24.05V26.117H23.267V23.948H22.385V26.117H21.629V23.228ZM21.872 18.782L22.592 18.458C22.73 18.62 22.865 18.797 22.997 18.989C23.129 19.181 23.249 19.37 23.357 19.556C23.471 19.742 23.561 19.91 23.627 20.06L22.862 20.447C22.802 20.291 22.718 20.117 22.61 19.925C22.508 19.733 22.391 19.538 22.259 19.34C22.133 19.136 22.004 18.95 21.872 18.782ZM26.381 18.395L27.272 18.665C27.086 18.965 26.885 19.271 26.669 19.583C26.453 19.889 26.255 20.15 26.075 20.366L25.337 20.105C25.457 19.949 25.583 19.772 25.715 19.574C25.847 19.376 25.97 19.175 26.084 18.971C26.204 18.761 26.303 18.569 26.381 18.395ZM23.033 20.474L23.879 20.735C23.657 21.209 23.387 21.659 23.069 22.085C22.751 22.511 22.406 22.901 22.034 23.255C21.662 23.603 21.275 23.906 20.873 24.164C20.831 24.104 20.768 24.035 20.684 23.957C20.606 23.873 20.525 23.792 20.441 23.714C20.357 23.63 20.282 23.564 20.216 23.516C20.81 23.18 21.356 22.748 21.854 22.22C22.352 21.692 22.745 21.11 23.033 20.474ZM25.832 20.483C26.024 20.873 26.273 21.254 26.579 21.626C26.891 21.998 27.236 22.337 27.614 22.643C27.992 22.943 28.379 23.189 28.775 23.381C28.715 23.429 28.646 23.495 28.568 23.579C28.49 23.663 28.418 23.747 28.352 23.831C28.286 23.915 28.229 23.993 28.181 24.065C27.773 23.843 27.374 23.561 26.984 23.219C26.6 22.877 26.246 22.496 25.922 22.076C25.598 21.656 25.319 21.218 25.085 20.762L25.832 20.483ZM33.275 20.537H37.694V21.329H33.275V20.537ZM35.768 18.431H36.614V25.748C36.614 25.976 36.584 26.156 36.524 26.288C36.47 26.42 36.371 26.522 36.227 26.594C36.089 26.66 35.909 26.705 35.687 26.729C35.465 26.753 35.186 26.765 34.85 26.765C34.832 26.651 34.793 26.51 34.733 26.342C34.673 26.18 34.61 26.042 34.544 25.928C34.784 25.934 34.997 25.94 35.183 25.946C35.375 25.946 35.507 25.943 35.579 25.937C35.651 25.937 35.699 25.925 35.723 25.901C35.753 25.871 35.768 25.82 35.768 25.748V18.431ZM35.642 20.87L36.326 21.077C36.134 21.647 35.897 22.199 35.615 22.733C35.333 23.267 35.021 23.756 34.679 24.2C34.343 24.644 33.989 25.022 33.617 25.334C33.551 25.238 33.461 25.13 33.347 25.01C33.233 24.884 33.131 24.782 33.041 24.704C33.311 24.512 33.572 24.275 33.824 23.993C34.082 23.711 34.322 23.402 34.544 23.066C34.772 22.724 34.979 22.367 35.165 21.995C35.351 21.617 35.51 21.242 35.642 20.87ZM30.359 24.614L31.178 24.821C31.04 25.193 30.857 25.553 30.629 25.901C30.407 26.249 30.176 26.54 29.936 26.774C29.888 26.726 29.822 26.669 29.738 26.603C29.654 26.537 29.567 26.474 29.477 26.414C29.387 26.354 29.312 26.306 29.252 26.27C29.486 26.066 29.699 25.817 29.891 25.523C30.089 25.229 30.245 24.926 30.359 24.614ZM31.619 24.92L32.303 24.605C32.501 24.827 32.693 25.073 32.879 25.343C33.065 25.613 33.203 25.85 33.293 26.054L32.573 26.432C32.483 26.222 32.348 25.976 32.168 25.694C31.988 25.406 31.805 25.148 31.619 24.92ZM30.575 21.095V22.112H32.177V21.095H30.575ZM30.575 22.76V23.786H32.177V22.76H30.575ZM30.575 19.439V20.447H32.177V19.439H30.575ZM29.774 18.755H33.023V24.479H29.774V18.755ZM39.962 20.951H45.11V21.68H39.962V20.951ZM43.184 19.907H43.976V24.353C43.976 24.569 43.949 24.734 43.895 24.848C43.841 24.962 43.742 25.046 43.598 25.1C43.454 25.16 43.268 25.196 43.04 25.208C42.812 25.22 42.527 25.226 42.185 25.226C42.167 25.118 42.134 24.998 42.086 24.866C42.044 24.728 41.999 24.605 41.951 24.497C42.179 24.503 42.395 24.509 42.599 24.515C42.803 24.515 42.941 24.512 43.013 24.506C43.079 24.506 43.124 24.494 43.148 24.47C43.172 24.446 43.184 24.404 43.184 24.344V19.907ZM40.529 22.346L41.141 22.022C41.285 22.178 41.426 22.349 41.564 22.535C41.702 22.721 41.828 22.904 41.942 23.084C42.056 23.264 42.14 23.432 42.194 23.588L41.555 23.948C41.501 23.798 41.42 23.63 41.312 23.444C41.204 23.258 41.081 23.069 40.943 22.877C40.811 22.679 40.673 22.502 40.529 22.346ZM38.702 18.809H46.325V26.747H45.443V19.628H39.548V26.747H38.702V18.809ZM39.206 25.541H45.785V26.36H39.206V25.541ZM49.772 22.112H55.586V22.922H49.772V22.112ZM50.231 19.799H55.154V20.609H50.231V19.799ZM52.211 18.404H53.084V22.688H52.211V18.404ZM49.781 25.505C50.189 25.487 50.663 25.466 51.203 25.442C51.743 25.412 52.319 25.379 52.931 25.343C53.543 25.307 54.152 25.271 54.758 25.235L54.749 26.009C54.173 26.057 53.591 26.102 53.003 26.144C52.421 26.186 51.863 26.225 51.329 26.261C50.801 26.303 50.324 26.339 49.898 26.369L49.781 25.505ZM53.327 24.092L54.065 23.705C54.293 23.969 54.518 24.257 54.74 24.569C54.962 24.881 55.163 25.19 55.343 25.496C55.529 25.796 55.67 26.072 55.766 26.324L54.965 26.765C54.875 26.525 54.743 26.249 54.569 25.937C54.395 25.625 54.2 25.31 53.984 24.992C53.768 24.668 53.549 24.368 53.327 24.092ZM51.563 22.661L52.499 22.922C52.367 23.264 52.223 23.621 52.067 23.993C51.917 24.365 51.761 24.725 51.599 25.073C51.437 25.415 51.284 25.715 51.14 25.973L50.384 25.721C50.492 25.517 50.6 25.289 50.708 25.037C50.822 24.779 50.93 24.515 51.032 24.245C51.14 23.969 51.239 23.696 51.329 23.426C51.419 23.156 51.497 22.901 51.563 22.661ZM47.801 19.079L48.269 18.449C48.473 18.527 48.686 18.617 48.908 18.719C49.13 18.821 49.34 18.929 49.538 19.043C49.736 19.157 49.898 19.268 50.024 19.376L49.529 20.078C49.409 19.97 49.253 19.856 49.061 19.736C48.869 19.61 48.662 19.49 48.44 19.376C48.218 19.262 48.005 19.163 47.801 19.079ZM47.306 21.554L47.747 20.897C47.951 20.963 48.164 21.044 48.386 21.14C48.608 21.236 48.821 21.335 49.025 21.437C49.229 21.539 49.397 21.641 49.529 21.743L49.061 22.454C48.935 22.358 48.773 22.256 48.575 22.148C48.383 22.034 48.176 21.926 47.954 21.824C47.732 21.716 47.516 21.626 47.306 21.554ZM47.594 26.09C47.75 25.856 47.921 25.583 48.107 25.271C48.293 24.953 48.482 24.617 48.674 24.263C48.866 23.903 49.043 23.555 49.205 23.219L49.844 23.759C49.7 24.071 49.541 24.395 49.367 24.731C49.199 25.067 49.025 25.4 48.845 25.73C48.671 26.054 48.5 26.357 48.332 26.639L47.594 26.09ZM59.906 18.647H60.869C60.857 18.893 60.836 19.211 60.806 19.601C60.776 19.991 60.719 20.429 60.635 20.915C60.557 21.395 60.437 21.896 60.275 22.418C60.113 22.94 59.891 23.462 59.609 23.984C59.327 24.5 58.97 24.992 58.538 25.46C58.106 25.922 57.581 26.33 56.963 26.684C56.885 26.57 56.783 26.453 56.657 26.333C56.531 26.213 56.396 26.105 56.252 26.009C56.864 25.685 57.377 25.31 57.791 24.884C58.205 24.452 58.544 23.996 58.808 23.516C59.072 23.03 59.276 22.544 59.42 22.058C59.57 21.566 59.678 21.098 59.744 20.654C59.81 20.21 59.852 19.814 59.87 19.466C59.888 19.118 59.9 18.845 59.906 18.647ZM60.833 18.854C60.839 18.962 60.851 19.142 60.869 19.394C60.893 19.64 60.932 19.937 60.986 20.285C61.046 20.633 61.133 21.011 61.247 21.419C61.361 21.827 61.511 22.247 61.697 22.679C61.883 23.105 62.117 23.525 62.399 23.939C62.681 24.347 63.017 24.725 63.407 25.073C63.803 25.415 64.268 25.709 64.802 25.955C64.67 26.057 64.544 26.174 64.424 26.306C64.31 26.438 64.217 26.561 64.145 26.675C63.599 26.411 63.119 26.09 62.705 25.712C62.297 25.334 61.946 24.923 61.652 24.479C61.364 24.035 61.121 23.582 60.923 23.12C60.731 22.658 60.575 22.205 60.455 21.761C60.341 21.317 60.254 20.906 60.194 20.528C60.134 20.144 60.092 19.814 60.068 19.538C60.044 19.262 60.026 19.061 60.014 18.935L60.833 18.854Z" fill="#FAFAFC"/>
<path d="M70.793 17.226H74.628V18.461H70.793V17.226ZM77.228 14.262H78.515V23.791C78.515 24.1377 78.5497 24.363 78.619 24.467C78.697 24.5623 78.866 24.61 79.126 24.61C79.1867 24.61 79.2907 24.61 79.438 24.61C79.594 24.61 79.763 24.61 79.945 24.61C80.127 24.61 80.296 24.61 80.452 24.61C80.608 24.61 80.7207 24.61 80.79 24.61C80.9807 24.61 81.1237 24.5363 81.219 24.389C81.3143 24.233 81.3837 23.96 81.427 23.57C81.4703 23.18 81.505 22.634 81.531 21.932C81.635 22.01 81.7563 22.088 81.895 22.166C82.0337 22.244 82.1767 22.3133 82.324 22.374C82.4713 22.426 82.6013 22.465 82.714 22.491C82.6707 23.297 82.5927 23.947 82.48 24.441C82.376 24.9263 82.2027 25.2773 81.96 25.494C81.7173 25.7107 81.3663 25.819 80.907 25.819C80.8377 25.819 80.712 25.819 80.53 25.819C80.348 25.819 80.1487 25.819 79.932 25.819C79.7153 25.819 79.516 25.819 79.334 25.819C79.1607 25.819 79.0393 25.819 78.97 25.819C78.5193 25.819 78.1683 25.7583 77.917 25.637C77.6657 25.5157 77.488 25.3033 77.384 25C77.28 24.7053 77.228 24.2937 77.228 23.765V14.262ZM74.017 14.249H75.291V25.975H74.017V14.249ZM81.492 16.225L82.389 17.317C81.973 17.629 81.518 17.9367 81.024 18.24C80.53 18.5433 80.023 18.8423 79.503 19.137C78.9917 19.4317 78.489 19.709 77.995 19.969C77.9517 19.8303 77.878 19.6657 77.774 19.475C77.6787 19.2843 77.5877 19.1283 77.501 19.007C77.9777 18.747 78.4587 18.461 78.944 18.149C79.4293 17.8283 79.893 17.5033 80.335 17.174C80.777 16.836 81.1627 16.5197 81.492 16.225ZM70.364 23.206C70.7193 23.0933 71.1267 22.9547 71.586 22.79C72.0453 22.6253 72.5307 22.4477 73.042 22.257C73.562 22.0663 74.082 21.8713 74.602 21.672L74.836 22.79C74.1687 23.0847 73.4883 23.3793 72.795 23.674C72.1103 23.96 71.4863 24.22 70.923 24.454L70.364 23.206ZM88.525 15.588H95.415V16.693H88.525V15.588ZM88.863 17.72H93.907V18.786H88.863V17.72ZM86.731 20.359H95.662V21.477H86.731V20.359ZM88.213 23.193H95.558V24.259H88.213V23.193ZM88.694 14.015L89.903 14.275C89.6517 15.133 89.3223 15.952 88.915 16.732C88.5077 17.5033 88.0743 18.1533 87.615 18.682C87.537 18.6127 87.433 18.5347 87.303 18.448C87.1817 18.3527 87.0517 18.2617 86.913 18.175C86.783 18.0883 86.666 18.019 86.562 17.967C87.03 17.499 87.446 16.914 87.81 16.212C88.1827 15.51 88.4773 14.7777 88.694 14.015ZM88.369 17.72H89.5C89.4393 18.3007 89.37 18.9117 89.292 19.553C89.214 20.1943 89.1317 20.84 89.045 21.49C88.9583 22.1313 88.8673 22.7423 88.772 23.323C88.6853 23.9037 88.603 24.415 88.525 24.857L87.355 24.766C87.4503 24.3153 87.5457 23.804 87.641 23.232C87.7363 22.6513 87.8273 22.0447 87.914 21.412C88.0007 20.7707 88.083 20.138 88.161 19.514C88.239 18.8813 88.3083 18.2833 88.369 17.72ZM90.904 18.136H91.97C91.9353 18.5867 91.8963 19.0677 91.853 19.579C91.8097 20.0817 91.762 20.5843 91.71 21.087C91.658 21.5897 91.606 22.0707 91.554 22.53C91.502 22.9807 91.45 23.3793 91.398 23.726H90.332C90.384 23.362 90.436 22.9547 90.488 22.504C90.5487 22.0447 90.605 21.5637 90.657 21.061C90.709 20.5497 90.7567 20.047 90.8 19.553C90.8433 19.0503 90.878 18.578 90.904 18.136ZM93.556 17.72H94.7C94.7 17.72 94.7 17.759 94.7 17.837C94.7 17.9063 94.7 17.9843 94.7 18.071C94.7 18.149 94.6957 18.214 94.687 18.266C94.6437 19.514 94.5917 20.5713 94.531 21.438C94.479 22.296 94.4183 23.0023 94.349 23.557C94.2883 24.1117 94.2147 24.545 94.128 24.857C94.05 25.169 93.9547 25.3943 93.842 25.533C93.712 25.7063 93.569 25.8277 93.413 25.897C93.257 25.975 93.0793 26.0227 92.88 26.04C92.6893 26.066 92.4467 26.079 92.152 26.079C91.8573 26.079 91.5497 26.0703 91.229 26.053C91.2203 25.897 91.1857 25.7237 91.125 25.533C91.073 25.3423 91.0037 25.1777 90.917 25.039C91.229 25.0563 91.515 25.0693 91.775 25.078C92.035 25.0867 92.23 25.091 92.36 25.091C92.4727 25.091 92.5637 25.078 92.633 25.052C92.711 25.026 92.7803 24.974 92.841 24.896C92.9277 24.792 93.0057 24.597 93.075 24.311C93.1443 24.025 93.205 23.6133 93.257 23.076C93.3177 22.53 93.3697 21.841 93.413 21.009C93.465 20.1683 93.5127 19.1543 93.556 17.967V17.72ZM84.066 15.029L84.768 14.145C85.0193 14.2577 85.2837 14.392 85.561 14.548C85.847 14.704 86.1113 14.8643 86.354 15.029C86.5967 15.185 86.796 15.341 86.952 15.497L86.211 16.485C86.0637 16.329 85.8687 16.1643 85.626 15.991C85.392 15.8177 85.1363 15.6443 84.859 15.471C84.5903 15.2977 84.326 15.1503 84.066 15.029ZM83.455 18.513L84.144 17.603C84.3953 17.707 84.6597 17.8327 84.937 17.98C85.223 18.1187 85.4873 18.2703 85.73 18.435C85.9813 18.591 86.185 18.7383 86.341 18.877L85.613 19.865C85.4657 19.7177 85.2707 19.5617 85.028 19.397C84.794 19.2323 84.5383 19.072 84.261 18.916C83.9837 18.76 83.715 18.6257 83.455 18.513ZM83.728 25.26C83.9273 24.9133 84.1397 24.5103 84.365 24.051C84.599 23.583 84.833 23.089 85.067 22.569C85.301 22.049 85.5133 21.5377 85.704 21.035L86.692 21.724C86.5187 22.1833 86.3237 22.66 86.107 23.154C85.899 23.648 85.6867 24.1333 85.47 24.61C85.262 25.0867 85.0497 25.533 84.833 25.949L83.728 25.26ZM100.056 15.575H108.35V16.589H100.056V15.575ZM103.475 16.056L104.866 16.147C104.753 16.4937 104.628 16.8317 104.489 17.161C104.359 17.4903 104.242 17.772 104.138 18.006L103.124 17.824C103.193 17.564 103.263 17.2693 103.332 16.94C103.401 16.602 103.449 16.3073 103.475 16.056ZM105.698 14.015L106.946 14.301C106.773 14.5957 106.595 14.886 106.413 15.172C106.231 15.4493 106.058 15.6877 105.893 15.887L104.866 15.627C104.961 15.4797 105.061 15.3107 105.165 15.12C105.269 14.9293 105.369 14.7387 105.464 14.548C105.568 14.3487 105.646 14.171 105.698 14.015ZM101.356 14.418L102.331 14.041C102.522 14.2577 102.704 14.5003 102.877 14.769C103.05 15.029 103.172 15.2587 103.241 15.458L102.227 15.887C102.158 15.679 102.041 15.4363 101.876 15.159C101.711 14.8817 101.538 14.6347 101.356 14.418ZM99.484 19.124V23.817H98.288V20.268H96.611V19.124H99.484ZM99.484 23.284C99.7787 23.7347 100.186 24.0727 100.706 24.298C101.235 24.5147 101.859 24.636 102.578 24.662C102.951 24.6793 103.393 24.6923 103.904 24.701C104.415 24.701 104.957 24.6967 105.529 24.688C106.101 24.6707 106.656 24.6533 107.193 24.636C107.73 24.6187 108.203 24.5927 108.61 24.558C108.558 24.6533 108.506 24.779 108.454 24.935C108.402 25.0823 108.354 25.234 108.311 25.39C108.268 25.546 108.233 25.689 108.207 25.819C107.834 25.8363 107.401 25.8493 106.907 25.858C106.422 25.8667 105.915 25.871 105.386 25.871C104.866 25.8797 104.359 25.8797 103.865 25.871C103.371 25.871 102.938 25.8623 102.565 25.845C101.742 25.8103 101.035 25.676 100.446 25.442C99.8653 25.2167 99.3627 24.8483 98.938 24.337C98.6433 24.6057 98.3357 24.8743 98.015 25.143C97.703 25.4117 97.3693 25.689 97.014 25.975L96.39 24.701C96.6933 24.5103 97.0183 24.2893 97.365 24.038C97.7203 23.7867 98.054 23.5353 98.366 23.284H99.484ZM96.689 15.081L97.599 14.34C97.8763 14.5133 98.158 14.717 98.444 14.951C98.7387 15.185 99.0073 15.4233 99.25 15.666C99.4927 15.9087 99.692 16.134 99.848 16.342L98.873 17.148C98.7343 16.94 98.5437 16.7147 98.301 16.472C98.067 16.2207 97.807 15.9737 97.521 15.731C97.2437 15.4883 96.9663 15.2717 96.689 15.081ZM102.188 20.138V21.048H106.166V20.138H102.188ZM102.188 21.906V22.816H106.166V21.906H102.188ZM102.188 18.383V19.293H106.166V18.383H102.188ZM101.018 17.473H107.388V23.739H101.018V17.473ZM118.516 19.124C118.516 19.9647 118.46 20.7187 118.347 21.386C118.234 22.0447 118.039 22.6383 117.762 23.167C117.485 23.687 117.099 24.155 116.605 24.571C116.111 24.9783 115.483 25.3553 114.72 25.702L113.615 24.662C114.222 24.4367 114.75 24.1853 115.201 23.908C115.652 23.6307 116.024 23.2927 116.319 22.894C116.614 22.4867 116.83 21.984 116.969 21.386C117.116 20.788 117.19 20.06 117.19 19.202V15.913C117.19 15.653 117.181 15.4233 117.164 15.224C117.155 15.0247 117.142 14.8773 117.125 14.782H118.594C118.585 14.8773 118.568 15.0247 118.542 15.224C118.525 15.4233 118.516 15.653 118.516 15.913V19.124ZM113.836 14.886C113.827 14.9727 113.81 15.107 113.784 15.289C113.767 15.471 113.758 15.6833 113.758 15.926V20.632C113.758 20.8053 113.762 20.9787 113.771 21.152C113.78 21.3253 113.788 21.477 113.797 21.607C113.806 21.737 113.814 21.8323 113.823 21.893H112.38C112.389 21.8323 112.397 21.737 112.406 21.607C112.415 21.477 112.423 21.3297 112.432 21.165C112.441 20.9917 112.445 20.814 112.445 20.632V15.926C112.445 15.7613 112.436 15.588 112.419 15.406C112.41 15.224 112.393 15.0507 112.367 14.886H113.836ZM109.819 17.317C109.88 17.3343 109.975 17.3517 110.105 17.369C110.244 17.3777 110.404 17.3907 110.586 17.408C110.777 17.4167 110.972 17.421 111.171 17.421H119.738C120.059 17.421 120.323 17.4123 120.531 17.395C120.748 17.3777 120.917 17.3603 121.038 17.343V18.721C120.934 18.7123 120.769 18.7037 120.544 18.695C120.327 18.6863 120.063 18.682 119.751 18.682H111.171C110.972 18.682 110.781 18.6863 110.599 18.695C110.417 18.695 110.257 18.6993 110.118 18.708C109.988 18.7167 109.888 18.7253 109.819 18.734V17.317ZM128.409 17.408C128.47 17.538 128.548 17.733 128.643 17.993C128.738 18.2443 128.838 18.5173 128.942 18.812C129.055 19.098 129.154 19.371 129.241 19.631C129.336 19.891 129.406 20.0903 129.449 20.229L128.227 20.671C128.192 20.515 128.132 20.3113 128.045 20.06C127.958 19.8 127.863 19.5313 127.759 19.254C127.655 18.968 127.551 18.695 127.447 18.435C127.352 18.175 127.265 17.967 127.187 17.811L128.409 17.408ZM133.154 18.24C133.093 18.4047 133.041 18.5477 132.998 18.669C132.963 18.7903 132.933 18.903 132.907 19.007C132.734 19.7003 132.5 20.3807 132.205 21.048C131.919 21.7153 131.546 22.3437 131.087 22.933C130.489 23.6957 129.809 24.3413 129.046 24.87C128.292 25.39 127.547 25.793 126.81 26.079L125.731 24.974C126.216 24.8353 126.719 24.636 127.239 24.376C127.759 24.116 128.257 23.804 128.734 23.44C129.219 23.076 129.64 22.673 129.995 22.231C130.29 21.8583 130.558 21.4337 130.801 20.957C131.044 20.4717 131.243 19.9603 131.399 19.423C131.555 18.877 131.663 18.331 131.724 17.785L133.154 18.24ZM125.38 18.084C125.458 18.2313 125.549 18.435 125.653 18.695C125.766 18.9463 125.878 19.2193 125.991 19.514C126.112 19.8087 126.225 20.0903 126.329 20.359C126.433 20.6277 126.515 20.853 126.576 21.035L125.341 21.49C125.289 21.3253 125.211 21.1043 125.107 20.827C125.003 20.541 124.89 20.2463 124.769 19.943C124.656 19.6397 124.544 19.3623 124.431 19.111C124.327 18.851 124.236 18.656 124.158 18.526L125.38 18.084ZM141.734 14.691C141.725 14.8383 141.712 15.0203 141.695 15.237C141.686 15.445 141.678 15.627 141.669 15.783C141.626 17.1003 141.509 18.2573 141.318 19.254C141.127 20.242 140.859 21.1173 140.512 21.88C140.174 22.634 139.749 23.3013 139.238 23.882C138.735 24.454 138.146 24.9783 137.47 25.455L136.274 24.48C136.508 24.3587 136.759 24.2027 137.028 24.012C137.297 23.8213 137.544 23.6133 137.769 23.388C138.185 22.998 138.549 22.5603 138.861 22.075C139.173 21.5897 139.433 21.048 139.641 20.45C139.858 19.8433 140.022 19.1587 140.135 18.396C140.248 17.6247 140.304 16.7623 140.304 15.809C140.304 15.7137 140.3 15.5967 140.291 15.458C140.291 15.3193 140.282 15.1807 140.265 15.042C140.248 14.9033 140.23 14.7863 140.213 14.691H141.734ZM146.219 17.421C146.202 17.5337 146.184 17.6507 146.167 17.772C146.15 17.8933 146.137 17.9973 146.128 18.084C146.119 18.344 146.106 18.6863 146.089 19.111C146.072 19.5357 146.041 19.9993 145.998 20.502C145.963 21.0047 145.916 21.503 145.855 21.997C145.794 22.491 145.725 22.9503 145.647 23.375C145.569 23.791 145.469 24.129 145.348 24.389C145.218 24.6923 145.032 24.9133 144.789 25.052C144.555 25.1993 144.239 25.273 143.84 25.273C143.493 25.273 143.134 25.2643 142.761 25.247C142.397 25.2297 142.05 25.208 141.721 25.182L141.565 23.817C141.903 23.8603 142.232 23.8993 142.553 23.934C142.882 23.96 143.181 23.973 143.45 23.973C143.649 23.973 143.805 23.9427 143.918 23.882C144.031 23.8127 144.122 23.6957 144.191 23.531C144.278 23.349 144.356 23.0977 144.425 22.777C144.494 22.4477 144.551 22.088 144.594 21.698C144.646 21.2993 144.685 20.892 144.711 20.476C144.746 20.0513 144.767 19.6527 144.776 19.28C144.793 18.8987 144.802 18.565 144.802 18.279H138.172C137.929 18.279 137.665 18.2833 137.379 18.292C137.102 18.3007 136.837 18.3137 136.586 18.331V16.979C136.837 16.9963 137.102 17.0137 137.379 17.031C137.656 17.0483 137.921 17.057 138.172 17.057H144.412C144.585 17.057 144.746 17.0527 144.893 17.044C145.04 17.0267 145.179 17.005 145.309 16.979L146.219 17.421ZM149.261 19.202C149.408 19.2107 149.586 19.2237 149.794 19.241C150.011 19.2497 150.24 19.2583 150.483 19.267C150.734 19.2757 150.973 19.28 151.198 19.28C151.371 19.28 151.61 19.28 151.913 19.28C152.216 19.28 152.559 19.28 152.94 19.28C153.33 19.28 153.737 19.28 154.162 19.28C154.587 19.28 155.007 19.28 155.423 19.28C155.848 19.28 156.246 19.28 156.619 19.28C156.992 19.28 157.321 19.28 157.607 19.28C157.893 19.28 158.114 19.28 158.27 19.28C158.582 19.28 158.864 19.2713 159.115 19.254C159.366 19.228 159.57 19.2107 159.726 19.202V20.814C159.579 20.8053 159.371 20.7923 159.102 20.775C158.833 20.7577 158.556 20.749 158.27 20.749C158.123 20.749 157.902 20.749 157.607 20.749C157.321 20.749 156.992 20.749 156.619 20.749C156.246 20.749 155.848 20.749 155.423 20.749C155.007 20.749 154.587 20.749 154.162 20.749C153.737 20.749 153.33 20.749 152.94 20.749C152.559 20.749 152.216 20.749 151.913 20.749C151.61 20.749 151.371 20.749 151.198 20.749C150.843 20.749 150.487 20.7577 150.132 20.775C149.777 20.7837 149.486 20.7967 149.261 20.814V19.202ZM169.268 20.84H172.687V21.789H169.268V20.84ZM166.161 15.38H171.998V16.381H166.161V15.38ZM164.926 20.84H168.293V21.789H164.926V20.84ZM161.468 17.395H165.615V18.513H161.468V17.395ZM162.989 14.028H164.172V26.092H162.989V14.028ZM167.955 20.84H168.956C168.956 20.84 168.956 20.8963 168.956 21.009C168.956 21.113 168.952 21.1997 168.943 21.269C168.917 22.257 168.887 23.0543 168.852 23.661C168.817 24.259 168.77 24.714 168.709 25.026C168.657 25.338 168.588 25.5547 168.501 25.676C168.406 25.806 168.306 25.897 168.202 25.949C168.098 26.0097 167.972 26.0443 167.825 26.053C167.704 26.079 167.556 26.092 167.383 26.092C167.21 26.092 167.019 26.092 166.811 26.092C166.811 25.9447 166.789 25.7757 166.746 25.585C166.703 25.403 166.642 25.247 166.564 25.117C166.737 25.1343 166.889 25.143 167.019 25.143C167.149 25.1517 167.253 25.156 167.331 25.156C167.4 25.156 167.457 25.1473 167.5 25.13C167.552 25.1127 167.595 25.0737 167.63 25.013C167.691 24.935 167.738 24.7617 167.773 24.493C167.816 24.2243 167.851 23.8127 167.877 23.258C167.912 22.6947 167.938 21.9493 167.955 21.022V20.84ZM172.336 20.84H173.363C173.363 20.84 173.363 20.8963 173.363 21.009C173.363 21.113 173.363 21.204 173.363 21.282C173.337 22.2613 173.302 23.0543 173.259 23.661C173.224 24.259 173.181 24.714 173.129 25.026C173.077 25.338 173.003 25.5547 172.908 25.676C172.821 25.7973 172.722 25.884 172.609 25.936C172.496 25.9967 172.366 26.0357 172.219 26.053C172.098 26.079 171.942 26.092 171.751 26.092C171.56 26.092 171.357 26.092 171.14 26.092C171.131 25.936 171.101 25.7627 171.049 25.572C171.006 25.3813 170.949 25.221 170.88 25.091C171.062 25.1083 171.222 25.117 171.361 25.117C171.508 25.1257 171.621 25.13 171.699 25.13C171.777 25.13 171.838 25.117 171.881 25.091C171.933 25.0737 171.981 25.039 172.024 24.987C172.076 24.909 172.119 24.7357 172.154 24.467C172.197 24.1983 172.232 23.7867 172.258 23.232C172.284 22.6773 172.31 21.9407 172.336 21.022V20.84ZM171.777 15.38H172.908C172.908 15.38 172.904 15.4363 172.895 15.549C172.886 15.6617 172.878 15.757 172.869 15.835C172.817 16.4677 172.761 16.992 172.7 17.408C172.639 17.8153 172.57 18.136 172.492 18.37C172.423 18.5953 172.332 18.7687 172.219 18.89C172.106 19.0113 171.981 19.098 171.842 19.15C171.712 19.202 171.556 19.2323 171.374 19.241C171.235 19.2583 171.036 19.2713 170.776 19.28C170.525 19.28 170.256 19.2713 169.97 19.254C169.961 19.0893 169.927 18.9117 169.866 18.721C169.814 18.5303 169.74 18.3613 169.645 18.214C169.914 18.24 170.161 18.2573 170.386 18.266C170.62 18.2747 170.785 18.279 170.88 18.279C170.984 18.279 171.066 18.2747 171.127 18.266C171.188 18.2487 171.244 18.214 171.296 18.162C171.4 18.058 171.491 17.811 171.569 17.421C171.647 17.031 171.716 16.4027 171.777 15.536V15.38ZM168.722 14.028H169.879C169.827 14.6953 169.736 15.3107 169.606 15.874C169.476 16.4287 169.277 16.9357 169.008 17.395C168.748 17.8457 168.393 18.2487 167.942 18.604C167.491 18.9507 166.924 19.254 166.239 19.514C166.187 19.384 166.096 19.2367 165.966 19.072C165.845 18.8987 165.728 18.76 165.615 18.656C166.239 18.4393 166.746 18.188 167.136 17.902C167.526 17.6073 167.829 17.2693 168.046 16.888C168.271 16.498 168.432 16.0647 168.527 15.588C168.622 15.1113 168.687 14.5913 168.722 14.028ZM166.174 19.553H167.227C167.21 20.515 167.145 21.4077 167.032 22.231C166.919 23.0457 166.72 23.7823 166.434 24.441C166.157 25.091 165.754 25.6543 165.225 26.131C165.156 26.0097 165.056 25.871 164.926 25.715C164.796 25.5677 164.67 25.4507 164.549 25.364C165.008 24.9567 165.351 24.467 165.576 23.895C165.81 23.3143 165.962 22.66 166.031 21.932C166.109 21.204 166.157 20.411 166.174 19.553ZM170.464 19.514H171.543C171.517 20.4933 171.443 21.3947 171.322 22.218C171.209 23.0327 171.006 23.765 170.711 24.415C170.425 25.0563 170.005 25.611 169.45 26.079C169.381 25.949 169.277 25.806 169.138 25.65C169.008 25.5027 168.882 25.3857 168.761 25.299C169.246 24.9003 169.606 24.4193 169.84 23.856C170.074 23.2927 170.23 22.647 170.308 21.919C170.395 21.1823 170.447 20.3807 170.464 19.514ZM175.235 24.454C176.006 24.4367 176.895 24.4107 177.9 24.376C178.914 24.3413 179.984 24.3023 181.111 24.259C182.246 24.2157 183.373 24.1723 184.491 24.129L184.439 25.247C183.364 25.3077 182.277 25.364 181.176 25.416C180.084 25.468 179.04 25.5157 178.043 25.559C177.055 25.6023 176.175 25.637 175.404 25.663L175.235 24.454ZM175.144 20.502H185.934V21.659H175.144V20.502ZM177.406 18.006H183.568V19.15H177.406V18.006ZM178.537 21.256L179.928 21.633C179.729 22.049 179.516 22.478 179.291 22.92C179.074 23.3533 178.853 23.7737 178.628 24.181C178.403 24.5797 178.19 24.9393 177.991 25.26L176.899 24.896C177.098 24.558 177.302 24.181 177.51 23.765C177.718 23.3403 177.913 22.907 178.095 22.465C178.277 22.023 178.424 21.62 178.537 21.256ZM181.696 22.608L182.762 22.049C183.161 22.3783 183.555 22.7423 183.945 23.141C184.335 23.5397 184.69 23.9383 185.011 24.337C185.34 24.7357 185.605 25.0997 185.804 25.429L184.673 26.118C184.482 25.7887 184.227 25.416 183.906 25C183.585 24.5927 183.23 24.181 182.84 23.765C182.459 23.3403 182.077 22.9547 181.696 22.608ZM180.461 15.224C180.114 15.7353 179.664 16.2597 179.109 16.797C178.554 17.3257 177.935 17.8327 177.25 18.318C176.574 18.7947 175.868 19.215 175.131 19.579C175.088 19.475 175.023 19.3623 174.936 19.241C174.858 19.111 174.771 18.9897 174.676 18.877C174.581 18.7557 174.49 18.6473 174.403 18.552C175.157 18.214 175.881 17.7937 176.574 17.291C177.267 16.7883 177.891 16.2553 178.446 15.692C179.001 15.1287 179.443 14.5783 179.772 14.041H181.046C181.393 14.5263 181.783 14.9857 182.216 15.419C182.649 15.8523 183.113 16.2553 183.607 16.628C184.101 17.0007 184.604 17.3343 185.115 17.629C185.635 17.9237 186.155 18.1707 186.675 18.37C186.528 18.526 186.385 18.708 186.246 18.916C186.116 19.1153 185.995 19.306 185.882 19.488C185.215 19.1673 184.539 18.7773 183.854 18.318C183.169 17.8587 182.532 17.3647 181.943 16.836C181.354 16.2987 180.86 15.7613 180.461 15.224Z" fill="#FAFAFC"/>
</svg>
