<svg width="199" height="38" viewBox="0 0 199 38" fill="none" xmlns="http://www.w3.org/2000/svg">
<rect x="0.5" y="0.5" width="198" height="36.1673" fill="white" stroke="black"/>
<mask id="mask0_361_648" style="mask-type:luminance" maskUnits="userSpaceOnUse" x="8" y="3" width="30" height="29">
<path d="M8.51758 3.87109H37.8602V31.7466H8.51758V3.87109Z" fill="white"/>
</mask>
<g mask="url(#mask0_361_648)">
<path d="M27.1208 3.87111C27.1208 3.87111 37.5425 6.02559 37.8528 16.9697C38.2394 30.6462 23.5608 31.7466 23.5608 31.7466V14.8937L27.7986 13.0165V17.5492C27.7986 17.5492 30.6976 15.9236 29.6457 11.7804C28.5938 7.63723 24.1513 6.24052 24.1513 6.24052C24.1513 6.24052 30.0866 6.82738 31.6564 11.9865C33.849 19.1887 27.7047 22.8837 27.7047 22.8837L27.7282 25.9969C27.7282 25.9969 34.667 23.4294 35.1372 16.9697C35.9089 6.48113 27.1208 3.87111 27.1208 3.87111Z" fill="#CF220E"/>
<path d="M19.2571 3.87109C19.2571 3.87109 8.83465 6.02558 8.52508 16.9696C8.13849 30.6462 22.8171 31.7466 22.8171 31.7466V14.8936L18.5793 13.0165V17.5492C18.5793 17.5492 15.6803 15.9243 16.7337 11.7804C17.7871 7.63648 22.2281 6.24051 22.2281 6.24051C22.2281 6.24051 16.2928 6.82736 14.723 11.9865C12.5303 19.1887 18.6747 22.8836 18.6747 22.8836L18.6512 25.9969C18.6512 25.9969 11.7124 23.4294 11.2422 16.9696C10.4683 6.48112 19.2571 3.87109 19.2571 3.87109Z" fill="#CF220E"/>
</g>
<path d="M55.6421 15.6518C55.9531 15.8774 56.3007 16.0476 56.6696 16.1551C56.7675 16.1771 56.8615 16.2139 56.9484 16.2642C56.9692 16.2856 56.985 16.3113 56.9944 16.3397C57.0038 16.368 57.0066 16.3981 57.0026 16.4276C57.0026 16.4684 56.9979 16.5365 56.9886 16.632C56.9205 17.8162 56.6415 18.5906 56.1516 18.955C55.5016 19.3264 54.753 19.4886 54.0075 19.4196C53.4897 19.4326 52.9718 19.4031 52.4589 19.3313C52.211 19.2948 51.9736 19.2067 51.762 19.0727C51.5974 18.971 51.4706 18.8181 51.4011 18.6375C51.3213 18.3777 51.2868 18.1061 51.2989 17.8346V9.6353C51.3121 8.88588 51.285 8.13628 51.2176 7.38978C51.7757 7.4032 52.2635 7.43495 52.6811 7.48502C52.8582 7.50309 52.9467 7.5689 52.9467 7.68247C52.933 7.78165 52.8982 7.87673 52.8445 7.96123C52.7622 8.5061 52.7349 9.05787 52.7632 9.6082V11.657C53.5202 11.1655 54.2372 10.6148 54.9073 10.0101C55.1712 9.78183 55.4026 9.51842 55.5949 9.22724C55.9529 9.53952 56.2892 9.87584 56.6015 10.2339C56.6701 10.3054 56.7091 10.4003 56.7107 10.4994C56.7107 10.5583 56.6404 10.6128 56.5 10.6628C56.2573 10.786 56.0329 10.9423 55.8333 11.1274C54.8686 11.8979 53.842 12.5876 52.7639 13.1894V17.0757C52.7639 17.5341 52.8251 17.8085 52.9475 17.8988C53.2356 18.0277 53.5524 18.0792 53.8666 18.0483C54.3526 18.101 54.8424 17.9921 55.2604 17.7386C55.4875 17.5403 55.6147 16.8447 55.6421 15.6518ZM47.9763 7.37661C48.5617 7.39004 49.0676 7.42178 49.494 7.47186C49.6437 7.48992 49.7185 7.54154 49.7185 7.62672C49.7082 7.72373 49.6807 7.81813 49.6372 7.90547C49.5498 8.41674 49.5202 8.93622 49.549 9.45411V17.2027L49.5761 19.5303C49.5761 19.6072 49.567 19.6527 49.549 19.6666C49.5108 19.6843 49.4685 19.6912 49.4266 19.6867H48.2102C48.1374 19.6867 48.0943 19.6777 48.0809 19.6596C48.063 19.619 48.056 19.5744 48.0607 19.5303L48.0878 17.2027V16.4114C47.5391 16.7288 46.7679 17.1325 45.7742 17.6224C45.6266 17.6846 45.4872 17.7647 45.3591 17.8609C45.3018 17.9278 45.2219 17.9713 45.1346 17.9832C45.0757 17.9832 45.0146 17.9221 44.9511 17.7997C44.7602 17.3385 44.612 16.8609 44.5082 16.3727C44.9163 16.2869 45.3168 16.1685 45.706 16.0188C46.5275 15.7086 47.3237 15.3356 48.0878 14.903V11.8832H46.6251L44.8558 11.9103C44.7743 11.9103 44.7265 11.9012 44.7126 11.8832C44.6891 11.8444 44.6796 11.7988 44.6855 11.7538V10.6512C44.6855 10.5784 44.6968 10.5353 44.7195 10.5219C44.7625 10.5037 44.8094 10.4968 44.8558 10.5018L46.6251 10.5289H48.0886V9.49438C48.093 8.78669 48.0565 8.07933 47.9794 7.37584L47.9763 7.37661ZM61.7089 11.0647C62.6226 10.2294 63.3248 9.18912 63.7577 8.02936C63.8941 7.69002 63.9789 7.3322 64.0094 6.96777C64.4678 7.03127 64.9079 7.11076 65.3296 7.20626C65.4974 7.24704 65.5812 7.31725 65.5812 7.41688C65.5721 7.50898 65.5284 7.59419 65.4589 7.65537C65.3208 7.78783 65.2119 7.94765 65.1391 8.12461C65.0859 8.27313 65.0246 8.41866 64.9556 8.56055H69.5287L71.3522 8.54661C71.3987 8.54047 71.4459 8.54745 71.4885 8.56674C71.5069 8.60221 71.514 8.6425 71.5087 8.68212V9.68873C71.5087 9.76565 71.4973 9.81339 71.4746 9.83198C71.4367 9.85068 71.3941 9.85768 71.3522 9.85211L69.528 9.82966H64.34C64.1903 10.0929 64.0096 10.3768 63.798 10.6814L65.5541 10.7085H68.6096L70.3588 10.6814C70.382 10.678 70.4056 10.6801 70.4278 10.6875C70.45 10.6948 70.4702 10.7073 70.4867 10.7238C70.5033 10.7404 70.5157 10.7606 70.5231 10.7828C70.5305 10.805 70.5325 10.8286 70.5291 10.8518C70.4971 11.3189 70.4744 11.7136 70.461 12.0357L70.3929 13.5944L71.5768 13.5673C71.6262 13.5607 71.6764 13.5702 71.7201 13.5944C71.7377 13.6326 71.7447 13.6749 71.7402 13.7167V14.697C71.746 14.7406 71.7375 14.7848 71.7162 14.8232C71.6732 14.8451 71.6246 14.8535 71.5768 14.8472L71.4134 14.8403C71.0867 14.831 70.7168 14.8243 70.3038 14.8201C70.2765 15.2646 70.2266 15.8657 70.1544 16.6235L71.1548 16.5964C71.2062 16.5896 71.2585 16.5991 71.3042 16.6235C71.3219 16.6617 71.3289 16.704 71.3244 16.7459V17.6851C71.3244 17.7533 71.3153 17.7953 71.2973 17.8113C71.2528 17.8329 71.2031 17.8412 71.154 17.8353L70.9992 17.8284C70.6946 17.8129 70.3699 17.8051 70.0251 17.8051L69.998 18.1149C69.971 18.6131 69.7599 19.0836 69.4056 19.4351C69.0462 19.6986 68.6051 19.8264 68.1605 19.7959C67.7795 19.7959 67.5323 19.7913 67.4187 19.782C67.3051 19.7727 67.2349 19.7456 67.2081 19.7007C67.1535 19.583 67.1122 19.4597 67.085 19.3329C66.9933 19.0109 66.8534 18.7046 66.6699 18.4246C67.1036 18.4704 67.5394 18.4921 67.9754 18.4896C68.3972 18.4896 68.6308 18.2604 68.6762 17.802H64.0086C63.9405 18.1061 63.8793 18.3642 63.8251 18.5764C63.7977 18.7261 63.7275 18.8009 63.6145 18.8009C63.4321 18.7867 63.251 18.7596 63.0725 18.7196C62.8823 18.6916 62.6939 18.653 62.508 18.6042C62.4264 18.5769 62.3856 18.5405 62.3856 18.4951C62.3902 18.4482 62.4017 18.4023 62.4197 18.3588C62.555 17.9989 62.6664 17.6306 62.7534 17.2561C62.9486 16.4302 63.1119 15.6159 63.2436 14.8132C62.9122 14.8178 62.6104 14.8245 62.3384 14.8333L62.0596 14.8403C62.0125 14.8466 61.9645 14.837 61.9234 14.8132C61.9057 14.775 61.8987 14.7327 61.9032 14.6908V13.7121C61.9032 13.6393 61.9146 13.5962 61.9373 13.5828C61.9752 13.5641 62.0178 13.5571 62.0596 13.5626L63.4139 13.5897C63.4681 13.1995 63.5316 12.6141 63.6044 11.8336C63.6318 11.5388 63.6455 11.2291 63.6455 10.9044C63.4637 11.1584 63.2459 11.4351 62.9919 11.7345C62.8696 11.8842 62.7767 11.959 62.7132 11.959C62.659 11.959 62.566 11.8795 62.4344 11.7205C62.2291 11.4647 61.9841 11.2433 61.7089 11.0647ZM68.9875 14.8147H67.3506C67.2597 15.6179 67.1849 16.2191 67.126 16.6181H68.8295C68.8796 16.2139 68.9304 15.6128 68.9821 14.8147H68.9875ZM64.2587 16.6181H65.8074C65.8708 16.2191 65.9503 15.6179 66.0458 14.8147H64.553C64.4667 15.3996 64.3687 16.0007 64.2587 16.6181ZM69.1369 11.8878H67.5883L67.4659 13.5913H69.0649C69.1016 12.8098 69.1256 12.2419 69.1369 11.8878ZM64.8782 11.8878C64.8374 12.4365 64.7806 13.0044 64.7078 13.5913H66.1713C66.2074 13.2191 66.2459 12.6513 66.2867 11.8878H64.8782ZM58.9051 18.9178C59.1416 18.5762 59.351 18.2166 59.5315 17.8423C60.049 16.7579 60.4506 15.6219 60.7294 14.4531C60.9657 14.6955 61.223 14.9166 61.4983 15.1136C61.7048 15.2452 61.808 15.3632 61.808 15.4675C61.8002 15.5723 61.7821 15.676 61.7538 15.7772C61.4437 16.8654 61.0649 17.9327 60.6194 18.9728C60.5264 19.1464 60.4663 19.3357 60.4421 19.5311C60.4421 19.6808 60.3943 19.7557 60.2988 19.7557C60.1888 19.7426 60.083 19.7053 59.9891 19.6465C59.6124 19.4273 59.2503 19.1839 58.9051 18.9178ZM59.8343 10.8053C60.5506 11.212 61.2249 11.6884 61.8475 12.2277C61.882 12.2598 61.9037 12.3032 61.9087 12.3501C61.8983 12.4063 61.875 12.4593 61.8405 12.5049L61.2048 13.3373C61.1367 13.4328 61.0868 13.4806 61.0554 13.4806C61.0074 13.4685 60.9631 13.4451 60.926 13.4124C60.3378 12.8191 59.677 12.3024 58.9593 11.8746C58.8958 11.8385 58.864 11.8021 58.864 11.7655C58.877 11.7076 58.905 11.6541 58.9453 11.6106L59.5578 10.8758C59.6167 10.803 59.6683 10.7666 59.7127 10.7666C59.7568 10.7695 59.7996 10.783 59.8374 10.8061L59.8343 10.8053ZM60.4328 7.32086C61.1212 7.7276 61.7626 8.20904 62.3454 8.75645C62.366 8.76881 62.3836 8.78555 62.397 8.8055C62.4103 8.82544 62.4192 8.84808 62.4228 8.87182C62.4095 8.93766 62.379 8.99881 62.3345 9.04914L61.722 9.86605C61.6586 9.94761 61.6108 9.98839 61.5788 9.98839C61.5331 9.97989 61.4907 9.95869 61.4565 9.92722C60.8943 9.31259 60.2475 8.78122 59.5354 8.34916C59.4719 8.31715 59.4401 8.28541 59.4401 8.25392C59.4566 8.1959 59.4868 8.14275 59.5284 8.09905L60.1548 7.39133C60.2183 7.31441 60.2699 7.27595 60.3097 7.27595C60.3548 7.28082 60.3981 7.2965 60.4359 7.32164L60.4328 7.32086ZM79.4601 10.0232L77.4523 10.0503C77.3796 10.0503 77.3364 10.039 77.323 10.0163C77.3051 9.97566 77.2982 9.93108 77.3029 9.88696V8.98178C77.2961 8.93035 77.3055 8.87808 77.33 8.83233C77.3682 8.81466 77.4105 8.8077 77.4523 8.8122L79.4601 8.8393H79.615C79.4271 8.38529 79.1848 7.95575 78.8933 7.56013C78.8643 7.53027 78.8454 7.4921 78.8391 7.45095C78.8391 7.39933 78.8982 7.35622 79.0165 7.32164L79.9627 7.06998C80.0066 7.0547 80.0525 7.04558 80.099 7.04288C80.1581 7.05223 80.2125 7.08081 80.2538 7.12419C80.5419 7.48649 80.7821 7.88442 80.9685 8.30812C80.9844 8.34001 80.9936 8.37478 80.9956 8.41033C80.9956 8.46195 80.944 8.50738 80.8408 8.54661L80.0177 8.8393H82.2229C82.4269 8.48369 82.6079 8.11539 82.7649 7.73667C82.8604 7.50169 82.9401 7.2606 83.0034 7.01501C83.4537 7.09267 83.8991 7.19608 84.3376 7.32473C84.4599 7.37016 84.5211 7.43366 84.5211 7.51522C84.516 7.56027 84.5011 7.60368 84.4776 7.64245C84.4541 7.68122 84.4224 7.71442 84.3848 7.73977C84.2813 7.81292 84.1954 7.90813 84.1332 8.01852C83.9019 8.39071 83.7248 8.66508 83.602 8.84162H84.0441L85.9567 8.81452C86.0382 8.81452 86.0881 8.82588 86.1061 8.8486C86.1243 8.89158 86.1312 8.93848 86.1263 8.98487V9.89005C86.1263 9.96697 86.1149 10.0147 86.0922 10.0333C86.0492 10.0515 86.0023 10.0584 85.9559 10.0534L84.0433 10.0263H82.2098C82.1235 10.253 82.0033 10.5229 81.8489 10.8363H83.1691L84.9253 10.8092C84.9767 10.8023 85.029 10.8118 85.0747 10.8363C85.0926 10.8769 85.0996 10.9215 85.0949 10.9656L85.0678 12.4763V15.7904L85.0949 17.2399C85.1014 17.2893 85.0919 17.3395 85.0678 17.3831C85.0242 17.4073 84.9739 17.4168 84.9245 17.4102L83.1684 17.3831H80.1872L78.4179 17.4102C78.3363 17.4102 78.2865 17.3989 78.2685 17.3762C78.2503 17.3332 78.2434 17.2863 78.2483 17.2399L78.2739 15.7873V12.4732L78.2468 10.9625C78.2468 10.8856 78.2581 10.8401 78.2809 10.8262C78.3238 10.808 78.3707 10.8011 78.4171 10.8061L80.1865 10.8332H80.4652C80.5607 10.6267 80.6673 10.3567 80.785 10.0232H79.4601ZM83.7274 16.2774V15.4404H79.6166V16.2774H83.7274ZM79.6166 11.9087V12.6946H83.7274V11.9048L79.6166 11.9087ZM79.6166 14.464H83.7274V13.685H79.6166V14.464ZM86.6365 17.8431C86.4287 18.1764 86.3017 18.5538 86.2656 18.9449C86.2383 19.1762 86.1975 19.3102 86.1433 19.3468C86.0187 19.3998 85.8835 19.4231 85.7484 19.415C83.9881 19.5012 82.3638 19.5443 80.8756 19.5443C79.7777 19.6253 78.6743 19.4984 77.6235 19.1703C77.0324 18.8874 76.5308 18.4469 76.1739 17.8973C75.7563 18.301 75.2868 18.7139 74.7654 19.1362C74.6607 19.2165 74.567 19.3102 74.4867 19.415C74.4647 19.4506 74.4348 19.4808 74.3994 19.5032C74.364 19.5256 74.3239 19.5397 74.2823 19.5443C74.2054 19.5443 74.1395 19.4875 74.0848 19.3739C73.8692 18.9497 73.6779 18.5136 73.5118 18.0676C73.7948 17.9394 74.0697 17.7941 74.3349 17.6325C74.7732 17.3714 75.1848 17.068 75.5638 16.7265V13.644H74.8831L73.8603 13.678C73.7787 13.678 73.731 13.6667 73.717 13.644C73.6989 13.601 73.6919 13.5541 73.6969 13.5077V12.4461C73.6969 12.3733 73.7059 12.3302 73.724 12.3168C73.767 12.2986 73.8139 12.2917 73.8603 12.2966L74.8808 12.3237H75.7589L76.8027 12.2966C76.8796 12.2966 76.925 12.3057 76.939 12.3237C76.9566 12.3619 76.9636 12.4042 76.9591 12.4461L76.932 13.7733V16.7265C77.1604 17.2458 77.5723 17.6627 78.0888 17.8973C78.9242 18.1228 79.7903 18.2124 80.6541 18.1629C82.6524 18.156 84.649 18.0493 86.6365 17.8431ZM75.1859 7.51212C75.8513 8.13019 76.4347 8.83098 76.9219 9.59736C76.9512 9.62422 76.9703 9.6603 76.9761 9.69957C76.9761 9.73158 76.9307 9.77932 76.8398 9.84282L76.05 10.5165C76.0037 10.5641 75.9445 10.5972 75.8797 10.6117C75.8436 10.6117 75.8028 10.5753 75.7573 10.5025C75.2963 9.69919 74.7227 8.96596 74.0538 8.32515C74.0084 8.28437 73.9857 8.2503 73.9857 8.22294C73.9857 8.19558 74.0311 8.14577 74.122 8.0735L74.8777 7.53148C74.9256 7.49276 74.9814 7.46501 75.0411 7.45017C75.0941 7.45736 75.1441 7.47876 75.1859 7.51212ZM93.6658 7.05604C94.2853 7.06947 94.8015 7.10121 95.2144 7.15129C95.3734 7.16935 95.4529 7.22614 95.4529 7.32164C95.4514 7.41849 95.4281 7.51375 95.3848 7.60039C95.2843 7.96565 95.2453 8.34509 95.2694 8.72315V9.77158H97.971L99.8627 9.74448C99.9396 9.74448 99.985 9.75351 99.999 9.77158C100.017 9.81219 100.024 9.85677 100.019 9.90089L99.992 11.6292V13.2421L100.019 15.9646C100.024 16.0091 100.016 16.0542 99.9951 16.0939C99.9791 16.112 99.937 16.121 99.8689 16.121H98.6818C98.6049 16.121 98.5595 16.1096 98.5456 16.0869C98.5269 16.049 98.5199 16.0065 98.5254 15.9646V15.3792H95.2655V17.0943L95.2926 19.6736C95.2926 19.7464 95.2836 19.7895 95.2655 19.8029C95.2273 19.8206 95.1851 19.8275 95.1432 19.823H93.8973C93.8245 19.823 93.7814 19.814 93.768 19.7959C93.7503 19.7577 93.7434 19.7154 93.7479 19.6736L93.775 17.1183V15.3761H90.6916V16.0157C90.6985 16.0671 90.689 16.1194 90.6645 16.1651C90.6239 16.183 90.5793 16.19 90.5352 16.1853H89.3513C89.2785 16.1853 89.2354 16.1739 89.222 16.1512C89.2038 16.1082 89.1969 16.0613 89.2019 16.0149L89.229 13.2862V11.8537L89.2019 9.90089C89.2019 9.82398 89.2109 9.77855 89.229 9.76461C89.2696 9.74672 89.3141 9.73978 89.3583 9.74448L91.2499 9.77158H93.775V8.8424C93.7848 8.24502 93.7483 7.64778 93.6658 7.05604ZM98.5247 11.1259H95.2648V14.0249H98.5247V11.1259ZM90.6916 11.1259V14.0249H93.7742V11.1259H90.6916ZM104.939 16.1419L103.197 16.169C103.124 16.169 103.081 16.16 103.068 16.1419C103.05 16.1037 103.043 16.0614 103.047 16.0196V14.9402C103.047 14.8632 103.056 14.8178 103.075 14.8039C103.113 14.7862 103.155 14.7793 103.197 14.7837L104.939 14.8108H108.607C108.589 14.289 108.562 13.8943 108.526 13.6269L109.336 13.7082C109.787 13.4132 110.21 13.0784 110.602 12.7078H107.593L105.789 12.7349C105.69 12.7349 105.64 12.6895 105.64 12.5986V11.6222C105.64 11.5494 105.649 11.5063 105.667 11.4929C105.705 11.4752 105.747 11.4683 105.789 11.4728L107.593 11.4999H111.37C111.482 11.5072 111.594 11.4981 111.704 11.4728C111.76 11.4477 111.819 11.4295 111.879 11.4186C111.97 11.4186 112.172 11.5659 112.485 11.8607C112.743 12.1327 112.872 12.3323 112.872 12.4592C112.873 12.5105 112.857 12.5606 112.826 12.6014C112.795 12.6423 112.751 12.6713 112.702 12.6838C112.463 12.814 112.24 12.9697 112.035 13.1484C111.419 13.6753 110.767 14.1574 110.082 14.5909V14.8155H113.567L115.309 14.7884C115.356 14.7821 115.404 14.7916 115.445 14.8155C115.463 14.8561 115.47 14.9007 115.465 14.9448V16.0203C115.471 16.0639 115.463 16.1082 115.441 16.1466C115.401 16.1681 115.354 16.1765 115.309 16.1706L113.567 16.1435H110.082V17.0463L110.109 18.2573C110.135 18.4695 110.108 18.6846 110.031 18.8839C109.954 19.0833 109.83 19.2608 109.669 19.401C109.432 19.5354 109.17 19.6188 108.9 19.6457C108.445 19.6943 107.988 19.7147 107.532 19.7069C107.395 19.723 107.257 19.7044 107.13 19.6527C107.058 19.5484 107.009 19.4302 106.986 19.3058C106.896 18.9482 106.756 18.6049 106.572 18.2852C107.126 18.3394 107.622 18.3665 108.063 18.3665C108.216 18.3834 108.371 18.3447 108.499 18.2573C108.582 18.1516 108.621 18.0175 108.608 17.8833V16.1411L104.939 16.1419ZM104.973 7.53303L105.81 7.2233C105.857 7.20032 105.908 7.1864 105.96 7.18226C106.011 7.18226 106.063 7.21865 106.115 7.29144C106.467 7.74613 106.778 8.23122 107.044 8.74096C107.063 8.777 107.077 8.81595 107.085 8.85634C107.085 8.88834 107.028 8.92473 106.914 8.96552L105.995 9.29925H108.894C108.689 8.69295 108.422 8.10919 108.098 7.55703C108.077 7.52674 108.063 7.49169 108.057 7.45482C108.057 7.42281 108.114 7.38642 108.228 7.34564L109.147 7.06689C109.188 7.05218 109.232 7.04307 109.276 7.03978C109.33 7.03978 109.38 7.07618 109.426 7.14896C109.734 7.66258 109.992 8.20512 110.194 8.76884C110.205 8.79964 110.212 8.83163 110.215 8.86408C110.215 8.90021 110.155 8.93867 110.037 8.97945L109.132 9.29925H111.282C111.54 8.8454 111.769 8.37604 111.969 7.89386C112.059 7.65512 112.13 7.40934 112.18 7.15903C112.651 7.24871 113.112 7.38782 113.554 7.57407C113.686 7.63291 113.752 7.70312 113.752 7.78468C113.748 7.82833 113.734 7.87044 113.71 7.9072C113.686 7.94397 113.654 7.97424 113.615 7.99529C113.501 8.07697 113.409 8.1872 113.35 8.31509C113.155 8.67644 112.964 9.00526 112.778 9.30157H113.139L114.977 9.27447C115.028 9.26764 115.08 9.27712 115.126 9.30157C115.144 9.33977 115.151 9.38206 115.146 9.42391L115.119 10.1796V10.8192L115.146 12.3779C115.146 12.4595 115.135 12.5093 115.112 12.5274C115.069 12.5457 115.023 12.5529 114.977 12.5483H113.881C113.804 12.5483 113.759 12.5369 113.745 12.5142C113.726 12.4712 113.72 12.4243 113.725 12.3779V10.5405H104.803V12.3779C104.803 12.4549 104.794 12.5003 104.776 12.5142C104.738 12.5319 104.695 12.5388 104.653 12.5344H103.551C103.499 12.5412 103.447 12.5317 103.401 12.5073C103.383 12.4666 103.376 12.4221 103.381 12.3779L103.408 10.8061V10.2888L103.381 9.42469C103.381 9.3519 103.393 9.3088 103.415 9.29538C103.458 9.27721 103.505 9.27028 103.552 9.27524L105.389 9.30234H105.762C105.532 8.74753 105.232 8.22386 104.871 7.74364C104.846 7.7117 104.83 7.67422 104.823 7.63446C104.823 7.59833 104.873 7.56426 104.972 7.53225L104.973 7.53303ZM118.229 16.6313C118.143 16.7717 118.068 16.8419 118.004 16.8419C117.953 16.8419 117.903 16.7624 117.855 16.6034C117.742 16.236 117.581 15.8851 117.377 15.5596C118.362 14.2467 119.073 12.7492 119.468 11.1561H119.229L117.882 11.1832C117.809 11.1832 117.764 11.1718 117.746 11.1491C117.728 11.1085 117.721 11.0639 117.725 11.0198V10.0232C117.725 9.93238 117.777 9.88696 117.88 9.88696L119.228 9.91406H119.545V8.98487C119.557 8.34551 119.52 7.70616 119.436 7.07231C119.971 7.08573 120.436 7.11747 120.83 7.16755C120.989 7.18561 121.068 7.23337 121.068 7.3108C121.061 7.41833 121.034 7.52352 120.987 7.62052C120.887 8.0599 120.853 8.51149 120.885 8.96087V9.92025L122.11 9.89315C122.213 9.89315 122.265 9.93858 122.265 10.0294V11.0229C122.271 11.0723 122.262 11.1225 122.237 11.1661C122.197 11.184 122.152 11.191 122.108 11.1863L120.924 11.1592C121.278 12.1202 121.799 13.0114 122.462 13.7918C122.252 14.0681 122.083 14.3729 121.959 14.697C121.886 14.8648 121.829 14.9487 121.788 14.9487C121.737 14.9487 121.673 14.8738 121.598 14.7241C121.287 14.171 121.033 13.5871 120.842 12.9819C120.847 14.5424 120.865 16.16 120.896 17.8346L120.93 19.2369C120.935 19.495 120.937 19.6403 120.937 19.6728C120.944 19.7242 120.935 19.7765 120.91 19.8222C120.867 19.8404 120.82 19.8473 120.774 19.8424H119.648C119.571 19.8424 119.526 19.8333 119.512 19.8153C119.494 19.7697 119.487 19.7207 119.492 19.672L119.512 18.7126C119.557 16.8976 119.584 15.2032 119.593 13.6292C119.282 14.6892 118.823 15.6999 118.229 16.6313ZM130.394 18.3603C130.139 18.6598 129.924 18.9914 129.754 19.3468C129.646 19.5693 129.553 19.6805 129.476 19.6805C129.364 19.661 129.256 19.6242 129.156 19.5714C128.007 19.0817 126.954 18.3928 126.046 17.5365C125.072 18.458 123.931 19.1836 122.683 19.6736C122.579 19.7284 122.466 19.7653 122.35 19.7828C122.282 19.7828 122.189 19.6715 122.071 19.449C121.905 19.1291 121.678 18.8448 121.403 18.612C122.796 18.2033 124.071 17.471 125.126 16.4749C124.567 15.6871 124.116 14.8277 123.786 13.9196C123.771 13.8899 123.762 13.8576 123.759 13.8244C123.759 13.7882 123.82 13.7384 123.942 13.6749L124.745 13.2258C124.787 13.201 124.834 13.1847 124.882 13.1778C124.927 13.1778 124.966 13.2256 124.997 13.3211C125.246 14.0415 125.589 14.7258 126.018 15.356C126.239 15.0116 126.43 14.6489 126.589 14.2719C126.755 13.8889 126.871 13.4864 126.936 13.0741C127.361 13.2311 127.771 13.427 128.161 13.6594C128.293 13.7364 128.358 13.8045 128.358 13.8639C128.352 13.9183 128.336 13.971 128.309 14.0188C128.282 14.0667 128.247 14.1088 128.204 14.1426C128.064 14.3181 127.956 14.5161 127.884 14.728C127.634 15.3346 127.323 15.9138 126.955 16.4563C127.952 17.3288 129.125 17.978 130.394 18.3603ZM124.385 10.2478L122.533 10.2749C122.486 10.2812 122.438 10.2716 122.397 10.2478C122.379 10.2096 122.372 10.1673 122.377 10.1254V9.06386C122.37 9.01668 122.38 8.96876 122.404 8.92757C122.444 8.90968 122.489 8.90274 122.533 8.90744L124.385 8.94151H125.275V8.53345C125.282 8.03951 125.25 7.54578 125.18 7.05682C125.793 7.07489 126.298 7.10663 126.697 7.15206C126.856 7.17013 126.936 7.21788 126.936 7.29531C126.926 7.39688 126.899 7.49594 126.855 7.588C126.755 7.89283 126.716 8.2143 126.739 8.53422V8.94229H128.025L129.863 8.90822C129.944 8.90822 129.992 8.91725 130.006 8.93532C130.03 8.9741 130.039 9.0197 130.033 9.06463V10.1262C130.033 10.199 130.022 10.2421 129.999 10.2555C129.956 10.2737 129.909 10.2806 129.863 10.2757L128.025 10.2486L124.385 10.2478ZM127.937 10.6628C128.533 11.5456 129.313 12.2888 130.224 12.841C129.978 13.1008 129.768 13.3912 129.597 13.7051C129.498 13.9116 129.414 14.0148 129.346 14.0148C129.235 13.9849 129.134 13.9261 129.053 13.8445C128.152 13.154 127.391 12.2968 126.814 11.3194C126.789 11.2903 126.772 11.255 126.766 11.2172C126.766 11.1811 126.817 11.1333 126.92 11.074L127.642 10.6249C127.692 10.5919 127.747 10.5688 127.806 10.5567C127.844 10.5552 127.888 10.5906 127.937 10.6628ZM124.066 10.5536C124.438 10.6861 124.802 10.8428 125.154 11.0229C125.295 11.1091 125.365 11.1839 125.365 11.2474C125.361 11.2955 125.346 11.3419 125.321 11.3832C125.296 11.4245 125.262 11.4597 125.222 11.4859C125.093 11.6171 124.981 11.7635 124.888 11.9219C124.458 12.6252 123.933 13.2664 123.329 13.8275C123.166 13.9772 123.063 14.052 123.019 14.052C122.965 14.052 122.877 13.9545 122.754 13.7593C122.566 13.4987 122.339 13.2691 122.08 13.0787C122.741 12.56 123.307 11.9314 123.754 11.2203C123.883 11.0111 123.987 10.7877 124.065 10.5544L124.066 10.5536ZM137.926 11.3496L136.013 11.3767C135.941 11.3767 135.897 11.3677 135.884 11.3496C135.866 11.3114 135.859 11.2692 135.864 11.2273V10.1518C135.864 10.0702 135.873 10.0225 135.891 10.0085C135.93 9.99561 135.972 9.99087 136.013 9.99459L137.926 10.0085H139.334V9.10334C139.34 8.44166 139.306 7.78025 139.232 7.12264C139.722 7.13385 140.21 7.17029 140.696 7.23182C140.845 7.23182 140.92 7.27957 140.92 7.37507C140.903 7.47683 140.871 7.57548 140.825 7.66776C140.738 8.13185 140.708 8.6049 140.737 9.07624V10.0054H142.717L144.643 9.99149C144.685 9.98591 144.728 9.99292 144.765 10.0116C144.778 10.0559 144.783 10.102 144.779 10.1479V11.2234C144.779 11.3231 144.734 11.3729 144.643 11.3729L142.717 11.3458H141.268C141.74 12.2887 142.316 13.1766 142.983 13.9932C143.642 14.7596 144.366 15.4676 145.147 16.1094C144.869 16.3833 144.637 16.7005 144.46 17.0486C144.364 17.2438 144.289 17.3413 144.235 17.3413C144.19 17.3413 144.092 17.2665 143.942 17.1168C143.179 16.3797 142.495 15.5654 141.9 14.687C141.433 13.9734 141.03 13.2196 140.696 12.4345C140.696 13.3735 140.705 14.5667 140.723 16.0141H141.043L142.567 15.987C142.64 15.987 142.683 15.9961 142.696 16.0141C142.714 16.0523 142.721 16.0946 142.717 16.1365V17.1625C142.722 17.2115 142.714 17.2612 142.693 17.3057C142.677 17.3238 142.635 17.3328 142.566 17.3328L141.042 17.2987H140.732C140.741 17.8521 140.753 18.4261 140.766 19.0208L140.78 19.6875C140.78 19.7603 140.771 19.8034 140.753 19.8168C140.712 19.8347 140.668 19.8417 140.624 19.837H139.426C139.374 19.8438 139.322 19.8343 139.276 19.8099C139.259 19.7717 139.252 19.7294 139.256 19.6875C139.256 19.6467 139.263 19.3677 139.276 18.8505C139.29 18.279 139.301 17.7628 139.31 17.3018H139.066L137.541 17.3359C137.468 17.3359 137.425 17.3245 137.412 17.3018C137.394 17.2589 137.387 17.212 137.392 17.1656V16.1411C137.386 16.0976 137.394 16.0533 137.416 16.0149C137.454 15.9936 137.498 15.9851 137.542 15.9909L139.066 16.018H139.332C139.359 14.9293 139.373 13.7407 139.373 12.4523C138.658 14.2136 137.573 15.8012 136.193 17.1083C136.038 17.2487 135.941 17.3189 135.9 17.3189C135.846 17.3189 135.771 17.2303 135.676 17.0533C135.498 16.7565 135.288 16.4804 135.049 16.2302V17.5643L135.076 19.6875C135.076 19.7603 135.067 19.8034 135.049 19.8168C135.009 19.8347 134.964 19.8417 134.92 19.837H133.738C133.648 19.837 133.602 19.7871 133.602 19.6875L133.629 17.5643V14.3981C133.629 13.7219 133.634 13.1979 133.643 12.8263C133.294 13.2847 133.024 13.6228 132.833 13.8406C132.73 13.963 132.646 14.0241 132.582 14.0241C132.517 14.0241 132.467 13.9403 132.432 13.7725C132.347 13.3478 132.185 12.942 131.956 12.5746C133.16 11.2758 134.063 9.72836 134.603 8.04175C134.708 7.72113 134.778 7.39052 134.814 7.05527C135.275 7.16458 135.728 7.30796 136.168 7.48424C136.318 7.55238 136.393 7.62259 136.393 7.69486C136.386 7.74527 136.369 7.7937 136.342 7.83703C136.315 7.88037 136.28 7.91766 136.238 7.94651C136.11 8.11273 136.015 8.30236 135.959 8.5048C135.696 9.19958 135.394 9.87896 135.054 10.5397V16.1884C136.625 14.8768 137.873 13.2211 138.702 11.3496H137.926ZM154.144 18.3665C154.669 18.4052 155.112 18.4246 155.474 18.4246C155.542 18.4335 155.611 18.4279 155.676 18.408C155.742 18.3881 155.803 18.3544 155.854 18.3092C155.923 18.2073 155.954 18.0847 155.943 17.9623V17.404H150.368V18.0305L150.395 19.6093C150.395 19.6821 150.386 19.7252 150.368 19.7386C150.327 19.7565 150.282 19.7635 150.238 19.7588H149.109C149.036 19.7588 148.993 19.7497 148.979 19.7316C148.962 19.6934 148.955 19.6512 148.959 19.6093L148.986 18.0444V14.5011L148.959 12.8952C148.952 12.8438 148.962 12.7915 148.986 12.7457C149.027 12.7278 149.071 12.7209 149.116 12.7256L151.035 12.7527H155.302L157.208 12.7256C157.285 12.7256 157.33 12.737 157.344 12.7597C157.362 12.8027 157.369 12.8496 157.364 12.896L157.337 14.6111V16.4555L157.378 18.2179C157.399 18.425 157.377 18.6341 157.315 18.8328C157.253 19.0315 157.152 19.2158 157.017 19.3747C156.408 19.6728 155.725 19.7887 155.051 19.7084C154.909 19.7202 154.766 19.7063 154.629 19.6674C154.559 19.5901 154.516 19.4923 154.506 19.3886C154.436 19.0322 154.314 18.6879 154.144 18.3665ZM155.94 13.8956H150.365V14.6235H155.94V13.8956ZM150.365 16.3734H155.94V15.6587H150.365V16.3734ZM148.862 9.54781L147.119 9.57491C147.042 9.57491 146.997 9.56587 146.983 9.54781C146.965 9.5096 146.958 9.46731 146.963 9.42546V8.49628C146.956 8.44686 146.966 8.39663 146.99 8.35303C147.031 8.33514 147.075 8.3282 147.119 8.3329L148.862 8.36H152.312V8.31896C152.321 7.88356 152.29 7.44825 152.217 7.01888C152.67 7.01888 153.167 7.04469 153.707 7.09631C153.848 7.10973 153.918 7.15516 153.918 7.23259C153.914 7.27962 153.903 7.3257 153.884 7.36887C153.864 7.41507 153.847 7.46302 153.836 7.51212C153.769 7.77659 153.743 8.04971 153.758 8.32206V8.36309H157.44L159.182 8.33599C159.264 8.33599 159.312 8.34503 159.326 8.36309C159.349 8.39948 159.358 8.44275 159.353 8.48544V9.42469C159.353 9.49747 159.341 9.54058 159.319 9.554C159.276 9.57217 159.229 9.57909 159.182 9.57413L157.44 9.54703H156.147C157.098 10.1521 157.965 10.8798 158.726 11.7113C158.765 11.7436 158.79 11.7901 158.795 11.8406C158.795 11.886 158.756 11.9451 158.679 12.0179L157.999 12.6304C157.926 12.6985 157.871 12.7326 157.835 12.7326C157.812 12.7298 157.79 12.7224 157.77 12.7106C157.75 12.6989 157.733 12.6832 157.72 12.6644C157.493 12.3877 157.196 12.0656 156.829 11.6981C154.678 11.9046 151.916 12.0633 148.543 12.1743C148.383 12.1683 148.223 12.196 148.074 12.2556C148.013 12.2876 147.946 12.3061 147.877 12.3098C147.795 12.3098 147.741 12.2486 147.713 12.1263C147.614 11.7137 147.539 11.2956 147.489 10.8742C147.888 10.8969 148.239 10.9083 148.543 10.9083C148.67 10.9083 148.797 10.906 148.924 10.9013C149.269 10.9013 149.527 10.8967 149.699 10.8874C150.037 10.465 150.342 10.0169 150.611 9.54703L148.862 9.54781ZM154.901 10.1193C154.842 10.0785 154.813 10.0444 154.813 10.017C154.813 9.98968 154.842 9.94426 154.901 9.88076L155.269 9.54703H152.2C151.921 10.001 151.619 10.4404 151.295 10.8634C152.801 10.8179 154.25 10.7521 155.643 10.6659C155.587 10.6138 155.342 10.4313 154.907 10.1185L154.901 10.1193ZM167.181 16.7412L165.269 16.7683C165.217 16.7752 165.165 16.7657 165.119 16.7412C165.102 16.703 165.095 16.6607 165.099 16.6189V15.7207C165.099 15.6479 165.11 15.6048 165.133 15.5914C165.176 15.5732 165.223 15.5663 165.269 15.5712L167.182 15.5983H168.761V14.8147H167.754L165.91 14.8418C165.819 14.8418 165.773 14.792 165.773 14.6924L165.801 13.4403V11.568L165.773 10.3159C165.767 10.2645 165.776 10.2122 165.801 10.1665C165.834 10.1483 165.872 10.1412 165.91 10.1464L167.754 10.1804H168.761V9.42469H167.243L165.345 9.45179C165.297 9.45807 165.249 9.44854 165.208 9.42469C165.191 9.38648 165.184 9.3442 165.188 9.30234V8.4173C165.188 8.34451 165.199 8.30141 165.222 8.28799C165.26 8.26929 165.303 8.26228 165.345 8.26786L167.243 8.29496H168.768C168.753 7.90271 168.715 7.51173 168.652 7.12419C169.116 7.12493 169.58 7.15207 170.041 7.20549C170.186 7.22356 170.258 7.27518 170.258 7.36035C170.244 7.44793 170.217 7.53281 170.177 7.61201C170.103 7.83094 170.073 8.06217 170.089 8.29263H171.824L173.737 8.26553C173.809 8.26553 173.852 8.27456 173.866 8.29263C173.884 8.33084 173.891 8.37312 173.886 8.41498V9.30002C173.886 9.37281 173.877 9.41591 173.859 9.42933C173.821 9.44701 173.778 9.45396 173.737 9.44946L171.824 9.42236H170.089V10.1781H171.177L173.008 10.144C173.081 10.144 173.124 10.1554 173.137 10.1781C173.155 10.2211 173.162 10.268 173.157 10.3144L173.137 11.5665V13.438L173.157 14.6901C173.163 14.7336 173.155 14.7779 173.133 14.8163C173.095 14.8376 173.051 14.846 173.007 14.8403L171.177 14.8132H170.088V15.596H171.889L173.815 15.5689C173.888 15.5689 173.931 15.5779 173.944 15.596C173.962 15.6342 173.969 15.6765 173.964 15.7184V16.6166C173.97 16.6601 173.962 16.7044 173.94 16.7428C173.902 16.7641 173.858 16.7726 173.814 16.7668L171.889 16.7405H170.086L170.113 17.8291C170.116 17.8494 170.114 17.8701 170.107 17.8895C170.101 17.9089 170.09 17.9266 170.075 17.9411C170.061 17.9556 170.043 17.9665 170.024 17.973C170.004 17.9795 169.984 17.9814 169.963 17.9786H168.888C168.779 17.9786 168.724 17.9288 168.724 17.8291L168.738 17.4954C168.748 17.2642 168.757 17.0122 168.765 16.7397L167.181 16.7412ZM171.827 13.8282V12.9494H170.078V13.8275L171.827 13.8282ZM167.064 13.8282H168.758V12.9494H167.064V13.8282ZM171.827 11.1808H170.078V11.99H171.827V11.1808ZM167.07 11.99H168.765V11.1801H167.07V11.99ZM174.454 17.9523C174.251 18.2481 174.123 18.5887 174.08 18.9449C174.035 19.1808 173.99 19.3148 173.944 19.3468C173.825 19.4004 173.694 19.4238 173.563 19.415C172.025 19.5012 170.401 19.5443 168.69 19.5443C167.588 19.607 166.483 19.4805 165.423 19.1703C164.806 18.9252 164.287 18.4825 163.947 17.9112C163.526 18.3246 163.083 18.7151 162.62 19.0812C162.504 19.1644 162.4 19.2629 162.31 19.3739C162.256 19.4694 162.192 19.5172 162.119 19.5172C162.047 19.5172 161.976 19.4513 161.909 19.3197C161.703 18.9184 161.522 18.5047 161.367 18.0808C161.65 17.9478 161.925 17.7979 162.19 17.6317C162.574 17.3713 162.934 17.0775 163.265 16.7536V13.644H162.68L161.687 13.678C161.605 13.678 161.557 13.6667 161.543 13.644C161.525 13.601 161.518 13.5541 161.523 13.5077V12.4461C161.523 12.3733 161.532 12.3302 161.55 12.3168C161.593 12.2986 161.64 12.2917 161.687 12.2966L162.68 12.3237H163.47L164.49 12.2966C164.538 12.2904 164.586 12.2999 164.627 12.3237C164.644 12.3619 164.651 12.4042 164.647 12.4461L164.62 13.8004V16.8202C164.872 17.3366 165.302 17.7448 165.831 17.9701C166.687 18.2071 167.577 18.3013 168.463 18.2488C170.464 18.2526 172.464 18.1541 174.454 17.9523ZM162.953 7.55935C163.624 8.17612 164.216 8.87338 164.716 9.6353C164.736 9.66363 164.75 9.69616 164.757 9.73054C164.757 9.76668 164.711 9.8183 164.621 9.88541L163.872 10.4979C163.824 10.541 163.765 10.5693 163.701 10.5792C163.656 10.5792 163.615 10.5475 163.579 10.484C163.103 9.68776 162.526 8.95599 161.864 8.30657C161.819 8.26579 161.796 8.23172 161.796 8.20436C161.796 8.16823 161.841 8.1228 161.932 8.06808L162.66 7.57097C162.709 7.52932 162.767 7.50128 162.83 7.48966C162.878 7.49794 162.922 7.52257 162.953 7.55935ZM177.996 19.456L176.268 19.4831C176.177 19.4831 176.132 19.4333 176.132 19.3336V18.3394C176.132 18.2398 176.177 18.19 176.268 18.19L177.662 18.2171V16.3339L177.635 15.1725C177.635 15.0955 177.646 15.0501 177.669 15.0362C177.712 15.018 177.758 15.0111 177.805 15.016L179.741 15.0431H185.09L187.025 15.016C187.098 15.016 187.141 15.0251 187.155 15.0431C187.173 15.0838 187.18 15.1283 187.175 15.1725L187.148 16.3339V18.2171L188.606 18.1923C188.697 18.1923 188.742 18.2421 188.742 18.3417V19.3329C188.742 19.4325 188.697 19.4823 188.606 19.4823L186.878 19.456H177.996ZM185.734 16.1961H184.38V18.2171H185.734V16.1961ZM181.723 18.2171H183.023V16.1961H181.723V18.2171ZM179.082 18.2171H180.369V16.1961H179.082V18.2171ZM184.929 13.5348C185.355 13.5813 185.785 13.604 186.214 13.6029C186.455 13.6029 186.575 13.4646 186.575 13.1879V12.6567H183.703C183.437 13.4798 182.941 14.2096 182.273 14.7597C182.119 14.9002 182.01 14.9704 181.947 14.9704C181.895 14.9704 181.788 14.8818 181.627 14.7048C181.41 14.4673 181.146 14.2772 180.853 14.1465C181.484 13.7545 181.988 13.187 182.302 12.5134C182.543 11.8232 182.652 11.0937 182.622 10.3632V9.23343L182.595 7.71577C182.595 7.63885 182.604 7.59342 182.622 7.57949C182.66 7.56181 182.702 7.55486 182.744 7.55935L184.276 7.58645H186.257L187.794 7.55935C187.867 7.55935 187.91 7.56839 187.924 7.58645C187.942 7.62706 187.948 7.67164 187.944 7.71577L187.917 9.23343V11.2467L187.958 13.4039C187.976 13.6067 187.95 13.8109 187.884 14.0032C187.817 14.1956 187.71 14.3716 187.571 14.5197C186.999 14.7857 186.367 14.8927 185.74 14.8294C185.513 14.8294 185.38 14.8067 185.338 14.7613C185.274 14.6514 185.236 14.5277 185.229 14.4005C185.175 14.0981 185.075 13.806 184.931 13.5348H184.929ZM183.883 11.6106H186.572V10.6582H183.951C183.942 10.9153 183.919 11.2327 183.883 11.6106ZM186.572 8.69063H183.951V9.61982H186.572V8.69063ZM177.969 14.0249H176.976C176.903 14.0249 176.86 14.0159 176.846 13.9978C176.828 13.9572 176.821 13.9126 176.826 13.8685L176.853 11.201V9.82966L176.826 7.92406C176.82 7.87688 176.829 7.82896 176.853 7.78778C176.894 7.76988 176.938 7.76295 176.983 7.76765L178.344 7.79475H179.892L181.24 7.76765C181.291 7.76081 181.343 7.77029 181.389 7.79475C181.407 7.83535 181.414 7.87994 181.409 7.92406L181.382 9.50986V10.9811L181.413 13.469C181.413 13.5505 181.404 13.5983 181.386 13.6122C181.34 13.6297 181.292 13.6366 181.243 13.6323H180.242C180.195 13.6386 180.147 13.6291 180.106 13.6052C180.088 13.5623 180.081 13.5154 180.086 13.469V13.2034H178.139V13.8701C178.139 13.9428 178.128 13.9883 178.105 14.0063C178.062 14.024 178.015 14.0304 177.969 14.0249ZM178.139 12.1123H180.086V10.9911H178.139V12.1123ZM180.086 8.87957H178.139V9.95509H180.086V8.87957Z" fill="#004098"/>
<path d="M44.8543 24.5264H44.1357V28.8006H44.8543V26.8989H46.0375V28.8006H46.7591V24.5264H46.0375V26.2794H44.8543V24.5264ZM47.6666 27.0537V27.4502C47.6666 28.3608 48.0631 28.8563 48.7569 28.8563C49.4507 28.8563 49.8471 28.3608 49.8471 27.4502V27.0537C49.8471 26.1431 49.4507 25.6476 48.7569 25.6476C48.0631 25.6476 47.6666 26.1431 47.6666 27.0537ZM49.1843 27.0661V27.4378C49.1843 27.9705 49.079 28.2803 48.7569 28.2803C48.4348 28.2803 48.3295 27.9705 48.3295 27.4378V27.0661C48.3295 26.5334 48.4348 26.2237 48.7569 26.2237C49.079 26.2237 49.1843 26.5334 49.1843 27.0661ZM52.071 25.7033L51.3276 26.8431V24.5264H50.6648V28.8006H51.3276V27.921L51.5692 27.5617L52.201 28.8006H52.932L51.9719 26.9484L52.7833 25.7033H52.071ZM54.9824 25.7033L54.2391 26.8431V24.5264H53.5731V28.8006H54.236V27.921L54.4775 27.5617L55.1125 28.8006H55.8434L54.8833 26.9484L55.6948 25.7033H54.9824ZM56.3514 27.89C56.3368 28.013 56.3489 28.1378 56.3867 28.2558C56.4245 28.3738 56.4873 28.4823 56.5707 28.5739C56.6541 28.6655 56.7562 28.7382 56.8702 28.7869C56.9841 28.8356 57.1072 28.8593 57.231 28.8563C57.3493 28.8687 57.4683 28.8421 57.5701 28.7806C57.6718 28.7191 57.7507 28.6261 57.7947 28.5156V28.8006H58.4452V26.7192C58.4452 25.8953 58.058 25.6476 57.4045 25.6476C57.2054 25.6189 57.0024 25.6531 56.8236 25.7452C56.6449 25.8374 56.4993 25.983 56.4072 26.1617L56.8717 26.49C56.9083 26.397 56.9755 26.3193 57.0622 26.2697C57.149 26.2202 57.2501 26.2017 57.3487 26.2175C57.7142 26.2175 57.7947 26.3228 57.7947 26.713V26.9732H57.3239C57.1969 26.9557 57.0676 26.9669 56.9455 27.0059C56.8234 27.0449 56.7115 27.1109 56.6182 27.1988C56.5249 27.2868 56.4525 27.3945 56.4064 27.5141C56.3602 27.6337 56.3414 27.7622 56.3514 27.89ZM57.7947 27.6298C57.7947 28.1718 57.6523 28.2926 57.3549 28.2926C57.1319 28.2926 57.0018 28.1749 57.0018 27.89C57.0018 27.6174 57.1257 27.4812 57.389 27.4812H57.7916L57.7947 27.6298ZM59.458 28.8006H60.1208V25.7033H59.458V28.8006ZM59.458 25.2016H60.1208V24.5264H59.458V25.2016ZM62.5552 25.9325C62.4927 25.8431 62.4092 25.7703 62.312 25.7206C62.2148 25.6709 62.1069 25.6459 61.9977 25.6476C61.4216 25.6476 61.019 26.1431 61.019 27.0537V27.4409C61.019 28.2648 61.3721 28.8533 61.9977 28.8533C62.1054 28.863 62.2136 28.8441 62.3116 28.7984C62.4095 28.7527 62.4936 28.6818 62.5552 28.5931V28.8006H63.2181V24.5264H62.5552V25.9325ZM62.1123 28.2803C61.7531 28.2803 61.6787 27.9086 61.6787 27.4285V27.0661C61.6787 26.5241 61.7902 26.2237 62.1123 26.2237C62.4345 26.2237 62.5552 26.5086 62.5552 27.0197V27.4285C62.5552 27.9086 62.4592 28.2803 62.1123 28.2803ZM64.0326 27.0537V27.4502C64.0326 28.3608 64.4291 28.8563 65.1229 28.8563C65.8167 28.8563 66.2131 28.3608 66.2131 27.4502V27.0537C66.2131 26.1431 65.8167 25.6476 65.1229 25.6476C64.4291 25.6476 64.0326 26.1431 64.0326 27.0537ZM65.5503 27.0661V27.4378C65.5503 27.9705 65.445 28.2803 65.1229 28.2803C64.8008 28.2803 64.6955 27.9705 64.6955 27.4378V27.0661C64.6955 26.5334 64.8008 26.2237 65.1229 26.2237C65.445 26.2237 65.5503 26.5334 65.5503 27.0661ZM68.3564 28.2586C68.4648 28.4508 68.6251 28.6085 68.8191 28.7137C69.013 28.8189 69.2327 28.8673 69.4529 28.8533C70.19 28.8533 70.6422 28.3701 70.6422 27.1064V24.5264H69.9237V27.1095C69.9237 27.9612 69.7564 28.2307 69.4095 28.2307C69.3111 28.2267 69.2155 28.1964 69.1328 28.1431C69.05 28.0897 68.983 28.0152 68.9387 27.9272L68.3564 28.2586ZM73.8076 25.7033H73.1448V27.5741C73.1448 28.0449 73.0271 28.271 72.7236 28.271C72.4572 28.271 72.3364 28.1161 72.3364 27.5648V25.7033H71.6736V27.6391C71.6736 28.5311 72.0887 28.8594 72.6028 28.8594C72.715 28.8728 72.8286 28.8514 72.9282 28.7983C73.0279 28.7451 73.1089 28.6627 73.1603 28.5621V28.8006H73.8107L73.8076 25.7033ZM74.7368 28.8006H75.3996V26.9298C75.3996 26.5148 75.5173 26.233 75.8271 26.233C76.0872 26.233 76.2142 26.4126 76.2142 26.9298V28.8006H76.877V26.8648C76.877 25.9728 76.462 25.6507 75.9788 25.6507C75.8627 25.6451 75.7472 25.6702 75.6439 25.7235C75.5406 25.7768 75.4531 25.8563 75.3904 25.9542V25.7033H74.7399L74.7368 28.8006ZM77.8868 28.8006H78.5496V25.7033H77.8868V28.8006ZM77.8868 25.2016H78.5496V24.5264H77.8868V25.2016ZM79.4478 27.0537V27.4502C79.4478 28.3608 79.8442 28.8563 80.538 28.8563C81.2318 28.8563 81.6283 28.3608 81.6283 27.4502V27.0537C81.6283 26.1431 81.2318 25.6476 80.538 25.6476C79.8442 25.6476 79.4447 26.1431 79.4447 27.0537H79.4478ZM80.9655 27.0661V27.4378C80.9655 27.9705 80.8601 28.2803 80.538 28.2803C80.2159 28.2803 80.1106 27.9705 80.1106 27.4378V27.0661C80.1106 26.5334 80.2159 26.2237 80.538 26.2237C80.8601 26.2237 80.9624 26.5334 80.9624 27.0661H80.9655ZM84.3136 26.106C84.2581 25.9695 84.1629 25.8528 84.0403 25.7711C83.9177 25.6894 83.7734 25.6463 83.626 25.6476C83.5184 25.643 83.4116 25.6684 83.3176 25.7209C83.2235 25.7734 83.1459 25.8509 83.0933 25.9449V25.7033H82.4429V28.8006H83.1057V26.8741C83.1057 26.4869 83.242 26.2361 83.4928 26.2361C83.5644 26.2379 83.6338 26.261 83.6923 26.3023C83.7507 26.3437 83.7956 26.4015 83.8211 26.4683L84.3136 26.106ZM87.3427 24.5264H86.6242V28.8006H87.3427V26.8989H88.5259V28.8006H89.2445V24.5264H88.5259V26.2794H87.3427V24.5264ZM90.3471 28.8006H91.0099V25.7033H90.3471V28.8006ZM90.3471 25.2016H91.0099V24.5264H90.3471V25.2016ZM93.4444 28.7386C93.4444 29.2404 93.3081 29.451 92.924 29.451C92.8216 29.4545 92.7204 29.4276 92.6333 29.3735C92.5462 29.3195 92.4771 29.2408 92.4347 29.1475L91.9794 29.4758C92.0722 29.6556 92.2169 29.8034 92.3947 29.9001C92.5726 29.9967 92.7753 30.0377 92.9767 30.0178C93.6147 30.0178 94.1041 29.6957 94.1041 28.7418V25.7033H93.4413V25.9077C93.3796 25.819 93.2955 25.7482 93.1976 25.7025C93.0997 25.6568 92.9914 25.6378 92.8838 25.6476C92.2581 25.6476 91.905 26.236 91.905 27.0599V27.4471C91.905 28.3577 92.3077 28.8533 92.8838 28.8533C92.9929 28.855 93.1008 28.8299 93.198 28.7802C93.2952 28.7305 93.3787 28.6578 93.4413 28.5683L93.4444 28.7386ZM93.0046 26.2237C93.3515 26.2237 93.4444 26.5953 93.4444 27.0754V27.4843C93.4444 27.9922 93.3205 28.2772 93.0046 28.2772C92.6886 28.2772 92.5709 27.9736 92.5709 27.4347V27.0754C92.5709 26.5953 92.6453 26.2237 93.0046 26.2237ZM95.0364 28.8006H95.6961V26.9298C95.6961 26.5148 95.8138 26.233 96.1235 26.233C96.3837 26.233 96.5107 26.4126 96.5107 26.9298V28.8006H97.1735V26.8648C97.1735 25.9728 96.7585 25.6507 96.2753 25.6507C96.1624 25.6442 96.0497 25.667 95.9482 25.717C95.8467 25.7669 95.7599 25.8422 95.6961 25.9356V24.5264H95.0333L95.0364 28.8006ZM102.166 25.1706C102.052 24.9478 101.875 24.7632 101.657 24.6394C101.439 24.5156 101.19 24.458 100.94 24.4737C100.779 24.4582 100.618 24.478 100.466 24.5316C100.314 24.5853 100.176 24.6715 100.06 24.7842C99.9454 24.8969 99.8564 25.0334 99.7996 25.1841C99.7428 25.3349 99.7197 25.4962 99.7318 25.6569C99.7144 25.9641 99.8119 26.2669 100.005 26.5063C100.199 26.7456 100.475 26.9043 100.779 26.9515C101.349 27.1126 101.485 27.3232 101.485 27.6639C101.485 27.9736 101.361 28.2338 100.943 28.2338C100.787 28.237 100.634 28.1956 100.501 28.1143C100.368 28.0331 100.261 27.9155 100.193 27.7754L99.642 28.1626C99.7813 28.3902 99.9802 28.5754 100.217 28.6982C100.454 28.8211 100.72 28.8768 100.986 28.8594C101.15 28.8693 101.313 28.844 101.466 28.7855C101.619 28.727 101.757 28.6364 101.872 28.52C101.987 28.4036 102.076 28.2639 102.133 28.1104C102.189 27.9569 102.212 27.793 102.2 27.6298C102.2 26.8927 101.866 26.5582 101.135 26.3537C100.67 26.2237 100.447 26.0626 100.447 25.6569C100.447 25.2976 100.608 25.0994 100.955 25.0994C101.101 25.0967 101.245 25.1394 101.366 25.2214C101.486 25.3035 101.579 25.421 101.63 25.5577L102.166 25.1706ZM104.502 27.9953C104.472 28.0825 104.415 28.1579 104.339 28.2103C104.263 28.2627 104.173 28.2894 104.08 28.2864C103.665 28.2864 103.597 27.9086 103.597 27.4254V27.0661C103.597 26.5334 103.709 26.2237 104.08 26.2237C104.168 26.2222 104.254 26.2475 104.327 26.2962C104.4 26.3449 104.457 26.4146 104.489 26.4962L104.985 26.1555C104.899 25.9957 104.769 25.8634 104.612 25.7736C104.454 25.6837 104.274 25.6401 104.093 25.6476C103.343 25.6476 102.931 26.1431 102.931 27.0351V27.4564C102.931 28.2988 103.334 28.8563 104.059 28.8563C104.25 28.8765 104.443 28.8359 104.609 28.7402C104.776 28.6446 104.909 28.4988 104.988 28.3236L104.502 27.9953ZM105.666 28.8006H106.329V26.9298C106.329 26.5148 106.447 26.233 106.756 26.233C107.017 26.233 107.144 26.4126 107.144 26.9298V28.8006H107.806V26.8648C107.806 25.9728 107.391 25.6507 106.908 25.6507C106.795 25.6454 106.683 25.6694 106.582 25.7205C106.481 25.7715 106.395 25.8477 106.332 25.9418V24.5264H105.669L105.666 28.8006ZM108.621 27.0537V27.4502C108.621 28.3608 109.014 28.8563 109.711 28.8563C110.408 28.8563 110.802 28.3608 110.802 27.4502V27.0537C110.802 26.1431 110.405 25.6476 109.711 25.6476C109.017 25.6476 108.621 26.1431 108.621 27.0537ZM110.139 27.0661V27.4378C110.139 27.9705 110.033 28.2803 109.711 28.2803C109.389 28.2803 109.284 27.9705 109.284 27.4378V27.0661C109.284 26.5334 109.389 26.2237 109.711 26.2237C110.033 26.2237 110.139 26.5334 110.139 27.0661ZM111.508 27.0537V27.4502C111.508 28.3608 111.904 28.8563 112.598 28.8563C113.292 28.8563 113.688 28.3608 113.688 27.4502V27.0537C113.688 26.1431 113.292 25.6476 112.598 25.6476C111.904 25.6476 111.508 26.1431 111.508 27.0537ZM113.025 27.0661V27.4378C113.025 27.9705 112.92 28.2803 112.598 28.2803C112.276 28.2803 112.171 27.9705 112.171 27.4378V27.0661C112.171 26.5334 112.276 26.2237 112.598 26.2237C112.92 26.2237 113.025 26.5334 113.025 27.0661ZM114.506 27.8281C114.506 28.5404 114.847 28.8006 115.528 28.8006V28.2183C115.249 28.2183 115.169 28.0077 115.169 27.6763V24.5264H114.506V27.8281ZM119.338 27.2396C119.518 27.254 119.699 27.2282 119.868 27.164C120.037 27.0997 120.189 26.9988 120.314 26.8683C120.44 26.7379 120.534 26.5812 120.591 26.4097C120.648 26.2382 120.667 26.0562 120.645 25.8768C120.666 25.6981 120.647 25.5169 120.59 25.3463C120.532 25.1758 120.437 25.0202 120.312 24.8909C120.187 24.7616 120.035 24.6618 119.866 24.5987C119.697 24.5357 119.517 24.511 119.338 24.5264H118.093V28.8006H118.811V27.2396H119.338ZM118.811 26.6201V25.1489H119.235C119.731 25.1489 119.923 25.4153 119.923 25.8799C119.923 26.3692 119.731 26.6232 119.235 26.6232L118.811 26.6201ZM121.403 28.8006H122.066V26.9298C122.066 26.5148 122.184 26.233 122.494 26.233C122.754 26.233 122.881 26.4126 122.881 26.9298V28.8006H123.544V26.8648C123.544 25.9728 123.129 25.6507 122.646 25.6507C122.533 25.6454 122.42 25.6694 122.319 25.7205C122.218 25.7715 122.132 25.8477 122.069 25.9418V24.5264H121.403V28.8006ZM124.148 25.7033L125.043 28.8687C125.046 28.9389 125.033 29.0088 125.006 29.0737C124.98 29.1386 124.939 29.1969 124.887 29.2446C124.836 29.2923 124.775 29.3283 124.708 29.35C124.641 29.3717 124.571 29.3787 124.501 29.3705V29.9776C125.207 29.9776 125.455 29.7174 125.678 28.9245L126.573 25.7033H125.891L125.39 27.859L124.845 25.7033H124.148ZM129.085 26.1679C128.993 25.9958 128.852 25.8547 128.68 25.7622C128.508 25.6696 128.313 25.6298 128.118 25.6476C127.991 25.6326 127.861 25.6457 127.739 25.686C127.617 25.7262 127.505 25.7925 127.412 25.8804C127.318 25.9683 127.244 26.0756 127.196 26.1948C127.148 26.314 127.127 26.4422 127.133 26.5706C127.133 27.221 127.521 27.4223 128.013 27.5307C128.372 27.6081 128.478 27.698 128.478 27.9334C128.478 28.1502 128.36 28.2741 128.112 28.2741C128.005 28.2825 127.897 28.2609 127.802 28.2116C127.706 28.1624 127.626 28.0875 127.57 27.9953L127.093 28.3422C127.203 28.5168 127.359 28.6573 127.544 28.7482C127.728 28.839 127.935 28.8764 128.14 28.8563C128.271 28.8737 128.404 28.8618 128.529 28.8216C128.655 28.7814 128.77 28.7138 128.866 28.6237C128.962 28.5337 129.038 28.4234 129.086 28.3008C129.135 28.1782 129.155 28.0463 129.147 27.9148C129.147 27.3077 128.825 27.063 128.286 26.9546C127.926 26.8865 127.802 26.7998 127.802 26.552C127.802 26.3352 127.939 26.2361 128.143 26.2361C128.241 26.2277 128.339 26.2493 128.424 26.2979C128.509 26.3466 128.578 26.4201 128.62 26.5086L129.085 26.1679ZM130.054 28.8006H130.717V25.7033H130.054V28.8006ZM130.054 25.2016H130.717V24.5264H130.054V25.2016ZM133.182 27.9953C133.153 28.0825 133.096 28.1579 133.02 28.2103C132.944 28.2627 132.853 28.2894 132.761 28.2864C132.346 28.2864 132.278 27.9086 132.278 27.4254V27.0661C132.278 26.5334 132.39 26.2237 132.761 26.2237C132.849 26.2222 132.935 26.2475 133.008 26.2962C133.081 26.3449 133.138 26.4146 133.17 26.4962L133.666 26.1555C133.58 25.9957 133.45 25.8634 133.292 25.7736C133.135 25.6837 132.955 25.6401 132.774 25.6476C132.024 25.6476 131.612 26.1431 131.612 27.0351V27.4564C131.612 28.2988 132.015 28.8563 132.74 28.8563C132.93 28.8752 133.121 28.8339 133.287 28.7383C133.452 28.6428 133.584 28.4977 133.663 28.3236L133.182 27.9953ZM134.18 27.89C134.165 28.013 134.177 28.1378 134.215 28.2558C134.253 28.3738 134.316 28.4823 134.399 28.5739C134.482 28.6655 134.585 28.7382 134.699 28.7869C134.812 28.8356 134.936 28.8593 135.059 28.8563C135.178 28.8687 135.297 28.8421 135.398 28.7806C135.5 28.7191 135.579 28.6261 135.623 28.5156V28.8006H136.274V26.7192C136.274 25.8953 135.886 25.6476 135.233 25.6476C135.034 25.6189 134.831 25.6531 134.652 25.7452C134.473 25.8374 134.328 25.983 134.236 26.1617L134.7 26.49C134.737 26.397 134.804 26.3193 134.891 26.2697C134.977 26.2202 135.078 26.2017 135.177 26.2175C135.543 26.2175 135.623 26.3228 135.623 26.713V26.9732H135.152C135.025 26.9557 134.896 26.9669 134.774 27.0059C134.652 27.0449 134.54 27.1109 134.447 27.1988C134.353 27.2868 134.281 27.3945 134.235 27.5141C134.189 27.6337 134.17 27.7622 134.18 27.89ZM135.623 27.6298C135.623 28.1718 135.481 28.2926 135.183 28.2926C134.96 28.2926 134.83 28.1749 134.83 27.89C134.83 27.6174 134.954 27.4812 135.217 27.4812H135.62L135.623 27.6298ZM137.203 27.8281C137.203 28.5404 137.543 28.8006 138.225 28.8006V28.2183C137.946 28.2183 137.866 28.0077 137.866 27.6763V24.5264H137.2L137.203 27.8281ZM143.261 25.852C143.143 24.9228 142.672 24.4706 141.985 24.4706C141.192 24.4706 140.641 25.0467 140.641 26.3909V26.9329C140.641 28.2772 141.192 28.8533 141.985 28.8533C142.697 28.8533 143.137 28.432 143.261 27.4719H142.58C142.502 27.9922 142.338 28.2276 141.985 28.2276C141.564 28.2276 141.359 27.8404 141.359 26.9329V26.3909C141.359 25.4679 141.564 25.0963 141.985 25.0963C142.326 25.0963 142.511 25.3286 142.58 25.852H143.261ZM146.182 25.7033H145.519V27.5741C145.519 28.0449 145.401 28.271 145.098 28.271C144.831 28.271 144.71 28.1161 144.71 27.5648V25.7033H144.048V27.6391C144.048 28.5311 144.463 28.8594 144.977 28.8594C145.089 28.8728 145.203 28.8514 145.302 28.7983C145.402 28.7451 145.483 28.6627 145.534 28.5621V28.8006H146.185L146.182 25.7033ZM147.111 27.8281C147.111 28.5404 147.452 28.8006 148.133 28.8006V28.2183C147.854 28.2183 147.774 28.0077 147.774 27.6763V24.5264H147.111V27.8281ZM148.746 26.2732H149.068V27.8157C149.068 28.5466 149.347 28.8006 149.96 28.8006H150.233V28.2059H150.022C149.781 28.2059 149.731 28.0511 149.731 27.6918V26.2732H150.233V25.7033H149.731V25.0219H149.068V25.7033H148.746V26.2732ZM153.16 25.7033H152.497V27.5741C152.497 28.0449 152.379 28.271 152.076 28.271C151.809 28.271 151.689 28.1161 151.689 27.5648V25.7033H151.026V27.6391C151.026 28.5311 151.441 28.8594 151.955 28.8594C152.067 28.8728 152.181 28.8514 152.28 28.7983C152.38 28.7451 152.461 28.6627 152.513 28.5621V28.8006H153.163L153.16 25.7033ZM155.96 26.106C155.904 25.9695 155.809 25.8528 155.686 25.7711C155.564 25.6894 155.42 25.6463 155.272 25.6476C155.165 25.643 155.058 25.6684 154.964 25.7209C154.87 25.7734 154.792 25.8509 154.739 25.9449V25.7033H154.089V28.8006H154.752V26.8741C154.752 26.4869 154.888 26.2361 155.139 26.2361C155.211 26.2379 155.28 26.261 155.338 26.3023C155.397 26.3437 155.442 26.4015 155.467 26.4683L155.96 26.106ZM157.967 27.9953C157.935 28.0877 157.874 28.1668 157.791 28.2196C157.709 28.2725 157.612 28.296 157.515 28.2864C157.137 28.2864 157.062 27.8993 157.062 27.413H158.487V27.0723C158.487 26.1555 158.153 25.6476 157.44 25.6476C156.777 25.6476 156.4 26.1245 156.4 27.0351V27.4564C156.4 28.2803 156.759 28.8563 157.521 28.8563C157.712 28.877 157.905 28.8366 158.072 28.7409C158.239 28.6452 158.371 28.4991 158.45 28.3236L157.967 27.9953ZM157.447 26.2237C157.694 26.2237 157.824 26.4467 157.834 26.9051H157.066C157.081 26.4838 157.177 26.2237 157.447 26.2237ZM161.454 28.8006L161.671 27.9148H162.817L163.04 28.8006H163.802L162.597 24.5264H161.891L160.699 28.8006H161.454ZM162.253 25.6104L162.662 27.2953H161.832L162.253 25.6104ZM166.299 26.1679C166.206 25.9958 166.066 25.8547 165.894 25.7622C165.722 25.6696 165.527 25.6298 165.332 25.6476C165.205 25.6326 165.075 25.6457 164.953 25.686C164.831 25.7262 164.719 25.7925 164.625 25.8804C164.532 25.9683 164.458 26.0756 164.41 26.1948C164.362 26.314 164.341 26.4422 164.347 26.5706C164.347 27.221 164.734 27.4223 165.227 27.5307C165.586 27.6081 165.691 27.698 165.691 27.9334C165.691 28.1502 165.574 28.2741 165.326 28.2741C165.219 28.2825 165.111 28.2609 165.015 28.2116C164.92 28.1624 164.84 28.0875 164.784 27.9953L164.307 28.3422C164.416 28.5168 164.572 28.6573 164.757 28.7482C164.942 28.839 165.149 28.8764 165.354 28.8563C165.485 28.8737 165.617 28.8618 165.743 28.8216C165.869 28.7814 165.984 28.7138 166.08 28.6237C166.176 28.5337 166.251 28.4234 166.3 28.3008C166.348 28.1782 166.369 28.0463 166.36 27.9148C166.36 27.3077 166.038 27.063 165.499 26.9546C165.14 26.8865 165.016 26.7998 165.016 26.552C165.016 26.3352 165.153 26.2361 165.357 26.2361C165.455 26.2277 165.553 26.2493 165.638 26.2979C165.723 26.3466 165.791 26.4201 165.834 26.5086L166.299 26.1679ZM169.049 26.1679C168.957 25.9958 168.816 25.8547 168.644 25.7622C168.472 25.6696 168.277 25.6298 168.083 25.6476C167.955 25.6326 167.826 25.6457 167.703 25.686C167.581 25.7262 167.47 25.7925 167.376 25.8804C167.282 25.9683 167.209 26.0756 167.161 26.1948C167.112 26.314 167.091 26.4422 167.098 26.5706C167.098 27.221 167.485 27.4223 167.977 27.5307C168.337 27.6081 168.442 27.698 168.442 27.9334C168.442 28.1502 168.324 28.2741 168.076 28.2741C167.969 28.2825 167.861 28.2609 167.766 28.2116C167.67 28.1624 167.59 28.0875 167.534 27.9953L167.057 28.3422C167.167 28.5168 167.323 28.6573 167.508 28.7482C167.693 28.839 167.899 28.8764 168.104 28.8563C168.235 28.8737 168.368 28.8618 168.493 28.8216C168.619 28.7814 168.734 28.7138 168.83 28.6237C168.927 28.5337 169.002 28.4234 169.05 28.3008C169.099 28.1782 169.119 28.0463 169.111 27.9148C169.111 27.3077 168.789 27.063 168.25 26.9546C167.891 26.8865 167.767 26.7998 167.767 26.552C167.767 26.3352 167.903 26.2361 168.107 26.2361C168.205 26.2277 168.303 26.2493 168.388 26.2979C168.474 26.3466 168.542 26.4201 168.584 26.5086L169.049 26.1679ZM169.829 27.0537V27.4502C169.829 28.3608 170.226 28.8563 170.92 28.8563C171.613 28.8563 172.01 28.3608 172.01 27.4502V27.0537C172.01 26.1431 171.613 25.6476 170.92 25.6476C170.226 25.6476 169.829 26.1431 169.829 27.0537ZM171.347 27.0661V27.4378C171.347 27.9705 171.242 28.2803 170.92 28.2803C170.598 28.2803 170.492 27.9705 170.492 27.4378V27.0661C170.492 26.5334 170.598 26.2237 170.92 26.2237C171.242 26.2237 171.347 26.5334 171.347 27.0661ZM174.283 27.9953C174.253 28.0825 174.196 28.1579 174.121 28.2103C174.045 28.2627 173.954 28.2894 173.862 28.2864C173.447 28.2864 173.379 27.9086 173.379 27.4254V27.0661C173.379 26.5334 173.49 26.2237 173.862 26.2237C173.95 26.2222 174.036 26.2475 174.109 26.2962C174.182 26.3449 174.239 26.4146 174.271 26.4962L174.766 26.1555C174.68 25.9957 174.551 25.8634 174.393 25.7736C174.236 25.6837 174.056 25.6401 173.874 25.6476C173.125 25.6476 172.713 26.1431 172.713 27.0351V27.4564C172.713 28.2988 173.116 28.8563 173.84 28.8563C174.031 28.8752 174.222 28.8339 174.387 28.7383C174.553 28.6428 174.685 28.4977 174.763 28.3236L174.283 27.9953ZM175.528 28.8006H176.191V25.7033H175.528V28.8006ZM175.528 25.2016H176.191V24.5264H175.528V25.2016ZM177.065 27.89C177.05 28.013 177.062 28.1378 177.1 28.2558C177.138 28.3738 177.201 28.4823 177.284 28.5739C177.367 28.6655 177.469 28.7382 177.583 28.7869C177.697 28.8356 177.82 28.8593 177.944 28.8563C178.063 28.8687 178.182 28.8421 178.283 28.7806C178.385 28.7191 178.464 28.6261 178.508 28.5156V28.8006H179.158V26.7192C179.158 25.8953 178.771 25.6476 178.118 25.6476C177.919 25.6189 177.716 25.6531 177.537 25.7452C177.358 25.8374 177.213 25.983 177.12 26.1617L177.585 26.49C177.622 26.397 177.689 26.3193 177.775 26.2697C177.862 26.2202 177.963 26.2017 178.062 26.2175C178.427 26.2175 178.508 26.3228 178.508 26.713V26.9732H178.037C177.91 26.9557 177.781 26.9669 177.659 27.0059C177.537 27.0449 177.425 27.1109 177.331 27.1988C177.238 27.2868 177.166 27.3945 177.12 27.5141C177.073 27.6337 177.055 27.7622 177.065 27.89ZM178.508 27.6298C178.508 28.1718 178.365 28.2926 178.068 28.2926C177.845 28.2926 177.715 28.1749 177.715 27.89C177.715 27.6174 177.839 27.4812 178.102 27.4812H178.505L178.508 27.6298ZM179.877 26.2732H180.199V27.8157C180.199 28.5466 180.478 28.8006 181.091 28.8006H181.364V28.2059H181.153C180.911 28.2059 180.862 28.0511 180.862 27.6918V26.2732H181.364V25.7033H180.862V25.0219H180.199V25.7033H179.877V26.2732ZM182.237 28.8006H182.9V25.7033H182.237V28.8006ZM182.237 25.2016H182.9V24.5264H182.237V25.2016ZM183.798 27.0537V27.4502C183.798 28.3608 184.195 28.8563 184.888 28.8563C185.582 28.8563 185.979 28.3608 185.979 27.4502V27.0537C185.979 26.1431 185.582 25.6476 184.888 25.6476C184.195 25.6476 183.798 26.1431 183.798 27.0537ZM185.316 27.0661V27.4378C185.316 27.9705 185.21 28.2803 184.888 28.2803C184.566 28.2803 184.461 27.9705 184.461 27.4378V27.0661C184.461 26.5334 184.566 26.2237 184.888 26.2237C185.21 26.2237 185.316 26.5334 185.316 27.0661ZM186.796 28.8006H187.459V26.9298C187.459 26.5148 187.577 26.233 187.887 26.233C188.147 26.233 188.274 26.4126 188.274 26.9298V28.8006H188.937V26.8648C188.937 25.9728 188.521 25.6507 188.038 25.6507C187.922 25.6451 187.807 25.6702 187.703 25.7235C187.6 25.7768 187.513 25.8563 187.45 25.9542V25.7033H186.799L186.796 28.8006Z" fill="#004098"/>
</svg>
