<svg width="96" height="50" viewBox="0 0 96 50" fill="none" xmlns="http://www.w3.org/2000/svg">
<g clip-path="url(#clip0_365_146)">
<path d="M15.5059 36.3991C10.3618 36.3991 5.67279 34.4218 2.14648 31.1768C4.09608 33.3085 6.50372 34.9978 9.24313 36.123C10.1768 36.506 11.1223 36.8118 12.0736 37.0434C18.4714 38.6021 25.11 36.797 29.8724 32.5395C29.3557 32.2545 28.8595 31.9368 28.3868 31.5954C24.9192 34.5881 20.421 36.3991 15.5059 36.3991Z" fill="url(#paint0_linear_365_146)"/>
<path d="M35.1543 10.1804C34.9899 9.75885 34.8137 9.34023 34.6199 8.92754C34.2852 8.21203 33.9035 7.5173 33.4866 6.84631C33.2429 6.45441 32.9904 6.07142 32.7202 5.69733C31.995 4.69086 31.1729 3.74971 30.2627 2.88574C33.4308 6.44254 35.3628 11.1513 35.3628 16.3172C35.3628 20.64 34.0092 24.6392 31.7102 27.9139C32.1771 28.2108 32.6703 28.4751 33.193 28.6918C33.9329 27.5755 34.5729 26.3701 35.0926 25.0786C37.0863 20.1145 36.96 14.8061 35.1543 10.1775V10.1804Z" fill="url(#paint1_linear_365_146)"/>
<path d="M1.90238 11.9736C1.90238 12.024 1.90238 12.0745 1.90238 12.122C1.89064 13.1879 1.88477 14.2715 1.92 15.3344C1.92 15.3374 1.92587 15.3374 1.92587 15.3344C2.13728 14.4022 2.31638 13.4462 2.48668 12.502C2.48961 12.4783 2.50723 12.4575 2.52778 12.4486L7.31369 10.0527C7.31369 10.0527 7.3225 10.0764 7.32543 10.0883C7.40471 10.2249 7.51628 10.3347 7.64841 10.4178C7.75411 10.4832 7.86568 10.5396 7.97138 10.6078L8.28262 10.8127C8.60559 11.0205 8.92857 11.2313 9.26035 11.4243C9.33082 11.4659 9.40716 11.3798 9.35724 11.3145C9.12822 11.0057 8.87865 10.7058 8.63495 10.406L8.39712 10.118C8.31785 10.02 8.24738 9.91608 8.17104 9.81811C8.07415 9.69638 7.95083 9.59544 7.80696 9.53309C7.80109 9.53309 7.79228 9.53012 7.78641 9.52715L9.36899 4.13852C9.37486 4.11477 9.39248 4.09695 9.41597 4.08804C10.0502 3.86834 10.6814 3.63973 11.301 3.39628C11.3039 3.39628 11.301 3.39034 11.301 3.39034C10.4436 3.47644 9.57745 3.5952 8.7201 3.72286C8.71129 3.72286 8.70248 3.72286 8.69368 3.72286L6.32421 3.22705C4.12211 4.857 2.27234 7.02433 0.995117 9.63403L1.89358 11.9409C1.89358 11.9409 1.89945 11.9587 1.89945 11.9676L1.90238 11.9736Z" fill="url(#paint2_linear_365_146)"/>
<path d="M7.41375 29.9331C7.44311 29.942 7.46954 29.9509 7.49596 29.9598C8.02447 30.1171 8.55591 30.2775 9.09029 30.417C9.17543 30.4378 9.22241 30.322 9.14901 30.2775C8.67336 29.9924 8.18596 29.7252 7.70443 29.458C7.62515 29.4165 7.54001 29.369 7.44899 29.3185C7.42843 29.3066 7.41375 29.2858 7.41082 29.2621L6.62099 23.817C6.61806 23.7903 6.6298 23.7606 6.65035 23.7428L8.21532 22.6206C8.3034 22.5582 8.22413 22.4216 8.12723 22.4632L6.13947 23.3717C6.11598 23.3836 6.08662 23.3806 6.06606 23.3658L1.8439 20.4265C1.82334 20.4117 1.8116 20.3879 1.8116 20.3612L1.87913 18.2206C1.87913 18.1078 1.72058 18.0959 1.70296 18.2028C1.70002 18.2384 1.51211 19.4052 1.33007 20.5423C1.33007 20.5512 1.3242 20.5601 1.32126 20.569L0 22.9145C0.85148 25.6073 2.33423 28.0864 4.34549 30.1082L7.38439 29.9212C7.38439 29.9212 7.40201 29.9212 7.41082 29.9242L7.41375 29.9331Z" fill="url(#paint3_linear_365_146)"/>
<path d="M16.8005 2.12881L15.1797 2.63353C15.074 2.66916 15.1122 2.82651 15.2208 2.8087C15.2502 2.80276 16.1017 2.65432 17.05 2.48805C17.0735 2.48509 17.0999 2.49102 17.1176 2.50884L20.7554 6.27346C20.773 6.29127 20.7789 6.31799 20.776 6.34174C20.7496 6.46347 20.729 6.5852 20.6967 6.70396L20.5851 7.12555C20.4736 7.56198 20.362 8.00138 20.268 8.44079C20.2504 8.52392 20.3591 8.56845 20.406 8.4972C20.6439 8.1142 20.8641 7.71933 21.0843 7.32743L21.2957 6.94741C21.3544 6.8435 21.4219 6.74255 21.4865 6.63864C21.5012 6.61786 21.5218 6.60301 21.5482 6.60301L26.8861 6.46347C26.9096 6.46347 26.9331 6.47535 26.9477 6.49316C26.9742 6.52879 26.9977 6.56145 27.0212 6.59707C27.3882 7.09586 27.7552 7.59761 28.1369 8.08748C28.1927 8.15874 28.3013 8.09045 28.2631 8.01029C28.0136 7.44322 27.7434 6.87912 27.4792 6.31799C27.3882 6.13392 27.2795 5.90234 27.1768 5.6767C27.1738 5.66779 27.1709 5.66186 27.1709 5.65295L26.889 3.08184C25.7968 2.29804 24.6018 1.62706 23.3069 1.09562C22.0121 0.564178 20.6908 0.201967 19.3696 -0.00585938L16.8298 2.10803C16.8298 2.10803 16.8122 2.1199 16.8034 2.12287L16.8005 2.12881Z" fill="url(#paint4_linear_365_146)"/>
<path d="M25.415 30.1319C25.6323 29.8142 25.8466 29.4965 26.0551 29.1759C26.1021 29.1017 26.0081 29.0186 25.9435 29.0779C25.6029 29.3778 25.2623 29.6984 24.9276 30.0191C24.91 30.0339 24.8865 30.0428 24.863 30.0399L19.7571 29.1611C19.7307 29.1551 19.7072 29.1373 19.6984 29.1106L19.07 27.2045C19.0348 27.1006 18.8851 27.1362 18.8968 27.2461L19.1434 29.1878C19.1464 29.2145 19.1346 29.2412 19.1141 29.259L14.7891 32.611C14.7686 32.6258 14.7451 32.6318 14.7216 32.6228C14.0522 32.4121 13.3739 32.2042 12.6957 32.0172C12.6105 31.9934 12.5635 32.1122 12.6369 32.1567C13.3123 32.5546 14.0346 32.9316 14.7216 33.3027C14.7803 33.3354 14.842 33.371 14.9007 33.4066C14.9066 33.4096 14.9125 33.4156 14.9183 33.4215L16.589 35.2771C19.3871 35.2949 22.1265 34.6328 24.587 33.3829L25.418 30.1408L25.415 30.1319Z" fill="url(#paint5_linear_365_146)"/>
<path d="M17.4961 50.0003C17.8954 47.1887 18.6001 44.4276 18.9407 41.6101C22.1058 41.2538 25.271 40.8767 28.4303 40.4878C28.2365 42.094 28.1425 42.6433 27.9488 43.7061C26.7508 43.81 26.1518 43.8605 24.9539 43.9644C25.089 43.2459 25.1565 42.8719 25.2886 41.9099C23.8881 42.0673 23.1893 42.1445 21.7887 42.2959C21.454 44.5018 20.902 46.6573 20.6143 48.8691C22.0647 48.8573 22.79 48.8483 24.2375 48.8365C24.4048 47.5895 24.49 47.1353 24.6574 46.2743C25.8553 46.2238 26.4543 46.1971 27.6522 46.1436C27.4261 47.3609 27.3116 47.9903 27.0855 50.0003H17.4902H17.4961Z" fill="#7FCDEC"/>
<path d="M29.1025 49.9999C29.5165 46.7282 30.0979 43.492 30.5471 40.2232C33.7123 39.8254 36.8774 39.4186 40.0397 39C39.6814 42.6756 39.0795 46.3244 38.6978 49.9999H29.1025ZM36.9185 40.5528C35.5092 40.722 34.8075 40.8081 33.3981 40.9743C33.0105 43.5722 32.5877 46.1581 32.2237 48.7589C33.6653 48.7441 34.3847 48.7381 35.8263 48.7233C36.164 45.9948 36.5545 43.2782 36.9156 40.5528H36.9185Z" fill="#7FCDEC"/>
<path d="M47.4364 50.0003C47.7946 46.3574 48.2526 42.7323 48.6725 39.0983C47.2631 39.2764 46.5614 39.3625 45.1521 39.5407C44.7028 43.0292 44.2125 46.5058 43.8308 50.0032H40.8359C41.2558 46.2267 41.843 42.477 42.304 38.7034C45.4692 38.2819 48.6314 37.8543 51.7965 37.4238C51.362 41.6189 50.8335 45.8022 50.4342 50.0032H47.4393L47.4364 50.0003Z" fill="#7FCDEC"/>
<path d="M59.1922 50C59.5534 45.8643 60.0114 41.7404 60.4284 37.6106C59.019 37.7888 58.3173 37.8778 56.9079 38.056C56.4851 42.0403 55.9713 46.0098 55.5867 50H52.5918C53.0234 45.6951 53.5901 41.4109 54.0599 37.1118C57.225 36.6784 60.3872 36.2479 63.5524 35.8174C63.112 40.5469 62.5923 45.2675 62.19 50H59.1952H59.1922Z" fill="#7FCDEC"/>
<path d="M64.3535 50.0003C64.7881 45.1639 65.3459 40.3423 65.8216 35.5089C68.9779 35.0813 72.1343 34.6598 75.2936 34.2471C75.0734 36.7825 74.8443 39.318 74.6036 41.8505C72.2899 42.0079 71.1331 42.0851 68.8194 42.2454C68.928 41.7169 68.9838 41.4557 69.0924 40.9302C70.1495 40.8411 70.678 40.7995 71.732 40.7105C71.9082 38.938 71.9963 38.0711 72.1725 36.1383C70.7719 36.3105 70.0731 36.3966 68.6726 36.5718C68.2909 40.5086 67.8475 44.4395 67.4776 48.3792C68.928 48.3644 69.6532 48.3555 71.1037 48.3407C71.2476 46.6751 71.318 45.921 71.459 44.4602C72.6569 44.4068 73.2559 44.383 74.4538 44.3296C74.2512 46.4138 74.1514 47.4856 73.9518 49.9973H64.3565L64.3535 50.0003Z" fill="#7FCDEC"/>
<path d="M76.0342 50.0003C76.4717 44.6503 77.0031 39.3091 77.4788 33.9621C80.641 33.5524 83.8061 33.1545 86.9713 32.7686C86.7775 35.0635 86.6836 36.1205 86.4898 38.2552C85.2918 38.3591 84.6929 38.4125 83.4949 38.5164C83.63 37.0379 83.6975 36.2986 83.8296 34.7429C82.4291 34.9062 81.7303 34.9864 80.3298 35.1526C79.9363 39.5229 79.5223 43.8873 79.1553 48.2605C80.6058 48.2457 81.331 48.2397 82.7785 48.2249C82.9459 46.2179 83.031 45.2975 83.1984 43.4983C84.3963 43.4449 84.9953 43.4182 86.1962 43.3647C85.9936 45.5736 85.8027 47.7884 85.6295 50.0003H76.0342Z" fill="#7FCDEC"/>
<path d="M88.6681 50.0001C89.0704 44.6798 89.5372 39.3654 89.9894 34.048C89.0763 34.1489 88.6182 34.1994 87.7051 34.3033C87.8137 33.6502 87.8695 33.3206 87.9781 32.6496C88.8326 32.5457 89.2612 32.4952 90.1157 32.3943C90.3182 30.132 90.606 27.8785 90.835 25.6192C91.9948 25.3935 92.5732 25.2837 93.733 25.064C93.5421 27.3916 93.3131 29.7193 93.1105 32.0469C94.2673 31.9133 94.8458 31.848 96.0026 31.7203C95.8587 32.418 95.7883 32.7624 95.6473 33.4453C94.5845 33.5551 94.0501 33.6116 92.9872 33.7244C92.5849 38.5311 92.168 43.3348 91.7922 48.1416C93.0166 48.1297 93.6273 48.1238 94.8516 48.1148C94.7078 48.8571 94.6373 49.2341 94.4964 50.0031H88.6711L88.6681 50.0001Z" fill="#7FCDEC"/>
<path d="M40.4512 25.892C40.4512 30.9689 44.5354 35.0987 49.5562 35.0987C54.577 35.0987 58.6611 30.9689 58.6611 25.892C58.6611 21.1625 55.1906 17.2553 50.5632 16.7417L50.7159 17.6591C54.7472 18.2351 57.7773 21.7592 57.7773 25.892C57.7773 30.479 54.0866 34.208 49.5532 34.208C45.0198 34.208 41.3291 30.476 41.3291 25.892C41.3291 22.1452 43.8072 18.8615 47.3658 17.8729L47.219 16.9911C43.2258 18.0569 40.4453 21.6998 40.4453 25.892H40.4512Z" fill="url(#paint6_linear_365_146)"/>
<path d="M49.8904 19.5651C49.8904 12.3684 44.1003 6.5166 36.9861 6.5166C36.2931 6.5166 35.5855 6.57598 34.8838 6.69177L35.3976 7.98326C35.9291 7.90904 36.4605 7.87341 36.9861 7.87341C43.3634 7.87341 48.5486 13.1195 48.5486 19.5651C48.5486 23.5732 46.5608 27.2428 43.2254 29.4072L43.9506 30.5472C47.6736 28.1305 49.8904 24.0334 49.8904 19.5651Z" fill="url(#paint7_linear_365_146)"/>
<path d="M24.0791 19.5653C24.0791 26.7621 29.8692 32.6139 36.9834 32.6139C38.475 32.6139 39.9372 32.3585 41.3348 31.8538L40.5861 30.6781C39.4204 31.0641 38.2078 31.26 36.9834 31.26C30.6061 31.26 25.4209 26.0139 25.4209 19.5653C25.4209 14.7972 28.2279 10.5665 32.5792 8.75541L32.0771 7.49658C27.2149 9.51843 24.0791 14.242 24.0791 19.5653Z" fill="url(#paint8_linear_365_146)"/>
<path d="M31.8778 13.4347L30.2365 11.0358C30.1719 10.9438 30.0339 11.0299 30.0838 11.1278C30.1014 11.1546 30.5741 12.072 31.0733 13.0428C31.085 13.0636 31.085 13.0903 31.0733 13.1141L28.4924 18.093C28.4777 18.1227 28.4425 18.1405 28.4102 18.1316C28.3779 18.1227 28.3427 18.1197 28.3075 18.1197L25.7413 18.2147C25.7325 18.2889 25.7236 18.3602 25.7178 18.4344L28.2575 18.8768C28.281 18.8798 28.3104 18.8827 28.3339 18.8827C28.3427 18.8827 28.3486 18.8827 28.3574 18.8827C28.3897 18.8798 28.422 18.9005 28.4337 18.9332L30.2453 24.111C30.2541 24.1348 30.2482 24.1615 30.2336 24.1823C29.385 25.3016 28.4807 26.4892 28.4807 26.4892C28.4425 26.5396 28.4631 26.6198 28.5394 26.6346C28.5629 26.6406 28.5893 26.6317 28.6069 26.6139L31.0674 24.0576C31.0674 24.0576 31.0821 24.0457 31.0909 24.0428L33.3958 22.9888C34.2619 20.287 34.4499 17.5051 34.0417 14.845L31.8983 13.4614C31.8983 13.4614 31.8837 13.4496 31.8778 13.4407V13.4347Z" fill="url(#paint9_linear_365_146)"/>
<path d="M23.9388 17.9799C23.8566 17.9621 23.7744 17.9413 23.6951 17.9235L23.3281 17.8433C23.2958 17.8374 22.2329 17.5108 22.2329 17.5108C22.2153 17.5048 22.2006 17.493 22.1918 17.4781L19.1499 12.5378C19.1382 12.52 19.1353 12.4962 19.1411 12.4755L19.7078 10.605C19.7372 10.4981 19.5933 10.4417 19.5434 10.5367L18.7389 12.1192C18.7301 12.14 18.7125 12.1518 18.689 12.1578L12.526 13.7016C12.5055 13.7076 12.482 13.7016 12.4643 13.6898L10.2652 12.0746C10.1771 12.0123 10.0743 12.1311 10.1477 12.2082L12.0445 14.2687C12.0592 14.2835 12.065 14.3043 12.065 14.3251L11.6422 20.2986C11.6422 20.3253 11.6246 20.3491 11.5982 20.361C11.5218 20.3966 11.4514 20.4411 11.3868 20.4975C11.2958 20.5747 11.2106 20.6608 11.1196 20.738L10.8436 20.9607C10.5588 21.1952 10.2769 21.4298 10.0039 21.6762C9.9422 21.7297 9.99799 21.8306 10.0773 21.8039C10.4267 21.6911 10.7702 21.5604 11.1108 21.4298L11.4396 21.3021C11.5512 21.2606 11.6687 21.2309 11.7773 21.1923C11.8624 21.1626 11.9388 21.121 12.0092 21.0676C12.0298 21.0527 12.0592 21.0468 12.0826 21.0557L17.6026 23.321C17.629 23.3329 17.6496 23.3566 17.6496 23.3863C17.6496 23.4932 17.676 23.5971 17.72 23.6951C17.767 23.802 17.8228 23.9059 17.8668 24.0128L17.996 24.3334C18.1311 24.6659 18.2691 24.9985 18.4188 25.3221C18.4541 25.3963 18.5627 25.3696 18.5627 25.2894C18.5627 24.9302 18.5392 24.568 18.5187 24.2117L18.4952 23.8673C18.4893 23.7515 18.4952 23.6327 18.4922 23.517C18.4893 23.3982 18.4599 23.2854 18.41 23.1785C18.3983 23.1518 18.4012 23.1191 18.4218 23.0983L22.1712 18.5974C22.183 18.5826 22.2006 18.5737 22.2211 18.5707L23.6569 18.4608C23.7362 18.4549 23.8125 18.446 23.8918 18.4401C23.9035 18.2857 23.9182 18.1313 23.9388 17.9769V17.9799ZM13.401 14.8447C13.26 15.7354 12.5935 20.0195 12.5906 20.0136L12.94 14.625L12.9517 14.4498L13.122 14.4142L18.3396 13.2771L18.3454 13.2979L13.401 14.8447Z" fill="url(#paint10_linear_365_146)"/>
</g>
<defs>
<linearGradient id="paint0_linear_365_146" x1="2.14648" y1="34.3862" x2="29.8724" y2="34.3862" gradientUnits="userSpaceOnUse">
<stop stop-color="#595757"/>
<stop offset="1" stop-color="#231815"/>
</linearGradient>
<linearGradient id="paint1_linear_365_146" x1="30.2627" y1="15.7888" x2="36.549" y2="15.7888" gradientUnits="userSpaceOnUse">
<stop stop-color="#595757"/>
<stop offset="1" stop-color="#231815"/>
</linearGradient>
<linearGradient id="paint2_linear_365_146" x1="1.37019" y1="8.09059" x2="9.71834" y2="10.0788" gradientUnits="userSpaceOnUse">
<stop stop-color="#898989"/>
<stop offset="0.36" stop-color="#595757"/>
<stop offset="1" stop-color="#231815"/>
</linearGradient>
<linearGradient id="paint3_linear_365_146" x1="-0.101889" y1="23.3527" x2="10.264" y2="25.8214" gradientUnits="userSpaceOnUse">
<stop stop-color="#898989"/>
<stop offset="0.36" stop-color="#595757"/>
<stop offset="1" stop-color="#231815"/>
</linearGradient>
<linearGradient id="paint4_linear_365_146" x1="15.0346" y1="3.06297" x2="28.6871" y2="6.31441" gradientUnits="userSpaceOnUse">
<stop stop-color="#898989"/>
<stop offset="0.36" stop-color="#595757"/>
<stop offset="1" stop-color="#231815"/>
</linearGradient>
<linearGradient id="paint5_linear_365_146" x1="13.0845" y1="30.0572" x2="25.1651" y2="32.9343" gradientUnits="userSpaceOnUse">
<stop stop-color="#898989"/>
<stop offset="0.36" stop-color="#595757"/>
<stop offset="1" stop-color="#231815"/>
</linearGradient>
<linearGradient id="paint6_linear_365_146" x1="40.4512" y1="25.9217" x2="58.6641" y2="25.9217" gradientUnits="userSpaceOnUse">
<stop stop-color="#898989"/>
<stop offset="0.36" stop-color="#595757"/>
<stop offset="1" stop-color="#231815"/>
</linearGradient>
<linearGradient id="paint7_linear_365_146" x1="34.8809" y1="18.5319" x2="49.8904" y2="18.5319" gradientUnits="userSpaceOnUse">
<stop stop-color="#898989"/>
<stop offset="0.36" stop-color="#595757"/>
<stop offset="1" stop-color="#231815"/>
</linearGradient>
<linearGradient id="paint8_linear_365_146" x1="24.0791" y1="20.0552" x2="41.3348" y2="20.0552" gradientUnits="userSpaceOnUse">
<stop stop-color="#898989"/>
<stop offset="0.36" stop-color="#595757"/>
<stop offset="1" stop-color="#231815"/>
</linearGradient>
<linearGradient id="paint9_linear_365_146" x1="25.7178" y1="18.8144" x2="34.2473" y2="18.8144" gradientUnits="userSpaceOnUse">
<stop stop-color="#898989"/>
<stop offset="0.36" stop-color="#595757"/>
<stop offset="1" stop-color="#231815"/>
</linearGradient>
<linearGradient id="paint10_linear_365_146" x1="9.97743" y1="17.9294" x2="23.9388" y2="17.9294" gradientUnits="userSpaceOnUse">
<stop stop-color="#898989"/>
<stop offset="0.36" stop-color="#595757"/>
<stop offset="1" stop-color="#231815"/>
</linearGradient>
<clipPath id="clip0_365_146">
<rect width="96" height="50" fill="white"/>
</clipPath>
</defs>
</svg>
